CommonSans-CondensedRegular.ufo
<glyph name="quotedbl" format="2">
  <advance width="302"/>
  <unicode hex="0022"/>
  <outline>
    <contour>
      <point x="64" y="450" type="line"/>
      <point x="116" y="450" type="line"/>
      <point x="135" y="580" type="line"/>
      <point x="135" y="672" type="line"/>
      <point x="45" y="672" type="line"/>
      <point x="45" y="580" type="line"/>
    </contour>
    <contour>
      <point x="186" y="450" type="line"/>
      <point x="238" y="450" type="line"/>
      <point x="257" y="580" type="line"/>
      <point x="257" y="672" type="line"/>
      <point x="167" y="672" type="line"/>
      <point x="167" y="580" type="line"/>
    </contour>
  </outline>
</glyph>
<glyph name="numbersign" format="2">
  <advance width="603"/>
  <unicode hex="0023"/>
  <outline>
    <contour>
      <point x="65" y="0" type="line"/>
      <point x="168" y="0" type="line"/>
      <point x="313" y="700" type="line"/>
      <point x="214" y="700" type="line"/>
    </contour>
    <contour>
      <point x="269" y="0" type="line"/>
      <point x="372" y="0" type="line"/>
      <point x="517" y="700" type="line"/>
      <point x="418" y="700" type="line"/>
    </contour>
    <contour>
      <point x="61" y="414" type="line"/>
      <point x="576" y="414" type="line"/>
      <point x="576" y="506" type="line"/>
      <point x="61" y="506" type="line"/>
    </contour>
    <contour>
      <point x="24" y="166" type="line"/>
      <point x="539" y="166" type="line"/>
      <point x="539" y="258" type="line"/>
      <point x="24" y="258" type="line"/>
    </contour>
  </outline>
</glyph>
<glyph name="percent" format="2">
  <advance width="746"/>
  <unicode hex="0025"/>
  <outline>
    <contour>
      <point x="433" y="176" type="curve" smooth="yes"/>
      <point x="433" y="47"/>
      <point x="468" y="-14"/>
      <point x="575" y="-14" type="curve" smooth="yes"/>
      <point x="681" y="-14"/>
      <point x="716" y="47"/>
      <point x="716" y="176" type="curve" smooth="yes"/>
      <point x="716" y="305"/>
      <point x="680" y="366"/>
      <point x="575" y="366" type="curve" smooth="yes"/>
      <point x="468" y="366"/>
      <point x="433" y="305"/>
    </contour>
    <contour>
      <point x="511" y="176" type="curve" smooth="yes"/>
      <point x="511" y="244"/>
      <point x="511" y="293"/>
      <point x="575" y="293" type="curve" smooth="yes"/>
      <point x="638" y="293"/>
      <point x="638" y="244"/>
      <point x="638" y="176" type="curve" smooth="yes"/>
      <point x="638" y="112"/>
      <point x="634" y="59"/>
      <point x="575" y="59" type="curve" smooth="yes"/>
      <point x="511" y="59"/>
      <point x="511" y="108"/>
    </contour>
    <contour>
      <point x="113" y="0" type="line"/>
      <point x="218" y="0" type="line"/>
      <point x="632" y="700" type="line"/>
      <point x="530" y="700" type="line"/>
    </contour>
    <contour>
      <point x="30" y="540" type="curve" smooth="yes"/>
      <point x="30" y="411"/>
      <point x="65" y="350"/>
      <point x="172" y="350" type="curve" smooth="yes"/>
      <point x="278" y="350"/>
      <point x="313" y="411"/>
      <point x="313" y="540" type="curve" smooth="yes"/>
      <point x="313" y="669"/>
      <point x="277" y="730"/>
      <point x="172" y="730" type="curve" smooth="yes"/>
      <point x="65" y="730"/>
      <point x="30" y="669"/>
    </contour>
    <contour>
      <point x="108" y="540" type="curve" smooth="yes"/>
      <point x="108" y="608"/>
      <point x="108" y="657"/>
      <point x="172" y="657" type="curve" smooth="yes"/>
      <point x="235" y="657"/>
      <point x="235" y="608"/>
      <point x="235" y="540" type="curve" smooth="yes"/>
      <point x="235" y="476"/>
      <point x="231" y="423"/>
      <point x="172" y="423" type="curve" smooth="yes"/>
      <point x="108" y="423"/>
      <point x="108" y="472"/>
    </contour>
  </outline>
</glyph>
<glyph name="quotesingle" format="2">
  <advance width="180"/>
  <unicode hex="0027"/>
  <outline>
    <contour>
      <point x="64" y="450" type="line"/>
      <point x="116" y="450" type="line"/>
      <point x="135" y="580" type="line"/>
      <point x="135" y="672" type="line"/>
      <point x="45" y="672" type="line"/>
      <point x="45" y="580" type="line"/>
    </contour>
  </outline>
</glyph>
<glyph name="parenright" format="2">
  <advance width="253"/>
  <unicode hex="0029"/>
  <outline>
    <contour>
      <point x="40" y="-180" type="curve"/>
      <point x="102" y="-180" type="line"/>
      <point x="125" y="-125" type="line" smooth="yes"/>
      <point x="170" y="-14"/>
      <point x="212" y="109"/>
      <point x="212" y="230" type="curve" smooth="yes"/>
      <point x="212" y="355"/>
      <point x="188" y="471"/>
      <point x="122" y="616" type="curve" smooth="yes"/>
      <point x="113" y="637"/>
      <point x="102" y="658"/>
      <point x="91" y="680" type="curve"/>
      <point x="39" y="680" type="line"/>
      <point x="46" y="661"/>
      <point x="53" y="642"/>
      <point x="59" y="623" type="curve" smooth="yes"/>
      <point x="102" y="491"/>
      <point x="120" y="359"/>
      <point x="120" y="230" type="curve" smooth="yes"/>
      <point x="120" y="89"/>
      <point x="89" y="-45"/>
    </contour>
  </outline>
</glyph>
<glyph name="asterisk" format="2">
  <advance width="543"/>
  <unicode hex="002A"/>
  <outline>
    <contour>
      <point x="66" y="745" type="line"/>
      <point x="265" y="687" type="line"/>
      <point x="270" y="697" type="line"/>
      <point x="115" y="834" type="line"/>
    </contour>
    <contour>
      <point x="136.976" y="511.003" type="line"/>
      <point x="271" y="689" type="line"/>
      <point x="264" y="697" type="line"/>
      <point x="67.9761" y="585.003" type="line"/>
    </contour>
    <contour>
      <point x="400.7" y="503.181" type="line"/>
      <point x="272" y="693" type="line"/>
      <point x="263" y="691" type="line"/>
      <point x="281.76" y="472.262" type="line"/>
    </contour>
    <contour>
      <point x="485" y="747" type="line"/>
      <point x="267" y="698" type="line"/>
      <point x="267" y="686" type="line"/>
      <point x="485" y="637" type="line"/>
    </contour>
    <contour>
      <point x="282" y="916" type="line"/>
      <point x="261" y="694" type="line"/>
      <point x="273" y="690" type="line"/>
      <point x="387" y="882" type="line"/>
    </contour>
  </outline>
</glyph>
<glyph name="plus" format="2">
  <advance width="486"/>
  <unicode hex="002B"/>
  <outline>
    <contour>
      <point x="66" y="195" type="line"/>
      <point x="420" y="195" type="line"/>
      <point x="420" y="285" type="line"/>
      <point x="66" y="285" type="line"/>
    </contour>
    <contour>
      <point x="198" y="63" type="line"/>
      <point x="288" y="63" type="line"/>
      <point x="288" y="417" type="line"/>
      <point x="198" y="417" type="line"/>
    </contour>
  </outline>
</glyph>
<glyph name="period" format="2">
  <advance width="188"/>
  <unicode hex="002E"/>
  <outline>
    <contour>
      <point x="49" y="0" type="line"/>
      <point x="139" y="0" type="line"/>
      <point x="139" y="90" type="line"/>
      <point x="49" y="90" type="line"/>
    </contour>
  </outline>
</glyph>
<glyph name="zero" format="2">
  <advance width="528"/>
  <unicode hex="0030"/>
  <outline>
    <contour>
      <point x="40" y="341" type="curve" smooth="yes"/>
      <point x="40" y="117"/>
      <point x="72" y="-12"/>
      <point x="262" y="-12" type="curve" smooth="yes"/>
      <point x="452" y="-12"/>
      <point x="488" y="117"/>
      <point x="488" y="341" type="curve" smooth="yes"/>
      <point x="488" y="565"/>
      <point x="452" y="692"/>
      <point x="262" y="692" type="curve" smooth="yes"/>
      <point x="72" y="692"/>
      <point x="40" y="565"/>
    </contour>
    <contour>
      <point x="136" y="341" type="curve" smooth="yes"/>
      <point x="136" y="531"/>
      <point x="158" y="602"/>
      <point x="264" y="602" type="curve" smooth="yes"/>
      <point x="370" y="602"/>
      <point x="392" y="531"/>
      <point x="392" y="341" type="curve" smooth="yes"/>
      <point x="392" y="151"/>
      <point x="370" y="78"/>
      <point x="264" y="78" type="curve" smooth="yes"/>
      <point x="158" y="78"/>
      <point x="136" y="151"/>
    </contour>
  </outline>
  <guideline angle="90" x="264" y="0"/>
  <guideline angle="90" x="40" y="0"/>
  <guideline angle="90" x="488" y="0"/>
</glyph>
<glyph name="one" format="2">
  <advance width="299"/>
  <unicode hex="0031"/>
  <outline>
    <contour>
      <point x="10" y="539" type="line"/>
      <point x="89" y="539"/>
      <point x="124" y="545"/>
      <point x="156" y="563" type="curve"/>
      <point x="149" y="576" type="line"/>
      <point x="149" y="0" type="line"/>
      <point x="241" y="0" type="line"/>
      <point x="241" y="680" type="line"/>
      <point x="189" y="680" type="line"/>
      <point x="152" y="641"/>
      <point x="101" y="614"/>
      <point x="10" y="614" type="curve"/>
    </contour>
  </outline>
</glyph>
<glyph name="two" format="2">
  <advance width="487"/>
  <unicode hex="0032"/>
  <outline>
    <contour>
      <point x="52" y="0" type="line"/>
      <point x="448" y="0" type="line"/>
      <point x="448" y="90" type="line"/>
      <point x="154" y="90" type="line"/>
      <point x="165" y="75" type="line"/>
      <point x="300" y="241"/>
      <point x="457" y="317"/>
      <point x="457" y="497" type="curve" smooth="yes"/>
      <point x="457" y="624"/>
      <point x="387" y="692"/>
      <point x="256" y="692" type="curve" smooth="yes"/>
      <point x="129" y="692"/>
      <point x="43" y="605"/>
      <point x="30" y="463" type="curve"/>
      <point x="130" y="463" type="line"/>
      <point x="139" y="551"/>
      <point x="186" y="602"/>
      <point x="257" y="602" type="curve" smooth="yes"/>
      <point x="320" y="602"/>
      <point x="361" y="562"/>
      <point x="361" y="501" type="curve" smooth="yes"/>
      <point x="361" y="350"/>
      <point x="187" y="258"/>
      <point x="52" y="84" type="curve"/>
    </contour>
  </outline>
</glyph>
<glyph name="three" format="2">
  <advance width="506"/>
  <unicode hex="0033"/>
  <outline>
    <contour>
      <point x="34" y="162" type="line"/>
      <point x="46" y="56"/>
      <point x="128" y="-12"/>
      <point x="258" y="-12" type="curve" smooth="yes"/>
      <point x="388" y="-12"/>
      <point x="476" y="70"/>
      <point x="476" y="189" type="curve" smooth="yes"/>
      <point x="476" y="295"/>
      <point x="422" y="363"/>
      <point x="323" y="379" type="curve"/>
      <point x="326" y="347" type="line"/>
      <point x="401" y="373"/>
      <point x="450" y="441"/>
      <point x="450" y="519" type="curve" smooth="yes"/>
      <point x="450" y="628"/>
      <point x="371" y="692"/>
      <point x="250" y="692" type="curve" smooth="yes"/>
      <point x="130" y="692"/>
      <point x="43" y="615"/>
      <point x="34" y="500" type="curve"/>
      <point x="134" y="500" type="line"/>
      <point x="144" y="562"/>
      <point x="187" y="602"/>
      <point x="246" y="602" type="curve" smooth="yes"/>
      <point x="307" y="602"/>
      <point x="350" y="563"/>
      <point x="350" y="499" type="curve" smooth="yes"/>
      <point x="350" y="435"/>
      <point x="308" y="399"/>
      <point x="233" y="399" type="curve" smooth="yes"/>
      <point x="183" y="399" type="line"/>
      <point x="183" y="309" type="line"/>
      <point x="255" y="309" type="line" smooth="yes"/>
      <point x="328" y="309"/>
      <point x="376" y="263"/>
      <point x="376" y="191" type="curve" smooth="yes"/>
      <point x="376" y="124"/>
      <point x="330" y="78"/>
      <point x="263" y="78" type="curve" smooth="yes"/>
      <point x="200" y="78"/>
      <point x="146" y="110"/>
      <point x="134" y="162" type="curve"/>
    </contour>
  </outline>
</glyph>
<glyph name="four" format="2">
  <advance width="468"/>
  <unicode hex="0034"/>
  <outline>
    <contour>
      <point x="10" y="173" type="line"/>
      <point x="458" y="173" type="line"/>
      <point x="458" y="263" type="line"/>
      <point x="59" y="263" type="line"/>
      <point x="80" y="196" type="line"/>
      <point x="339" y="629" type="line"/>
      <point x="306" y="629" type="line"/>
      <point x="306" y="0" type="line"/>
      <point x="398" y="0" type="line"/>
      <point x="398" y="680" type="line"/>
      <point x="264" y="680" type="line"/>
      <point x="10" y="260" type="line"/>
    </contour>
  </outline>
</glyph>
<glyph name="five" format="2">
  <advance width="524"/>
  <unicode hex="0035"/>
  <outline>
    <contour>
      <point x="53" y="156" type="line"/>
      <point x="81" y="44"/>
      <point x="153" y="-12"/>
      <point x="269" y="-12" type="curve" smooth="yes"/>
      <point x="403" y="-12"/>
      <point x="494" y="91"/>
      <point x="494" y="243" type="curve" smooth="yes"/>
      <point x="494" y="393"/>
      <point x="415" y="493"/>
      <point x="298" y="493" type="curve" smooth="yes"/>
      <point x="224" y="493"/>
      <point x="156" y="455"/>
      <point x="129" y="400" type="curve"/>
      <point x="148" y="378" type="line"/>
      <point x="148" y="615" type="line"/>
      <point x="133" y="590" type="line"/>
      <point x="428" y="590" type="line"/>
      <point x="428" y="680" type="line"/>
      <point x="56" y="680" type="line"/>
      <point x="56" y="298" type="line"/>
      <point x="141" y="298" type="line"/>
      <point x="149" y="362"/>
      <point x="205" y="410"/>
      <point x="270" y="410" type="curve" smooth="yes"/>
      <point x="347" y="410"/>
      <point x="398" y="346"/>
      <point x="398" y="249" type="curve" smooth="yes"/>
      <point x="398" y="146"/>
      <point x="346" y="78"/>
      <point x="267" y="78" type="curve" smooth="yes"/>
      <point x="200" y="78"/>
      <point x="167" y="100"/>
      <point x="149" y="156" type="curve"/>
    </contour>
  </outline>
</glyph>
<glyph name="six" format="2">
  <advance width="527"/>
  <unicode hex="0036"/>
  <outline>
    <contour>
      <point x="138" y="232" type="curve" smooth="yes"/>
      <point x="138" y="344"/>
      <point x="216" y="371"/>
      <point x="277" y="371" type="curve" smooth="yes"/>
      <point x="323" y="371"/>
      <point x="397" y="343"/>
      <point x="397" y="230" type="curve" smooth="yes"/>
      <point x="397" y="137"/>
      <point x="346" y="77"/>
      <point x="264" y="77" type="curve" smooth="yes"/>
      <point x="185" y="77"/>
      <point x="138" y="135"/>
    </contour>
    <contour>
      <point x="40" y="268" type="curve" smooth="yes"/>
      <point x="40" y="90"/>
      <point x="124" y="-12"/>
      <point x="267" y="-12" type="curve" smooth="yes"/>
      <point x="401" y="-12"/>
      <point x="497" y="81"/>
      <point x="497" y="223" type="curve" smooth="yes"/>
      <point x="497" y="372"/>
      <point x="403" y="453"/>
      <point x="287" y="453" type="curve" smooth="yes"/>
      <point x="219" y="453"/>
      <point x="168" y="418"/>
      <point x="142" y="368" type="curve"/>
      <point x="139" y="368" type="line"/>
      <point x="154" y="543"/>
      <point x="186" y="603"/>
      <point x="270" y="603" type="curve" smooth="yes"/>
      <point x="340" y="603"/>
      <point x="356" y="583"/>
      <point x="374" y="548" type="curve"/>
      <point x="474" y="548" type="line"/>
      <point x="446" y="636"/>
      <point x="386" y="692"/>
      <point x="272" y="692" type="curve" smooth="yes"/>
      <point x="94" y="692"/>
      <point x="40" y="508"/>
    </contour>
  </outline>
</glyph>
<glyph name="seven" format="2">
  <advance width="440"/>
  <unicode hex="0037"/>
  <outline>
    <contour>
      <point x="10" y="590" type="line"/>
      <point x="430" y="590" type="line"/>
      <point x="430" y="680" type="line"/>
      <point x="10" y="680" type="line"/>
    </contour>
    <contour>
      <point x="94" y="0" type="curve"/>
      <point x="190" y="0" type="line"/>
      <point x="190" y="264"/>
      <point x="271" y="393"/>
      <point x="430" y="590" type="curve"/>
      <point x="430" y="605" type="line"/>
      <point x="339" y="605" type="line"/>
      <point x="175" y="413"/>
      <point x="94" y="273"/>
    </contour>
  </outline>
</glyph>
<glyph name="eight" format="2">
  <advance width="513"/>
  <unicode hex="0038"/>
  <outline>
    <contour>
      <point x="30" y="181" type="curve" smooth="yes"/>
      <point x="30" y="65"/>
      <point x="105" y="-12"/>
      <point x="255" y="-12" type="curve" smooth="yes"/>
      <point x="392" y="-12"/>
      <point x="483" y="65"/>
      <point x="483" y="181" type="curve" smooth="yes"/>
      <point x="483" y="277"/>
      <point x="428" y="340"/>
      <point x="347" y="356" type="curve"/>
      <point x="349" y="347" type="line"/>
      <point x="409" y="365"/>
      <point x="470" y="411"/>
      <point x="470" y="507" type="curve" smooth="yes"/>
      <point x="470" y="618"/>
      <point x="385" y="692"/>
      <point x="256" y="692" type="curve" smooth="yes"/>
      <point x="127" y="692"/>
      <point x="42" y="615"/>
      <point x="42" y="498" type="curve" smooth="yes"/>
      <point x="42" y="402"/>
      <point x="108" y="359"/>
      <point x="133" y="348" type="curve"/>
      <point x="138" y="357" type="line"/>
      <point x="83" y="328"/>
      <point x="30" y="278"/>
    </contour>
    <contour>
      <point x="126" y="187" type="curve" smooth="yes"/>
      <point x="126" y="256"/>
      <point x="183" y="303"/>
      <point x="255" y="303" type="curve" smooth="yes"/>
      <point x="335" y="303"/>
      <point x="387" y="256"/>
      <point x="387" y="187" type="curve" smooth="yes"/>
      <point x="387" y="123"/>
      <point x="338" y="78"/>
      <point x="255" y="78" type="curve" smooth="yes"/>
      <point x="172" y="78"/>
      <point x="126" y="123"/>
    </contour>
    <contour>
      <point x="138" y="500" type="curve" smooth="yes"/>
      <point x="138" y="561"/>
      <point x="185" y="602"/>
      <point x="257" y="602" type="curve" smooth="yes"/>
      <point x="328" y="602"/>
      <point x="374" y="562"/>
      <point x="374" y="500" type="curve" smooth="yes"/>
      <point x="374" y="450"/>
      <point x="338" y="399"/>
      <point x="257" y="399" type="curve" smooth="yes"/>
      <point x="173" y="399"/>
      <point x="138" y="450"/>
    </contour>
  </outline>
  <guideline angle="220.236" x="483" y="65"/>
  <guideline angle="314.246" x="30" y="65"/>
</glyph>
<glyph name="nine" format="2">
  <advance width="527"/>
  <unicode hex="0039"/>
  <outline>
    <contour>
      <point x="130" y="461" type="curve" smooth="yes"/>
      <point x="130" y="538"/>
      <point x="171" y="603"/>
      <point x="259" y="603" type="curve" smooth="yes"/>
      <point x="374" y="603"/>
      <point x="388" y="538"/>
      <point x="388" y="461" type="curve" smooth="yes"/>
      <point x="388" y="356"/>
      <point x="308" y="329"/>
      <point x="247" y="329" type="curve" smooth="yes"/>
      <point x="201" y="329"/>
      <point x="130" y="355"/>
    </contour>
    <contour>
      <point x="52" y="134" type="line"/>
      <point x="81" y="46"/>
      <point x="141" y="-11"/>
      <point x="254" y="-11" type="curve" smooth="yes"/>
      <point x="433" y="-11"/>
      <point x="487" y="152"/>
      <point x="487" y="392" type="curve" smooth="yes"/>
      <point x="487" y="568"/>
      <point x="430" y="692"/>
      <point x="255" y="692" type="curve" smooth="yes"/>
      <point x="125" y="692"/>
      <point x="30" y="604"/>
      <point x="30" y="468" type="curve" smooth="yes"/>
      <point x="30" y="325"/>
      <point x="124" y="247"/>
      <point x="239" y="247" type="curve" smooth="yes"/>
      <point x="308" y="247"/>
      <point x="359" y="282"/>
      <point x="385" y="332" type="curve"/>
      <point x="388" y="332" type="line"/>
      <point x="376" y="134"/>
      <point x="349" y="78"/>
      <point x="257" y="78" type="curve" smooth="yes"/>
      <point x="186" y="78"/>
      <point x="171" y="99"/>
      <point x="153" y="134" type="curve"/>
    </contour>
  </outline>
</glyph>
<glyph name="question" format="2">
  <advance width="467"/>
  <unicode hex="003F"/>
  <outline>
    <contour>
      <point x="40" y="480" type="curve"/>
      <point x="132" y="480" type="line"/>
      <point x="132" y="562.558"/>
      <point x="175.184" y="620"/>
      <point x="237.249" y="620" type="curve" smooth="yes"/>
      <point x="292.299" y="620"/>
      <point x="335" y="573.385"/>
      <point x="335" y="513.289" type="curve" smooth="yes"/>
      <point x="335" y="399"/>
      <point x="168" y="354"/>
      <point x="168" y="180" type="curve" smooth="yes"/>
      <point x="168" y="140" type="line"/>
      <point x="260" y="140" type="line"/>
      <point x="260" y="180" type="line" smooth="yes"/>
      <point x="260" y="319"/>
      <point x="427" y="335"/>
      <point x="427" y="509" type="curve" smooth="yes"/>
      <point x="427" y="629.6"/>
      <point x="349.419" y="710"/>
      <point x="233.047" y="710" type="curve" smooth="yes"/>
      <point x="117.219" y="710"/>
      <point x="40" y="618"/>
    </contour>
    <contour>
      <point x="168" y="0" type="line"/>
      <point x="260" y="0" type="line"/>
      <point x="260" y="90" type="line"/>
      <point x="168" y="90" type="line"/>
    </contour>
  </outline>
</glyph>
<glyph name="at" format="2">
  <advance width="674"/>
  <unicode hex="0040"/>
  <outline>
    <contour>
      <point x="287.61" y="171.93" type="curve" smooth="yes"/>
      <point x="287.61" y="252.03"/>
      <point x="312.98" y="309.12"/>
      <point x="353.11" y="309.12" type="curve" smooth="yes"/>
      <point x="367.69" y="309.12"/>
      <point x="383.94" y="300.67"/>
      <point x="394.24" y="286.45" type="curve"/>
      <point x="365.97" y="136.01" type="line" smooth="yes"/>
      <point x="359.54" y="101.8"/>
      <point x="342.8" y="79"/>
      <point x="324.11" y="79" type="curve" smooth="yes"/>
      <point x="302.2" y="79"/>
      <point x="287.61" y="113.95"/>
    </contour>
    <contour>
      <point x="40.6" y="186.492" type="curve" smooth="yes"/>
      <point x="40.6" y="-10.6031"/>
      <point x="166.344" y="-142"/>
      <point x="354.96" y="-142" type="curve" smooth="yes"/>
      <point x="409.762" y="-142"/>
      <point x="468.273" y="-125.847"/>
      <point x="517.998" y="-95.9434" type="curve"/>
      <point x="504.791" y="-37" type="line"/>
      <point x="473.271" y="-55.8"/>
      <point x="415.142" y="-70"/>
      <point x="369.152" y="-70" type="curve" smooth="yes"/>
      <point x="227.341" y="-70"/>
      <point x="132.8" y="32.7422"/>
      <point x="132.8" y="186.855" type="curve" smooth="yes"/>
      <point x="132.8" y="354.342"/>
      <point x="212.563" y="466"/>
      <point x="332.208" y="466" type="curve" smooth="yes"/>
      <point x="457.483" y="466"/>
      <point x="541" y="379.597"/>
      <point x="541" y="249.993" type="curve" smooth="yes"/>
      <point x="541" y="160.971"/>
      <point x="514.985" y="90.1577"/>
      <point x="475.962" y="90.1577" type="curve" smooth="yes"/>
      <point x="458.425" y="90.1577"/>
      <point x="453.111" y="110.158"/>
      <point x="453.111" y="135.158" type="curve" smooth="yes"/>
      <point x="453.111" y="154.158"/>
      <point x="457.256" y="174.211"/>
      <point x="460.714" y="190.346" type="curve" smooth="yes"/>
      <point x="496" y="355" type="line"/>
      <point x="418.928" y="355" type="line"/>
      <point x="393.296" y="296.802" type="line"/>
      <point x="423.235" y="316" type="line"/>
      <point x="412.858" y="355"/>
      <point x="368.977" y="381"/>
      <point x="329.166" y="381" type="curve" smooth="yes"/>
      <point x="251.617" y="381"/>
      <point x="195.4" y="286.276"/>
      <point x="195.4" y="163.508" type="curve" smooth="yes"/>
      <point x="195.4" y="76.2033"/>
      <point x="230.704" y="18"/>
      <point x="283.659" y="18" type="curve" smooth="yes"/>
      <point x="322.83" y="18"/>
      <point x="369.788" y="53.0246"/>
      <point x="401.053" y="105.562" type="curve"/>
      <point x="384.183" y="125.305" type="line"/>
      <point x="376.004" y="114.593"/>
      <point x="370.551" y="91.8529"/>
      <point x="370.551" y="78.6066" type="curve" smooth="yes"/>
      <point x="370.551" y="46.4172"/>
      <point x="400.539" y="18"/>
      <point x="445.522" y="18" type="curve" smooth="yes"/>
      <point x="558.249" y="18"/>
      <point x="633.4" y="113.6"/>
      <point x="633.4" y="257" type="curve" smooth="yes"/>
      <point x="633.4" y="425.6"/>
      <point x="514.119" y="538"/>
      <point x="335.198" y="538" type="curve" smooth="yes"/>
      <point x="158.439" y="538"/>
      <point x="40.6" y="397.397"/>
    </contour>
  </outline>
</glyph>
<glyph name="A" format="2">
  <advance width="430"/>
  <unicode hex="0041"/>
  <anchor x="215" y="740" name="top"/>
  <anchor x="215" y="639" name="t.ring"/>
  <anchor x="215" y="-50" name="bottom"/>
  <anchor x="420" y="0" name="b.ogonek"/>
  <outline>
    <contour>
      <point x="10" y="0" type="line"/>
      <point x="103" y="0" type="line"/>
      <point x="203" y="437" type="line" smooth="yes"/>
      <point x="206" y="451"/>
      <point x="212" y="472"/>
      <point x="214" y="495" type="curve"/>
      <point x="210" y="493" type="line"/>
      <point x="220" y="493" type="line"/>
      <point x="216" y="495" type="line"/>
      <point x="218" y="472"/>
      <point x="224" y="451"/>
      <point x="227" y="437" type="curve" smooth="yes"/>
      <point x="328" y="0" type="line"/>
      <point x="420" y="0" type="line"/>
      <point x="264" y="680" type="line"/>
      <point x="166" y="680" type="line"/>
    </contour>
    <contour>
      <point x="102" y="187" type="line"/>
      <point x="330" y="187" type="line"/>
      <point x="330" y="277" type="line"/>
      <point x="102" y="277" type="line"/>
    </contour>
  </outline>
  <guideline angle="90" x="215" y="0"/>
</glyph>
<glyph name="B" format="2">
  <advance width="485"/>
  <unicode hex="0042"/>
  <anchor x="224" y="740" name="top"/>
  <anchor x="224" y="-50" name="bottom"/>
  <outline>
    <contour>
      <point x="60" y="0" type="line"/>
      <point x="152" y="0" type="line"/>
      <point x="152" y="680" type="line"/>
      <point x="60" y="680" type="line"/>
    </contour>
    <contour>
      <point x="104" y="0" type="line"/>
      <point x="233" y="0" type="line" smooth="yes"/>
      <point x="369" y="0"/>
      <point x="437" y="66"/>
      <point x="437" y="200" type="curve" smooth="yes"/>
      <point x="437" y="305"/>
      <point x="386" y="375"/>
      <point x="274" y="399" type="curve"/>
      <point x="346" y="322" type="line"/>
      <point x="346" y="421" type="line"/>
      <point x="276" y="345" type="line"/>
      <point x="379" y="376"/>
      <point x="419" y="443"/>
      <point x="419" y="519" type="curve" smooth="yes"/>
      <point x="419" y="616"/>
      <point x="347" y="680"/>
      <point x="237" y="680" type="curve" smooth="yes"/>
      <point x="104" y="680" type="line"/>
      <point x="104" y="590" type="line"/>
      <point x="237" y="590" type="line" smooth="yes"/>
      <point x="292" y="590"/>
      <point x="323" y="558"/>
      <point x="323" y="509" type="curve" smooth="yes"/>
      <point x="323" y="452"/>
      <point x="278" y="412"/>
      <point x="214" y="412" type="curve" smooth="yes"/>
      <point x="104" y="412" type="line"/>
      <point x="104" y="322" type="line"/>
      <point x="220" y="322" type="line" smooth="yes"/>
      <point x="301" y="322"/>
      <point x="341" y="282"/>
      <point x="341" y="203" type="curve" smooth="yes"/>
      <point x="341" y="127"/>
      <point x="305" y="90"/>
      <point x="230" y="90" type="curve" smooth="yes"/>
      <point x="104" y="90" type="line"/>
    </contour>
  </outline>
  <guideline angle="0" x="0" y="42"/>
  <guideline angle="0" x="0" y="382"/>
  <guideline angle="0" x="0" y="360"/>
  <guideline angle="0" x="0" y="127"/>
  <guideline angle="0" x="0" y="536"/>
  <guideline angle="90" x="224" y="0"/>
</glyph>
<glyph name="C" format="2">
  <advance width="524"/>
  <unicode hex="0043"/>
  <anchor x="271" y="740" name="top"/>
  <anchor x="271" y="-60" name="bottom"/>
  <anchor x="247" y="0" name="b.cedilla"/>
  <outline>
    <contour>
      <point x="48" y="340" type="curve" smooth="yes"/>
      <point x="48" y="80"/>
      <point x="121" y="-12"/>
      <point x="271" y="-12" type="curve" smooth="yes"/>
      <point x="398" y="-12"/>
      <point x="456" y="63"/>
      <point x="471" y="187" type="curve"/>
      <point x="378" y="187" type="line"/>
      <point x="368" y="115"/>
      <point x="333" y="78"/>
      <point x="271" y="78" type="curve" smooth="yes"/>
      <point x="181" y="78"/>
      <point x="144" y="140"/>
      <point x="144" y="340" type="curve" smooth="yes"/>
      <point x="144" y="540"/>
      <point x="181" y="602"/>
      <point x="271" y="602" type="curve" smooth="yes"/>
      <point x="349" y="602"/>
      <point x="376" y="550"/>
      <point x="386" y="477" type="curve"/>
      <point x="476" y="477" type="line"/>
      <point x="461" y="610"/>
      <point x="401" y="692"/>
      <point x="271" y="692" type="curve" smooth="yes"/>
      <point x="121" y="692"/>
      <point x="48" y="600"/>
    </contour>
  </outline>
  <guideline angle="90" name="h_1" x="271" y="0"/>
</glyph>
<glyph name="D" format="2">
  <advance width="491"/>
  <unicode hex="0044"/>
  <anchor x="220" y="740" name="top"/>
  <anchor x="220" y="-40" name="bottom"/>
  <anchor x="177" y="0" name="b.cedilla"/>
  <outline>
    <contour>
      <point x="60" y="0" type="line"/>
      <point x="152" y="0" type="line"/>
      <point x="152" y="680" type="line"/>
      <point x="60" y="680" type="line"/>
    </contour>
    <contour>
      <point x="72" y="0" type="line"/>
      <point x="220" y="0" type="line" smooth="yes"/>
      <point x="371" y="0"/>
      <point x="443" y="139"/>
      <point x="443" y="340" type="curve" smooth="yes"/>
      <point x="443" y="538"/>
      <point x="370" y="680"/>
      <point x="220" y="680" type="curve" smooth="yes"/>
      <point x="72" y="680" type="line"/>
      <point x="72" y="590" type="line"/>
      <point x="222" y="590" type="line" smooth="yes"/>
      <point x="320" y="590"/>
      <point x="351" y="483"/>
      <point x="351" y="340" type="curve" smooth="yes"/>
      <point x="351" y="233"/>
      <point x="318" y="90"/>
      <point x="222" y="90" type="curve" smooth="yes"/>
      <point x="72" y="90" type="line"/>
    </contour>
  </outline>
  <guideline angle="90" name="h_1" x="220" y="0"/>
</glyph>
<glyph name="G" format="2">
  <advance width="515"/>
  <unicode hex="0047"/>
  <anchor x="260" y="740" name="top"/>
  <anchor x="260" y="-40" name="bottom"/>
  <outline>
    <contour>
      <point x="48" y="340" type="curve" smooth="yes"/>
      <point x="48" y="119"/>
      <point x="128" y="-12"/>
      <point x="269" y="-12" type="curve" smooth="yes"/>
      <point x="320" y="-12"/>
      <point x="370" y="18"/>
      <point x="395" y="58" type="curve"/>
      <point x="386" y="61" type="line"/>
      <point x="390" y="-1" type="line"/>
      <point x="473" y="-1" type="line"/>
      <point x="473" y="314" type="line"/>
      <point x="260" y="314" type="line"/>
      <point x="260" y="238" type="line"/>
      <point x="383" y="238" type="line"/>
      <point x="383" y="125" type="line"/>
      <point x="405" y="125" type="line"/>
      <point x="405" y="217" type="line"/>
      <point x="386" y="217" type="line"/>
      <point x="376" y="125"/>
      <point x="336" y="78"/>
      <point x="273" y="78" type="curve" smooth="yes"/>
      <point x="187" y="78"/>
      <point x="144" y="166"/>
      <point x="144" y="340" type="curve" smooth="yes"/>
      <point x="144" y="508"/>
      <point x="184" y="602"/>
      <point x="270" y="602" type="curve" smooth="yes"/>
      <point x="344" y="602"/>
      <point x="374" y="554"/>
      <point x="389" y="485" type="curve"/>
      <point x="479" y="485" type="line"/>
      <point x="457" y="609"/>
      <point x="392" y="692"/>
      <point x="271" y="692" type="curve" smooth="yes"/>
      <point x="128" y="692"/>
      <point x="48" y="561"/>
    </contour>
  </outline>
  <guideline angle="90" name="h_1" x="260" y="0"/>
</glyph>
<glyph name="H" format="2">
  <advance width="504"/>
  <unicode hex="0048"/>
  <anchor x="251" y="740" name="top"/>
  <anchor x="251" y="-40" name="bottom"/>
  <anchor x="376" y="0" name="b.cedilla"/>
  <outline>
    <contour>
      <point x="60" y="0" type="line"/>
      <point x="152" y="0" type="line"/>
      <point x="152" y="680" type="line"/>
      <point x="60" y="680" type="line"/>
    </contour>
    <contour>
      <point x="89" y="314" type="line"/>
      <point x="401" y="314" type="line"/>
      <point x="401" y="404" type="line"/>
      <point x="89" y="404" type="line"/>
    </contour>
    <contour>
      <point x="352" y="0" type="line"/>
      <point x="444" y="0" type="line"/>
      <point x="444" y="680" type="line"/>
      <point x="352" y="680" type="line"/>
    </contour>
  </outline>
  <guideline angle="90" name="h_1" x="251" y="0"/>
</glyph>
<glyph name="I" format="2">
  <advance width="212"/>
  <unicode hex="0049"/>
  <anchor x="106" y="740" name="top"/>
  <anchor x="106" y="-40" name="bottom"/>
  <outline>
    <contour>
      <point x="60" y="0" type="line"/>
      <point x="152" y="0" type="line"/>
      <point x="152" y="680" type="line"/>
      <point x="60" y="680" type="line"/>
    </contour>
  </outline>
  <guideline angle="90" x="106" y="0"/>
</glyph>
<glyph name="J" format="2">
  <advance width="265"/>
  <unicode hex="004A"/>
  <anchor x="158" y="740" name="top"/>
  <outline>
    <contour>
      <point x="38" y="0" type="line"/>
      <point x="69" y="0" type="line" smooth="yes"/>
      <point x="155" y="0"/>
      <point x="205" y="56"/>
      <point x="205" y="153" type="curve" smooth="yes"/>
      <point x="205" y="680" type="line"/>
      <point x="113" y="680" type="line"/>
      <point x="113" y="141" type="line" smooth="yes"/>
      <point x="113" y="109"/>
      <point x="96" y="90"/>
      <point x="68" y="90" type="curve" smooth="yes"/>
      <point x="38" y="90" type="line"/>
    </contour>
  </outline>
</glyph>
<glyph name="L" format="2">
  <advance width="391"/>
  <unicode hex="004C"/>
  <anchor x="242" y="740" name="top"/>
  <anchor x="242" y="-40" name="bottom"/>
  <outline>
    <contour>
      <point x="116" y="0" type="line"/>
      <point x="381" y="0" type="line"/>
      <point x="381" y="84" type="line"/>
      <point x="116" y="84" type="line"/>
    </contour>
    <contour>
      <point x="60" y="0" type="line"/>
      <point x="152" y="0" type="line"/>
      <point x="152" y="680" type="line"/>
      <point x="60" y="680" type="line"/>
    </contour>
  </outline>
  <guideline angle="90" name="h_1" x="242" y="0"/>
</glyph>
<glyph name="M" format="2">
  <advance width="639"/>
  <unicode hex="004D"/>
  <anchor x="314" y="740" name="top"/>
  <anchor x="314" y="-40" name="bottom"/>
  <outline>
    <contour>
      <point x="60" y="0" type="line"/>
      <point x="152" y="0" type="line"/>
      <point x="152" y="680" type="line"/>
      <point x="60" y="680" type="line"/>
    </contour>
    <contour>
      <point x="69" y="680" type="line"/>
      <point x="270" y="0" type="line"/>
      <point x="348" y="0" type="line"/>
      <point x="348" y="29"/>
      <point x="309" y="188"/>
      <point x="292" y="243" type="curve" smooth="yes"/>
      <point x="162" y="680" type="line"/>
    </contour>
    <contour>
      <point x="290" y="0" type="curve"/>
      <point x="368" y="0" type="line"/>
      <point x="569" y="680" type="line"/>
      <point x="477" y="680" type="line"/>
      <point x="346" y="243" type="line" smooth="yes"/>
      <point x="330" y="188"/>
      <point x="290" y="29"/>
    </contour>
    <contour>
      <point x="487" y="0" type="line"/>
      <point x="579" y="0" type="line"/>
      <point x="579" y="680" type="line"/>
      <point x="487" y="680" type="line"/>
    </contour>
  </outline>
  <guideline angle="90" name="h_1" x="314" y="0"/>
  <guideline angle="0" x="0" y="230"/>
  <guideline angle="90" x="483" y="0"/>
</glyph>
<glyph name="N" format="2">
  <advance width="546"/>
  <unicode hex="004E"/>
  <anchor x="270" y="740" name="top"/>
  <anchor x="270" y="-40" name="bottom"/>
  <outline>
    <contour>
      <point x="60" y="0" type="line"/>
      <point x="152" y="0" type="line"/>
      <point x="152" y="443" type="line" smooth="yes"/>
      <point x="152" y="464"/>
      <point x="152" y="491"/>
      <point x="149" y="523" type="curve"/>
      <point x="128" y="523" type="line"/>
      <point x="394" y="0" type="line"/>
      <point x="486" y="0" type="line"/>
      <point x="486" y="680" type="line"/>
      <point x="394" y="680" type="line"/>
      <point x="394" y="237" type="line" smooth="yes"/>
      <point x="394" y="216"/>
      <point x="395" y="189"/>
      <point x="397" y="157" type="curve"/>
      <point x="417" y="157" type="line"/>
      <point x="152" y="680" type="line"/>
      <point x="60" y="680" type="line"/>
    </contour>
  </outline>
  <guideline angle="90" x="270" y="0"/>
</glyph>
<glyph name="O" format="2">
  <advance width="542"/>
  <unicode hex="004F"/>
  <anchor x="273" y="740" name="top"/>
  <anchor x="271" y="-40" name="bottom"/>
  <anchor x="341" y="0" name="b.ogonek"/>
  <outline>
    <contour>
      <point x="48" y="340" type="curve" smooth="yes"/>
      <point x="48" y="80"/>
      <point x="121" y="-12"/>
      <point x="271" y="-12" type="curve" smooth="yes"/>
      <point x="421" y="-12"/>
      <point x="494" y="80"/>
      <point x="494" y="340" type="curve" smooth="yes"/>
      <point x="494" y="600"/>
      <point x="421" y="692"/>
      <point x="271" y="692" type="curve" smooth="yes"/>
      <point x="121" y="692"/>
      <point x="48" y="600"/>
    </contour>
    <contour>
      <point x="144" y="340" type="curve" smooth="yes"/>
      <point x="144" y="540"/>
      <point x="181" y="602"/>
      <point x="271" y="602" type="curve" smooth="yes"/>
      <point x="361" y="602"/>
      <point x="398" y="540"/>
      <point x="398" y="340" type="curve" smooth="yes"/>
      <point x="398" y="140"/>
      <point x="361" y="78"/>
      <point x="271" y="78" type="curve" smooth="yes"/>
      <point x="181" y="78"/>
      <point x="144" y="140"/>
    </contour>
  </outline>
  <guideline angle="0" x="0" y="740"/>
  <guideline angle="90" x="271" y="0"/>
  <guideline angle="90" x="48" y="0"/>
  <guideline angle="90" x="494" y="0"/>
</glyph>
<glyph name="P" format="2">
  <advance width="456"/>
  <unicode hex="0050"/>
  <anchor x="210" y="740" name="top"/>
  <anchor x="210" y="-40" name="bottom"/>
  <outline>
    <contour>
      <point x="60" y="0" type="line"/>
      <point x="152" y="0" type="line"/>
      <point x="152" y="680" type="line"/>
      <point x="60" y="680" type="line"/>
    </contour>
    <contour>
      <point x="142" y="273" type="line"/>
      <point x="240" y="273" type="line" smooth="yes"/>
      <point x="346" y="273"/>
      <point x="408" y="357"/>
      <point x="408" y="483" type="curve" smooth="yes"/>
      <point x="408" y="601"/>
      <point x="346" y="680"/>
      <point x="240" y="680" type="curve" smooth="yes"/>
      <point x="142" y="680" type="line"/>
      <point x="142" y="590" type="line"/>
      <point x="230" y="590" type="line" smooth="yes"/>
      <point x="282" y="590"/>
      <point x="316" y="547"/>
      <point x="316" y="483" type="curve" smooth="yes"/>
      <point x="316" y="411"/>
      <point x="282" y="363"/>
      <point x="230" y="363" type="curve" smooth="yes"/>
      <point x="142" y="363" type="line"/>
    </contour>
  </outline>
  <guideline angle="90" name="h_1" x="210" y="0"/>
</glyph>
<glyph name="Q" format="2">
  <advance width="542"/>
  <unicode hex="0051"/>
  <anchor x="259" y="740" name="top"/>
  <anchor x="271" y="-40" name="bottom"/>
  <anchor x="271" y="0" name="b.ogonek"/>
  <outline>
    <contour>
      <point x="269" y="104" type="line"/>
      <point x="302" y="60" type="line"/>
      <point x="371" y="124" type="line"/>
      <point x="328" y="180" type="line"/>
    </contour>
    <contour>
      <point x="329" y="23" type="line"/>
      <point x="410" y="-84" type="line"/>
      <point x="467" y="-7" type="line"/>
      <point x="395" y="90" type="line"/>
    </contour>
    <contour>
      <point x="48" y="340" type="curve" smooth="yes"/>
      <point x="48" y="80"/>
      <point x="121" y="-12"/>
      <point x="271" y="-12" type="curve" smooth="yes"/>
      <point x="421" y="-12"/>
      <point x="494" y="80"/>
      <point x="494" y="340" type="curve" smooth="yes"/>
      <point x="494" y="600"/>
      <point x="421" y="692"/>
      <point x="271" y="692" type="curve" smooth="yes"/>
      <point x="121" y="692"/>
      <point x="48" y="600"/>
    </contour>
    <contour>
      <point x="144" y="340" type="curve" smooth="yes"/>
      <point x="144" y="540"/>
      <point x="181" y="602"/>
      <point x="271" y="602" type="curve" smooth="yes"/>
      <point x="361" y="602"/>
      <point x="398" y="540"/>
      <point x="398" y="340" type="curve" smooth="yes"/>
      <point x="398" y="140"/>
      <point x="361" y="78"/>
      <point x="271" y="78" type="curve" smooth="yes"/>
      <point x="181" y="78"/>
      <point x="144" y="140"/>
    </contour>
  </outline>
  <guideline angle="90" x="273" y="0"/>
  <guideline angle="0" x="0" y="740"/>
  <guideline angle="90" x="271" y="0"/>
  <guideline angle="90" x="48" y="0"/>
  <guideline angle="90" x="494" y="0"/>
</glyph>
<glyph name="S" format="2">
  <advance width="478"/>
  <unicode hex="0053"/>
  <anchor x="233" y="740" name="top"/>
  <anchor x="233" y="-40" name="bottom"/>
  <anchor x="224" y="0" name="b.cedilla"/>
  <outline>
    <contour>
      <point x="48" y="197" type="line"/>
      <point x="48" y="64"/>
      <point x="116" y="-11"/>
      <point x="233" y="-11" type="curve" smooth="yes"/>
      <point x="346" y="-11"/>
      <point x="430" y="47"/>
      <point x="430" y="191" type="curve" smooth="yes"/>
      <point x="430" y="285"/>
      <point x="385" y="332"/>
      <point x="297" y="377" type="curve" smooth="yes"/>
      <point x="229" y="412" type="line" smooth="yes"/>
      <point x="178" y="438"/>
      <point x="157" y="465"/>
      <point x="157" y="514" type="curve" smooth="yes"/>
      <point x="157" y="570"/>
      <point x="178" y="601"/>
      <point x="238" y="601" type="curve" smooth="yes"/>
      <point x="291" y="601"/>
      <point x="334" y="559"/>
      <point x="334" y="499" type="curve"/>
      <point x="428" y="499" type="line"/>
      <point x="428" y="608"/>
      <point x="358" y="691"/>
      <point x="244" y="691" type="curve" smooth="yes"/>
      <point x="119" y="691"/>
      <point x="61" y="620"/>
      <point x="61" y="519" type="curve" smooth="yes"/>
      <point x="61" y="426"/>
      <point x="100" y="382"/>
      <point x="196" y="333" type="curve" smooth="yes"/>
      <point x="265" y="298" type="line" smooth="yes"/>
      <point x="317" y="272"/>
      <point x="334" y="242"/>
      <point x="334" y="191" type="curve" smooth="yes"/>
      <point x="334" y="123"/>
      <point x="303" y="79"/>
      <point x="238" y="79" type="curve" smooth="yes"/>
      <point x="188" y="79"/>
      <point x="142" y="112"/>
      <point x="142" y="197" type="curve"/>
    </contour>
  </outline>
  <guideline angle="90" name="h_1" x="233" y="0"/>
</glyph>
<glyph name="T" format="2">
  <advance width="388"/>
  <unicode hex="0054"/>
  <anchor x="192" y="740" name="top"/>
  <anchor x="192" y="-50" name="bottom"/>
  <outline>
    <contour>
      <point x="10" y="590" type="line"/>
      <point x="378" y="590" type="line"/>
      <point x="378" y="680" type="line"/>
      <point x="10" y="680" type="line"/>
    </contour>
    <contour>
      <point x="148" y="0" type="line"/>
      <point x="240" y="0" type="line"/>
      <point x="240" y="680" type="line"/>
      <point x="148" y="680" type="line"/>
    </contour>
  </outline>
  <guideline angle="90" name="h_1" x="192" y="0"/>
  <guideline angle="0" x="0" y="596"/>
</glyph>
<glyph name="U" format="2">
  <advance width="470"/>
  <unicode hex="0055"/>
  <anchor x="235" y="740" name="top"/>
  <anchor x="235" y="-40" name="bottom"/>
  <anchor x="235" y="10" name="b.ogonek"/>
  <outline>
    <contour>
      <point x="50" y="235" type="line" smooth="yes"/>
      <point x="50" y="86"/>
      <point x="101" y="-11"/>
      <point x="235" y="-11" type="curve" smooth="yes"/>
      <point x="369" y="-11"/>
      <point x="420" y="86"/>
      <point x="420" y="235" type="curve" smooth="yes"/>
      <point x="420" y="680" type="line"/>
      <point x="328" y="680" type="line"/>
      <point x="328" y="275" type="line" smooth="yes"/>
      <point x="328" y="123"/>
      <point x="296" y="89"/>
      <point x="235" y="89" type="curve" smooth="yes"/>
      <point x="175" y="89"/>
      <point x="142" y="123"/>
      <point x="142" y="275" type="curve" smooth="yes"/>
      <point x="142" y="680" type="line"/>
      <point x="50" y="680" type="line"/>
    </contour>
  </outline>
  <guideline angle="90" name="h_1" x="235" y="0"/>
</glyph>
<glyph name="V" format="2">
  <advance width="430"/>
  <unicode hex="0056"/>
  <anchor x="210" y="-40" name="bottom"/>
  <anchor x="210" y="740" name="top"/>
  <outline>
    <contour>
      <point x="10" y="680" type="line"/>
      <point x="166" y="0" type="line"/>
      <point x="264" y="0" type="line"/>
      <point x="420" y="680" type="line"/>
      <point x="328" y="680" type="line"/>
      <point x="227" y="243" type="line" smooth="yes"/>
      <point x="224" y="229"/>
      <point x="218" y="208"/>
      <point x="216" y="185" type="curve"/>
      <point x="220" y="187" type="line"/>
      <point x="210" y="187" type="line"/>
      <point x="214" y="185" type="line"/>
      <point x="212" y="208"/>
      <point x="206" y="229"/>
      <point x="203" y="243" type="curve" smooth="yes"/>
      <point x="103" y="680" type="line"/>
    </contour>
  </outline>
  <guideline angle="90" name="h_1" x="210" y="0"/>
  <guideline angle="0" x="0" y="230"/>
</glyph>
<glyph name="W" format="2">
  <advance width="748"/>
  <unicode hex="0057"/>
  <anchor x="374" y="740" name="top"/>
  <anchor x="374" y="-40" name="bottom"/>
  <outline>
    <contour>
      <point x="10" y="680" type="line"/>
      <point x="166" y="0" type="line"/>
      <point x="243" y="0" type="line"/>
      <point x="243" y="29"/>
      <point x="217" y="187"/>
      <point x="203" y="243" type="curve"/>
      <point x="103" y="680" type="line"/>
    </contour>
    <contour>
      <point x="188" y="0" type="curve"/>
      <point x="264" y="0" type="line"/>
      <point x="420" y="680" type="line"/>
      <point x="328" y="680" type="line"/>
      <point x="227" y="243" type="line" smooth="yes"/>
      <point x="214" y="187"/>
      <point x="188" y="29"/>
    </contour>
    <contour>
      <point x="328" y="680" type="line"/>
      <point x="484" y="0" type="line"/>
      <point x="561" y="0" type="line"/>
      <point x="561" y="29"/>
      <point x="535" y="187"/>
      <point x="521" y="243" type="curve"/>
      <point x="421" y="680" type="line"/>
    </contour>
    <contour>
      <point x="506" y="0" type="curve"/>
      <point x="582" y="0" type="line"/>
      <point x="738" y="680" type="line"/>
      <point x="646" y="680" type="line"/>
      <point x="545" y="243" type="line" smooth="yes"/>
      <point x="532" y="187"/>
      <point x="506" y="29"/>
    </contour>
  </outline>
  <guideline angle="90" name="h_1" x="374" y="0"/>
</glyph>
<glyph name="X" format="2">
  <advance width="455"/>
  <unicode hex="0058"/>
  <anchor x="228" y="740" name="top"/>
  <anchor x="228" y="-40" name="bottom"/>
  <outline>
    <contour>
      <point x="173" y="345" type="line"/>
      <point x="218" y="265" type="line"/>
      <point x="329" y="0" type="line"/>
      <point x="436" y="0" type="line"/>
      <point x="281" y="363" type="line"/>
      <point x="239" y="440" type="line"/>
      <point x="137" y="680" type="line"/>
      <point x="30" y="680" type="line"/>
    </contour>
    <contour>
      <point x="19" y="0" type="line"/>
      <point x="128" y="0" type="line"/>
      <point x="245" y="286" type="line"/>
      <point x="191" y="390" type="line"/>
    </contour>
    <contour>
      <point x="209" y="424" type="line"/>
      <point x="263" y="320" type="line"/>
      <point x="425" y="680" type="line"/>
      <point x="320" y="680" type="line"/>
    </contour>
  </outline>
  <guideline angle="113.753" x="420" y="0"/>
  <guideline angle="66.2237" x="326" y="680"/>
  <guideline angle="90" name="h_1" x="228" y="0"/>
</glyph>
<glyph name="Y" format="2">
  <advance width="464"/>
  <unicode hex="0059"/>
  <anchor x="232" y="740" name="top"/>
  <anchor x="232" y="-40" name="bottom"/>
  <outline>
    <contour>
      <point x="186" y="0" type="line"/>
      <point x="278" y="0" type="line"/>
      <point x="278" y="272" type="line"/>
      <point x="437" y="680" type="line"/>
      <point x="334" y="680" type="line"/>
      <point x="224" y="392" type="line"/>
      <point x="239" y="392" type="line"/>
      <point x="131" y="680" type="line"/>
      <point x="27" y="680" type="line"/>
      <point x="186" y="272" type="line"/>
    </contour>
  </outline>
  <guideline angle="90" x="232" y="0"/>
  <guideline angle="0" x="0" y="680"/>
</glyph>
<glyph name="asciicircum" format="2">
  <advance width="402"/>
  <unicode hex="005E"/>
  <outline>
    <contour>
      <point x="36" y="400" type="line"/>
      <point x="120" y="400" type="line"/>
      <point x="210" y="628" type="line"/>
      <point x="192" y="628" type="line"/>
      <point x="282" y="400" type="line"/>
      <point x="366" y="400" type="line"/>
      <point x="246" y="680" type="line"/>
      <point x="156" y="680" type="line"/>
    </contour>
  </outline>
</glyph>
<glyph name="grave" format="2">
  <advance width="239"/>
  <unicode hex="0060"/>
  <outline>
    <contour>
      <point x="36" y="702" type="line"/>
      <point x="140" y="540" type="line"/>
      <point x="190" y="540" type="line"/>
      <point x="125" y="702" type="line"/>
    </contour>
  </outline>
  <guideline angle="0" x="0" y="700"/>
</glyph>
<glyph name="a" format="2">
  <advance width="414"/>
  <unicode hex="0061"/>
  <anchor x="202" y="540" name="top"/>
  <anchor x="202" y="-50" name="bottom"/>
  <anchor x="202" y="540" name="t.ring"/>
  <anchor x="348" y="-0" name="b.ogonek"/>
  <outline>
    <contour>
      <point x="59" y="326" type="curve"/>
      <point x="145" y="326" type="line"/>
      <point x="148" y="374"/>
      <point x="166" y="400"/>
      <point x="202" y="400" type="curve" smooth="yes"/>
      <point x="238" y="400"/>
      <point x="262" y="376"/>
      <point x="262" y="338" type="curve" smooth="yes"/>
      <point x="262" y="44" type="line"/>
      <point x="265" y="40" type="line"/>
      <point x="277" y="0" type="line"/>
      <point x="348" y="0" type="line"/>
      <point x="348" y="350" type="line" smooth="yes"/>
      <point x="348" y="423"/>
      <point x="292" y="472"/>
      <point x="208" y="472" type="curve" smooth="yes"/>
      <point x="119" y="472"/>
      <point x="64" y="418"/>
    </contour>
    <contour>
      <point x="40" y="123" type="curve" smooth="yes"/>
      <point x="40" y="43"/>
      <point x="86" y="-12"/>
      <point x="155" y="-12" type="curve" smooth="yes"/>
      <point x="197" y="-12"/>
      <point x="239" y="8"/>
      <point x="262" y="40" type="curve"/>
      <point x="285" y="40" type="line"/>
      <point x="285" y="151" type="line"/>
      <point x="253" y="97"/>
      <point x="211" y="64"/>
      <point x="175" y="64" type="curve" smooth="yes"/>
      <point x="145" y="64"/>
      <point x="126" y="87"/>
      <point x="126" y="123" type="curve" smooth="yes"/>
      <point x="126" y="173"/>
      <point x="161" y="210"/>
      <point x="222" y="223" type="curve" smooth="yes"/>
      <point x="290" y="237" type="line"/>
      <point x="290" y="290" type="line"/>
      <point x="217" y="281" type="line" smooth="yes"/>
      <point x="104" y="267"/>
      <point x="40" y="210"/>
    </contour>
  </outline>
  <guideline angle="90" name="h_1" x="202" y="0"/>
</glyph>
<glyph name="b" format="2">
  <advance width="440"/>
  <unicode hex="0062"/>
  <anchor x="236" y="740" name="top"/>
  <anchor x="236" y="-40" name="bottom"/>
  <outline>
    <contour>
      <point x="66" y="0" type="line"/>
      <point x="136" y="0" type="line"/>
      <point x="149" y="58" type="line"/>
      <point x="149" y="400" type="line"/>
      <point x="151" y="407"/>
      <point x="152" y="413"/>
      <point x="152" y="420" type="curve" smooth="yes"/>
      <point x="152" y="700" type="line"/>
      <point x="66" y="700" type="line"/>
    </contour>
    <contour>
      <point x="137" y="58" type="line"/>
      <point x="152" y="58" type="line"/>
      <point x="174" y="21"/>
      <point x="199" y="-12"/>
      <point x="246" y="-12" type="curve" smooth="yes"/>
      <point x="384" y="-12"/>
      <point x="400" y="144"/>
      <point x="400" y="230" type="curve" smooth="yes"/>
      <point x="400" y="355"/>
      <point x="352" y="472"/>
      <point x="247" y="472" type="curve" smooth="yes"/>
      <point x="200" y="472"/>
      <point x="171" y="442"/>
      <point x="152" y="400" type="curve"/>
      <point x="137" y="400" type="line"/>
    </contour>
    <contour>
      <point x="149" y="209" type="curve" smooth="yes"/>
      <point x="149" y="249" type="line" smooth="yes"/>
      <point x="149" y="344"/>
      <point x="186" y="398"/>
      <point x="228" y="398" type="curve" smooth="yes"/>
      <point x="287" y="398"/>
      <point x="312" y="332"/>
      <point x="312" y="231" type="curve" smooth="yes"/>
      <point x="312" y="163"/>
      <point x="295" y="64"/>
      <point x="228" y="64" type="curve" smooth="yes"/>
      <point x="175" y="64"/>
      <point x="149" y="146"/>
    </contour>
  </outline>
  <guideline angle="90" name="h_1" x="236" y="0"/>
</glyph>
<glyph name="c" format="2">
  <advance width="402"/>
  <unicode hex="0063"/>
  <anchor x="212" y="530" name="top"/>
  <anchor x="212" y="-40" name="bottom"/>
  <anchor x="178" y="0" name="b.cedilla"/>
  <outline>
    <contour>
      <point x="40" y="230" type="curve" smooth="yes"/>
      <point x="40" y="75"/>
      <point x="97" y="-12"/>
      <point x="200" y="-12" type="curve" smooth="yes"/>
      <point x="283" y="-12"/>
      <point x="344" y="50"/>
      <point x="362" y="153" type="curve"/>
      <point x="276" y="153" type="line"/>
      <point x="264" y="94"/>
      <point x="241" y="64"/>
      <point x="207" y="64" type="curve" smooth="yes"/>
      <point x="159" y="64"/>
      <point x="132" y="124"/>
      <point x="132" y="230" type="curve" smooth="yes"/>
      <point x="132" y="343"/>
      <point x="156" y="396"/>
      <point x="207" y="396" type="curve" smooth="yes"/>
      <point x="244" y="396"/>
      <point x="270" y="366"/>
      <point x="276" y="317" type="curve"/>
      <point x="362" y="317" type="line"/>
      <point x="345" y="419"/>
      <point x="292" y="472"/>
      <point x="207" y="472" type="curve" smooth="yes"/>
      <point x="105" y="472"/>
      <point x="40" y="378"/>
    </contour>
  </outline>
  <guideline angle="90" x="372" y="0"/>
  <guideline angle="90" name="h_1" x="212" y="0"/>
</glyph>
<glyph name="d" format="2">
  <advance width="443"/>
  <unicode hex="0064"/>
  <anchor x="201" y="740" name="top"/>
  <anchor x="201" y="-40" name="bottom"/>
  <anchor x="175" y="0" name="b.cedilla"/>
  <anchor x="443" y="700" name="t.quoteright"/>
  <outline>
    <contour>
      <point x="40" y="230" type="curve" smooth="yes"/>
      <point x="40" y="355"/>
      <point x="89" y="472"/>
      <point x="194" y="472" type="curve" smooth="yes"/>
      <point x="242" y="472"/>
      <point x="272" y="442"/>
      <point x="291" y="400" type="curve"/>
      <point x="306" y="400" type="line"/>
      <point x="306" y="58" type="line"/>
      <point x="291" y="58" type="line"/>
      <point x="268" y="21"/>
      <point x="243" y="-12"/>
      <point x="194" y="-12" type="curve" smooth="yes"/>
      <point x="56" y="-12"/>
      <point x="40" y="144"/>
    </contour>
    <contour>
      <point x="132" y="231" type="curve" smooth="yes"/>
      <point x="132" y="163"/>
      <point x="149" y="64"/>
      <point x="215" y="64" type="curve" smooth="yes"/>
      <point x="268" y="64"/>
      <point x="294" y="146"/>
      <point x="294" y="209" type="curve" smooth="yes"/>
      <point x="294" y="249" type="line" smooth="yes"/>
      <point x="294" y="344"/>
      <point x="257" y="398"/>
      <point x="215" y="398" type="curve" smooth="yes"/>
      <point x="157" y="398"/>
      <point x="132" y="332"/>
    </contour>
    <contour>
      <point x="294" y="58" type="line"/>
      <point x="294" y="400" type="line"/>
      <point x="292" y="407"/>
      <point x="291" y="413"/>
      <point x="291" y="420" type="curve" smooth="yes"/>
      <point x="291" y="700" type="line"/>
      <point x="377" y="700" type="line"/>
      <point x="377" y="0" type="line"/>
      <point x="307" y="0" type="line"/>
    </contour>
  </outline>
  <guideline angle="90" name="h_1" x="201" y="0"/>
</glyph>
<glyph name="e" format="2">
  <advance width="412"/>
  <unicode hex="0065"/>
  <anchor x="205" y="530" name="top"/>
  <anchor x="205" y="-40" name="bottom"/>
  <anchor x="266" y="0" name="b.ogonek"/>
  <anchor x="185" y="0" name="b.cedilla"/>
  <outline>
    <contour>
      <point x="40" y="240" type="curve" smooth="yes"/>
      <point x="40" y="80"/>
      <point x="100" y="-12"/>
      <point x="207" y="-12" type="curve" smooth="yes"/>
      <point x="308" y="-12"/>
      <point x="353" y="72"/>
      <point x="365" y="145" type="curve"/>
      <point x="280" y="145" type="line"/>
      <point x="273" y="103"/>
      <point x="251" y="64"/>
      <point x="207" y="64" type="curve" smooth="yes"/>
      <point x="142" y="64"/>
      <point x="132" y="163"/>
      <point x="132" y="240" type="curve" smooth="yes"/>
      <point x="132" y="343"/>
      <point x="157" y="396"/>
      <point x="207" y="396" type="curve" smooth="yes"/>
      <point x="249" y="396"/>
      <point x="280" y="346"/>
      <point x="280" y="279" type="curve"/>
      <point x="83" y="279" type="line"/>
      <point x="83" y="208" type="line"/>
      <point x="372" y="208" type="line"/>
      <point x="372" y="239" type="line" smooth="yes"/>
      <point x="372" y="363"/>
      <point x="317" y="472"/>
      <point x="207" y="472" type="curve" smooth="yes"/>
      <point x="96" y="472"/>
      <point x="40" y="363"/>
    </contour>
  </outline>
  <guideline angle="90" name="h_1" x="205" y="0"/>
</glyph>
<glyph name="f" format="2">
  <advance width="265"/>
  <unicode hex="0066"/>
  <anchor x="240" y="-40" name="bottom"/>
  <anchor x="148" y="740" name="top"/>
  <outline>
    <contour>
      <point x="82" y="0" type="line"/>
      <point x="168" y="0" type="line"/>
      <point x="168" y="567" type="line" smooth="yes"/>
      <point x="168" y="601"/>
      <point x="190" y="624"/>
      <point x="223" y="624" type="curve" smooth="yes"/>
      <point x="245" y="624" type="line"/>
      <point x="245" y="700" type="line"/>
      <point x="217" y="700" type="line" smooth="yes"/>
      <point x="136" y="700"/>
      <point x="82" y="649"/>
      <point x="82" y="572" type="curve" smooth="yes"/>
    </contour>
    <contour>
      <point x="26" y="384" type="line"/>
      <point x="231" y="384" type="line"/>
      <point x="231" y="460" type="line"/>
      <point x="26" y="460" type="line"/>
    </contour>
  </outline>
  <guideline angle="90" name="h_1" x="148" y="0"/>
</glyph>
<glyph name="g" format="2">
  <advance width="438"/>
  <unicode hex="0067"/>
  <anchor x="219" y="540" name="top"/>
  <outline>
    <contour>
      <point x="52" y="-51" type="line"/>
      <point x="64" y="-138"/>
      <point x="128" y="-200"/>
      <point x="206" y="-200" type="curve" smooth="yes"/>
      <point x="316" y="-200"/>
      <point x="372" y="-124"/>
      <point x="372" y="27" type="curve" smooth="yes"/>
      <point x="372" y="30" type="line"/>
      <point x="286" y="30" type="line"/>
      <point x="286" y="23" type="line" smooth="yes"/>
      <point x="286" y="-77"/>
      <point x="260" y="-128"/>
      <point x="208" y="-128" type="curve" smooth="yes"/>
      <point x="177" y="-128"/>
      <point x="148" y="-97"/>
      <point x="137" y="-51" type="curve"/>
    </contour>
    <contour>
      <point x="40" y="230" type="curve" smooth="yes"/>
      <point x="40" y="94"/>
      <point x="97" y="10"/>
      <point x="191" y="10" type="curve" smooth="yes"/>
      <point x="239" y="10"/>
      <point x="279" y="31"/>
      <point x="301" y="68" type="curve"/>
      <point x="306" y="68" type="line"/>
      <point x="306" y="400" type="line"/>
      <point x="301" y="400" type="line"/>
      <point x="282" y="442"/>
      <point x="237" y="472"/>
      <point x="190" y="472" type="curve" smooth="yes"/>
      <point x="94" y="472"/>
      <point x="40" y="384"/>
    </contour>
    <contour>
      <point x="132" y="231" type="curve" smooth="yes"/>
      <point x="132" y="349"/>
      <point x="155" y="398"/>
      <point x="209" y="398" type="curve" smooth="yes"/>
      <point x="255" y="398"/>
      <point x="288" y="336"/>
      <point x="288" y="249" type="curve" smooth="yes"/>
      <point x="288" y="209" type="line" smooth="yes"/>
      <point x="288" y="136"/>
      <point x="256" y="86"/>
      <point x="209" y="86" type="curve" smooth="yes"/>
      <point x="161" y="86"/>
      <point x="132" y="140"/>
    </contour>
    <contour>
      <point x="286" y="0" type="line"/>
      <point x="372" y="0" type="line"/>
      <point x="372" y="460" type="line"/>
      <point x="301" y="460" type="line"/>
      <point x="288" y="399" type="line"/>
      <point x="288" y="68" type="line"/>
      <point x="287" y="61"/>
      <point x="286" y="54"/>
      <point x="286" y="47" type="curve" smooth="yes"/>
    </contour>
  </outline>
  <guideline angle="90" name="h_1" x="219" y="0"/>
</glyph>
<glyph name="h" format="2">
  <advance width="442"/>
  <unicode hex="0068"/>
  <anchor x="236" y="-40" name="bottom"/>
  <anchor x="236" y="740" name="top"/>
  <anchor x="312" y="0" name="b.cedilla"/>
  <outline>
    <contour>
      <point x="66" y="0" type="line"/>
      <point x="152" y="0" type="line"/>
      <point x="152" y="700" type="line"/>
      <point x="66" y="700" type="line"/>
    </contour>
    <contour>
      <point x="97" y="270" type="line"/>
      <point x="152" y="270" type="line"/>
      <point x="152" y="340"/>
      <point x="181" y="396"/>
      <point x="229" y="396" type="curve" smooth="yes"/>
      <point x="270" y="396"/>
      <point x="290" y="367"/>
      <point x="290" y="309" type="curve" smooth="yes"/>
      <point x="290" y="0" type="line"/>
      <point x="376" y="0" type="line"/>
      <point x="376" y="332" type="line" smooth="yes"/>
      <point x="376" y="420"/>
      <point x="331" y="472"/>
      <point x="253" y="472" type="curve" smooth="yes"/>
      <point x="185" y="472"/>
      <point x="137" y="428"/>
      <point x="118" y="355" type="curve"/>
      <point x="156" y="355" type="line"/>
      <point x="156" y="428" type="line"/>
      <point x="97" y="428" type="line"/>
    </contour>
  </outline>
  <guideline angle="90" name="h_1" x="236" y="0"/>
</glyph>
<glyph name="k" format="2">
  <advance width="385"/>
  <unicode hex="006B"/>
  <anchor x="217" y="-50" name="bottom"/>
  <anchor x="220" y="740" name="top"/>
  <outline>
    <contour>
      <point x="66" y="0" type="line"/>
      <point x="152" y="0" type="line"/>
      <point x="152" y="700" type="line"/>
      <point x="66" y="700" type="line"/>
    </contour>
    <contour>
      <point x="127" y="96" type="line"/>
      <point x="349" y="460" type="line"/>
      <point x="250" y="460" type="line"/>
      <point x="127" y="252" type="line"/>
    </contour>
    <contour>
      <point x="154" y="227" type="line"/>
      <point x="267" y="0" type="line"/>
      <point x="366" y="0" type="line"/>
      <point x="209" y="318" type="line"/>
    </contour>
  </outline>
  <guideline angle="59.6324" x="195" y="300"/>
  <guideline angle="295.946" x="210" y="279"/>
  <guideline angle="116.22" x="270" y="0"/>
  <guideline angle="90" name="h_1" x="220" y="0"/>
</glyph>
<glyph name="l" format="2">
  <advance width="218"/>
  <unicode hex="006C"/>
  <anchor x="109" y="-40" name="bottom"/>
  <anchor x="109" y="740" name="top"/>
  <outline>
    <contour>
      <point x="66" y="0" type="line"/>
      <point x="152" y="0" type="line"/>
      <point x="152" y="700" type="line"/>
      <point x="66" y="700" type="line"/>
    </contour>
  </outline>
  <guideline angle="90" name="h_1" x="109" y="0"/>
</glyph>
<glyph name="m" format="2">
  <advance width="662"/>
  <unicode hex="006D"/>
  <anchor x="331" y="-40" name="bottom"/>
  <anchor x="331" y="530" name="top"/>
  <outline>
    <contour>
      <point x="321" y="243" type="line"/>
      <point x="374" y="243" type="line"/>
      <point x="374" y="343"/>
      <point x="420" y="399"/>
      <point x="454" y="399" type="curve" smooth="yes"/>
      <point x="505" y="399"/>
      <point x="510" y="338"/>
      <point x="510" y="295" type="curve" smooth="yes"/>
      <point x="510" y="0" type="line"/>
      <point x="596" y="0" type="line"/>
      <point x="596" y="295" type="line" smooth="yes"/>
      <point x="596" y="371"/>
      <point x="588" y="472"/>
      <point x="474" y="472" type="curve" smooth="yes"/>
      <point x="401" y="472"/>
      <point x="359" y="391"/>
      <point x="331" y="327" type="curve"/>
      <point x="376" y="327" type="line"/>
      <point x="376" y="398" type="line"/>
      <point x="321" y="398" type="line"/>
    </contour>
    <contour>
      <point x="99" y="243" type="line"/>
      <point x="152" y="243" type="line"/>
      <point x="152" y="341"/>
      <point x="197" y="399"/>
      <point x="233" y="399" type="curve" smooth="yes"/>
      <point x="283" y="399"/>
      <point x="288" y="338"/>
      <point x="288" y="295" type="curve" smooth="yes"/>
      <point x="288" y="0" type="line"/>
      <point x="374" y="0" type="line"/>
      <point x="374" y="295" type="line" smooth="yes"/>
      <point x="374" y="369"/>
      <point x="366" y="472"/>
      <point x="255" y="472" type="curve" smooth="yes"/>
      <point x="180" y="472"/>
      <point x="138" y="391"/>
      <point x="109" y="327" type="curve"/>
      <point x="146" y="327" type="line"/>
      <point x="146" y="351" type="line"/>
      <point x="99" y="351" type="line"/>
    </contour>
    <contour>
      <point x="66" y="0" type="line"/>
      <point x="152" y="0" type="line"/>
      <point x="152" y="405" type="line"/>
      <point x="148" y="405" type="line"/>
      <point x="134" y="460" type="line"/>
      <point x="66" y="460" type="line"/>
    </contour>
  </outline>
  <guideline angle="90" name="h_1" x="331" y="0"/>
</glyph>
<glyph name="o" format="2">
  <advance width="412"/>
  <unicode hex="006F"/>
  <anchor x="206" y="540" name="top"/>
  <anchor x="214" y="-50" name="bottom"/>
  <anchor x="265" y="0" name="b.ogonek"/>
  <outline>
    <contour>
      <point x="40" y="230" type="curve" smooth="yes"/>
      <point x="40" y="52"/>
      <point x="107" y="-12"/>
      <point x="206" y="-12" type="curve" smooth="yes"/>
      <point x="302" y="-12"/>
      <point x="372" y="52"/>
      <point x="372" y="230" type="curve" smooth="yes"/>
      <point x="372" y="408"/>
      <point x="306" y="472"/>
      <point x="206" y="472" type="curve" smooth="yes"/>
      <point x="109" y="472"/>
      <point x="40" y="408"/>
    </contour>
    <contour>
      <point x="132" y="230" type="curve" smooth="yes"/>
      <point x="132" y="353"/>
      <point x="160" y="396"/>
      <point x="206" y="396" type="curve" smooth="yes"/>
      <point x="252" y="396"/>
      <point x="280" y="353"/>
      <point x="280" y="230" type="curve" smooth="yes"/>
      <point x="280" y="107"/>
      <point x="252" y="64"/>
      <point x="206" y="64" type="curve" smooth="yes"/>
      <point x="160" y="64"/>
      <point x="132" y="107"/>
    </contour>
  </outline>
  <guideline angle="90" x="206" y="0"/>
</glyph>
<glyph name="p" format="2">
  <advance width="440"/>
  <unicode hex="0070"/>
  <anchor x="230" y="-40" name="bottom"/>
  <anchor x="230" y="530" name="top"/>
  <outline>
    <contour>
      <point x="66" y="-200" type="line"/>
      <point x="152" y="-200" type="line"/>
      <point x="152" y="37" type="line"/>
      <point x="149" y="58" type="line"/>
      <point x="149" y="398" type="line"/>
      <point x="134" y="459" type="line"/>
      <point x="66" y="459" type="line"/>
    </contour>
    <contour>
      <point x="137" y="58" type="line"/>
      <point x="152" y="58" type="line"/>
      <point x="174" y="21"/>
      <point x="199" y="-12"/>
      <point x="246" y="-12" type="curve" smooth="yes"/>
      <point x="384" y="-12"/>
      <point x="400" y="144"/>
      <point x="400" y="230" type="curve" smooth="yes"/>
      <point x="400" y="355"/>
      <point x="352" y="472"/>
      <point x="247" y="472" type="curve" smooth="yes"/>
      <point x="200" y="472"/>
      <point x="171" y="442"/>
      <point x="152" y="400" type="curve"/>
      <point x="137" y="400" type="line"/>
    </contour>
    <contour>
      <point x="149" y="209" type="curve" smooth="yes"/>
      <point x="149" y="249" type="line" smooth="yes"/>
      <point x="149" y="344"/>
      <point x="186" y="398"/>
      <point x="228" y="398" type="curve" smooth="yes"/>
      <point x="287" y="398"/>
      <point x="312" y="332"/>
      <point x="312" y="231" type="curve" smooth="yes"/>
      <point x="312" y="163"/>
      <point x="295" y="64"/>
      <point x="228" y="64" type="curve" smooth="yes"/>
      <point x="175" y="64"/>
      <point x="149" y="146"/>
    </contour>
  </outline>
  <guideline angle="90" name="h_1" x="230" y="0"/>
</glyph>
<glyph name="q" format="2">
  <advance width="443"/>
  <unicode hex="0071"/>
  <outline>
    <contour>
      <point x="291" y="-200" type="line"/>
      <point x="377" y="-200" type="line"/>
      <point x="377" y="460" type="line"/>
      <point x="307" y="460" type="line"/>
      <point x="294" y="402" type="line"/>
      <point x="294" y="100" type="line"/>
      <point x="292" y="93"/>
      <point x="291" y="87"/>
      <point x="291" y="80" type="curve" smooth="yes"/>
    </contour>
    <contour>
      <point x="40" y="230" type="curve" smooth="yes"/>
      <point x="40" y="144"/>
      <point x="56" y="-12"/>
      <point x="195" y="-12" type="curve" smooth="yes"/>
      <point x="243" y="-12"/>
      <point x="268" y="21"/>
      <point x="291" y="58" type="curve"/>
      <point x="296" y="58" type="line"/>
      <point x="296" y="400" type="line"/>
      <point x="291" y="400" type="line"/>
      <point x="272" y="442"/>
      <point x="242" y="472"/>
      <point x="194" y="472" type="curve" smooth="yes"/>
      <point x="89" y="472"/>
      <point x="40" y="355"/>
    </contour>
    <contour>
      <point x="132" y="231" type="curve" smooth="yes"/>
      <point x="132" y="332"/>
      <point x="157" y="398"/>
      <point x="215" y="398" type="curve" smooth="yes"/>
      <point x="257" y="398"/>
      <point x="294" y="344"/>
      <point x="294" y="249" type="curve" smooth="yes"/>
      <point x="294" y="209" type="line" smooth="yes"/>
      <point x="294" y="146"/>
      <point x="268" y="64"/>
      <point x="215" y="64" type="curve" smooth="yes"/>
      <point x="149" y="64"/>
      <point x="132" y="163"/>
    </contour>
  </outline>
</glyph>
<glyph name="r" format="2">
  <advance width="332"/>
  <unicode hex="0072"/>
  <anchor x="175" y="-40" name="bottom"/>
  <anchor x="175" y="530" name="top"/>
  <outline>
    <contour>
      <point x="66" y="0" type="line"/>
      <point x="152" y="0" type="line"/>
      <point x="152" y="278" type="line" smooth="yes"/>
      <point x="152" y="351"/>
      <point x="193" y="383"/>
      <point x="233" y="383" type="curve" smooth="yes"/>
      <point x="262" y="383"/>
      <point x="286" y="374"/>
      <point x="305" y="354" type="curve"/>
      <point x="309" y="354" type="line"/>
      <point x="309" y="458" type="line"/>
      <point x="294" y="466"/>
      <point x="272" y="470"/>
      <point x="253" y="470" type="curve" smooth="yes"/>
      <point x="202" y="470"/>
      <point x="148" y="417"/>
      <point x="134" y="362" type="curve"/>
      <point x="152" y="346" type="line"/>
      <point x="142" y="460" type="line"/>
      <point x="66" y="460" type="line"/>
    </contour>
  </outline>
  <guideline angle="90" name="h_1" x="175" y="0"/>
</glyph>
<glyph name="s" format="2">
  <advance width="355"/>
  <unicode hex="0073"/>
  <anchor x="171" y="530" name="top"/>
  <anchor x="171" y="-40" name="bottom"/>
  <anchor x="162" y="0" name="b.cedilla"/>
  <outline>
    <contour>
      <point x="27" y="137" type="line"/>
      <point x="27" y="51"/>
      <point x="102" y="-12"/>
      <point x="187" y="-12" type="curve" smooth="yes"/>
      <point x="252" y="-12"/>
      <point x="331" y="13"/>
      <point x="331" y="131" type="curve" smooth="yes"/>
      <point x="331" y="286"/>
      <point x="125" y="259"/>
      <point x="125" y="337" type="curve" smooth="yes"/>
      <point x="125" y="379"/>
      <point x="145" y="398"/>
      <point x="172" y="398" type="curve" smooth="yes"/>
      <point x="200" y="398"/>
      <point x="224" y="373"/>
      <point x="232" y="334" type="curve"/>
      <point x="316" y="334" type="line"/>
      <point x="316" y="416"/>
      <point x="244" y="472"/>
      <point x="169" y="472" type="curve" smooth="yes"/>
      <point x="81" y="472"/>
      <point x="39" y="408"/>
      <point x="39" y="338" type="curve" smooth="yes"/>
      <point x="39" y="186"/>
      <point x="245" y="237"/>
      <point x="245" y="131" type="curve" smooth="yes"/>
      <point x="245" y="74"/>
      <point x="202" y="62"/>
      <point x="186" y="62" type="curve" smooth="yes"/>
      <point x="142" y="62"/>
      <point x="110" y="100"/>
      <point x="109" y="137" type="curve"/>
    </contour>
  </outline>
  <guideline angle="90" name="h_1" x="171" y="0"/>
</glyph>
<glyph name="t" format="2">
  <advance width="250"/>
  <unicode hex="0074"/>
  <anchor x="180" y="-40" name="bottom"/>
  <anchor x="125" y="660" name="top"/>
  <anchor x="235" y="700" name="t.quoteright"/>
  <outline>
    <contour>
      <point x="22" y="384" type="line"/>
      <point x="227" y="384" type="line"/>
      <point x="227" y="460" type="line"/>
      <point x="91" y="460" type="line"/>
      <point x="22" y="438" type="line"/>
    </contour>
    <contour>
      <point x="79" y="90" type="line" smooth="yes"/>
      <point x="79" y="30"/>
      <point x="116" y="-10"/>
      <point x="187" y="-10" type="curve" smooth="yes"/>
      <point x="230" y="-10" type="line"/>
      <point x="230" y="66" type="line"/>
      <point x="211" y="66" type="line" smooth="yes"/>
      <point x="183" y="66"/>
      <point x="165" y="85"/>
      <point x="165" y="113" type="curve" smooth="yes"/>
      <point x="165" y="610" type="line"/>
      <point x="94" y="610" type="line"/>
      <point x="84" y="453" type="line"/>
      <point x="79" y="453" type="line"/>
    </contour>
  </outline>
  <guideline angle="90" name="h_1" x="153" y="0"/>
</glyph>
<glyph name="v" format="2">
  <advance width="364"/>
  <unicode hex="0076"/>
  <anchor x="182" y="530" name="top"/>
  <anchor x="182" y="-40" name="bottom"/>
  <outline>
    <contour>
      <point x="125" y="0" type="line"/>
      <point x="239" y="0" type="line"/>
      <point x="353" y="460" type="line"/>
      <point x="264" y="460" type="line"/>
      <point x="169" y="54" type="line"/>
      <point x="195" y="54" type="line"/>
      <point x="100" y="460" type="line"/>
      <point x="11" y="460" type="line"/>
    </contour>
  </outline>
  <guideline angle="90" name="h_1" x="182" y="0"/>
</glyph>
<glyph name="w" format="2">
  <advance width="596"/>
  <unicode hex="0077"/>
  <anchor x="298" y="-40" name="bottom"/>
  <anchor x="298" y="530" name="top"/>
  <outline>
    <contour>
      <point x="114" y="0" type="line"/>
      <point x="222" y="0" type="line"/>
      <point x="288" y="280" type="line" smooth="yes"/>
      <point x="293" y="300"/>
      <point x="297" y="320"/>
      <point x="298" y="340" type="curve"/>
      <point x="279" y="330" type="line"/>
      <point x="316" y="330" type="line"/>
      <point x="298" y="340" type="line"/>
      <point x="299" y="320"/>
      <point x="303" y="300"/>
      <point x="308" y="280" type="curve" smooth="yes"/>
      <point x="374" y="0" type="line"/>
      <point x="482" y="0" type="line"/>
      <point x="585" y="460" type="line"/>
      <point x="503" y="460" type="line"/>
      <point x="437" y="180" type="line" smooth="yes"/>
      <point x="432" y="160"/>
      <point x="428" y="140"/>
      <point x="427" y="120" type="curve"/>
      <point x="436" y="130" type="line"/>
      <point x="418" y="130" type="line"/>
      <point x="427" y="120" type="line"/>
      <point x="426" y="140"/>
      <point x="422" y="160"/>
      <point x="417" y="180" type="curve" smooth="yes"/>
      <point x="351" y="460" type="line"/>
      <point x="245" y="460" type="line"/>
      <point x="179" y="180" type="line" smooth="yes"/>
      <point x="174" y="160"/>
      <point x="170" y="140"/>
      <point x="169" y="120" type="curve"/>
      <point x="181" y="130" type="line"/>
      <point x="157" y="130" type="line"/>
      <point x="169" y="120" type="line"/>
      <point x="168" y="140"/>
      <point x="164" y="160"/>
      <point x="159" y="180" type="curve" smooth="yes"/>
      <point x="93" y="460" type="line"/>
      <point x="11" y="460" type="line"/>
    </contour>
  </outline>
  <guideline angle="90" name="h_1" x="298" y="0"/>
  <guideline angle="90" x="427" y="0"/>
  <guideline angle="90" x="169" y="0"/>
  <guideline angle="0" x="0" y="130"/>
  <guideline angle="0" x="0" y="180"/>
  <guideline angle="0" x="0" y="120"/>
  <guideline angle="0" x="0" y="340"/>
  <guideline angle="0" x="0" y="330"/>
  <guideline angle="0" x="0" y="280"/>
</glyph>
<glyph name="y" format="2">
  <advance width="347"/>
  <unicode hex="0079"/>
  <anchor x="175" y="530" name="top"/>
  <anchor x="290" y="-40" name="bottom"/>
  <outline>
    <contour>
      <point x="33" y="-200" type="line"/>
      <point x="75" y="-200" type="line" smooth="yes"/>
      <point x="138" y="-200"/>
      <point x="178" y="-160"/>
      <point x="199" y="-78" type="curve" smooth="yes"/>
      <point x="336" y="460" type="line"/>
      <point x="255" y="460" type="line"/>
      <point x="162" y="95" type="line"/>
      <point x="152" y="37" type="line"/>
      <point x="126" y="-65" type="line" smooth="yes"/>
      <point x="115" y="-109"/>
      <point x="94" y="-128"/>
      <point x="59" y="-128" type="curve" smooth="yes"/>
      <point x="33" y="-128" type="line"/>
    </contour>
    <contour>
      <point x="11" y="460" type="line"/>
      <point x="152" y="-65" type="line"/>
      <point x="198" y="72" type="line"/>
      <point x="95" y="460" type="line"/>
    </contour>
  </outline>
</glyph>
<glyph name="bar" format="2">
  <advance width="248"/>
  <unicode hex="007C"/>
  <outline>
    <contour>
      <point x="78" y="-80" type="line"/>
      <point x="170" y="-80" type="line"/>
      <point x="170" y="780" type="line"/>
      <point x="78" y="780" type="line"/>
    </contour>
  </outline>
</glyph>
<glyph name="dieresis" format="2">
  <advance width="378"/>
  <unicode hex="00A8"/>
  <anchor x="189" y="540" name="_top"/>
  <outline>
    <contour>
      <point x="58" y="530" type="line"/>
      <point x="150" y="530" type="line"/>
      <point x="150" y="622" type="line"/>
      <point x="58" y="622" type="line"/>
    </contour>
    <contour>
      <point x="228" y="530" type="line"/>
      <point x="320" y="530" type="line"/>
      <point x="320" y="622" type="line"/>
      <point x="228" y="622" type="line"/>
    </contour>
  </outline>
  <guideline angle="0" x="0" y="540"/>
</glyph>
<glyph name="copyright" format="2">
  <advance width="808"/>
  <unicode hex="00A9"/>
  <outline>
    <contour>
      <point x="221.629" y="329.958" type="curve" smooth="yes"/>
      <point x="221.629" y="217.198"/>
      <point x="299.33" y="142.025"/>
      <point x="415.881" y="142.025" type="curve" smooth="yes"/>
      <point x="487.814" y="142.025"/>
      <point x="552.271" y="188.506"/>
      <point x="577.025" y="258.228" type="curve"/>
      <point x="467.426" y="258.228" type="line"/>
      <point x="449.601" y="240.398"/>
      <point x="425.765" y="231.755"/>
      <point x="403.717" y="231.755" type="curve" smooth="yes"/>
      <point x="353.83" y="231.755"/>
      <point x="321.793" y="271.21"/>
      <point x="321.793" y="330.392" type="curve" smooth="yes"/>
      <point x="321.793" y="389.575"/>
      <point x="354.403" y="429.03"/>
      <point x="401.173" y="429.03" type="curve" smooth="yes"/>
      <point x="426.073" y="429.03"/>
      <point x="452.521" y="418.244"/>
      <point x="467.426" y="395.949" type="curve"/>
      <point x="577.025" y="395.949" type="line"/>
      <point x="559.614" y="469.975"/>
      <point x="489.921" y="519.325"/>
      <point x="402.793" y="519.325" type="curve" smooth="yes"/>
      <point x="294.094" y="519.325"/>
      <point x="221.629" y="443.578"/>
    </contour>
    <contour>
      <point x="48" y="341.435" type="curve" smooth="yes"/>
      <point x="48" y="136.574"/>
      <point x="190.226" y="0"/>
      <point x="403.565" y="0" type="curve" smooth="yes"/>
      <point x="616.905" y="0"/>
      <point x="759.131" y="135.426"/>
      <point x="759.131" y="338.565" type="curve" smooth="yes"/>
      <point x="759.131" y="543.426"/>
      <point x="616.905" y="680"/>
      <point x="403.565" y="680" type="curve" smooth="yes"/>
      <point x="190.226" y="680"/>
      <point x="48" y="544.574"/>
    </contour>
    <contour>
      <point x="148.207" y="341.396" type="curve" smooth="yes"/>
      <point x="148.207" y="490.434"/>
      <point x="250.35" y="589.793"/>
      <point x="403.565" y="589.793" type="curve" smooth="yes"/>
      <point x="556.781" y="589.793"/>
      <point x="658.924" y="489.318"/>
      <point x="658.924" y="338.605" type="curve" smooth="yes"/>
      <point x="658.924" y="189.566"/>
      <point x="556.781" y="90.2068"/>
      <point x="403.565" y="90.2068" type="curve" smooth="yes"/>
      <point x="250.35" y="90.2068"/>
      <point x="148.207" y="190.682"/>
    </contour>
  </outline>
</glyph>
<glyph name="ordfeminine" format="2">
  <advance width="341"/>
  <unicode hex="00AA"/>
  <outline>
    <contour>
      <point x="52" y="640" type="curve"/>
      <point x="120" y="640" type="line"/>
      <point x="122.845" y="666.4"/>
      <point x="139.884" y="684"/>
      <point x="162.449" y="684" type="curve" smooth="yes"/>
      <point x="186.78" y="684"/>
      <point x="203" y="668.164"/>
      <point x="203" y="644.41" type="curve" smooth="yes"/>
      <point x="203" y="474.227" type="line"/>
      <point x="218" y="424" type="line"/>
      <point x="275" y="424" type="line"/>
      <point x="275" y="635" type="line" smooth="yes"/>
      <point x="275" y="698"/>
      <point x="232.698" y="740"/>
      <point x="168.245" y="740" type="curve" smooth="yes"/>
      <point x="104.902" y="740"/>
      <point x="58.4042" y="700"/>
    </contour>
    <contour>
      <point x="40" y="500" type="curve" smooth="yes"/>
      <point x="40" y="449.6"/>
      <point x="72.3347" y="416"/>
      <point x="119.837" y="416" type="curve" smooth="yes"/>
      <point x="160.153" y="416"/>
      <point x="200.332" y="440.306"/>
      <point x="233" y="479" type="curve"/>
      <point x="227" y="527" type="line"/>
      <point x="197.084" y="494"/>
      <point x="165.015" y="472"/>
      <point x="144.827" y="472" type="curve" smooth="yes"/>
      <point x="127.731" y="472"/>
      <point x="115" y="486.167"/>
      <point x="115" y="507.418" type="curve" smooth="yes"/>
      <point x="115" y="544.967"/>
      <point x="154.6" y="570"/>
      <point x="214" y="570" type="curve"/>
      <point x="214" y="622" type="line"/>
      <point x="109.6" y="622"/>
      <point x="40" y="574.4"/>
    </contour>
  </outline>
</glyph>
<glyph name="logicalnot" format="2">
  <advance width="524"/>
  <unicode hex="00AC"/>
  <outline>
    <contour>
      <point x="49" y="365" type="line"/>
      <point x="391" y="365" type="line"/>
      <point x="391" y="181" type="line"/>
      <point x="477" y="181" type="line"/>
      <point x="477" y="440" type="line"/>
      <point x="49" y="440" type="line"/>
    </contour>
  </outline>
</glyph>
<glyph name="registered" format="2">
  <advance width="445"/>
  <unicode hex="00AE"/>
  <outline>
    <contour>
      <point x="48" y="505.792" type="curve" smooth="yes"/>
      <point x="48" y="408.993"/>
      <point x="126.333" y="329.996"/>
      <point x="222.318" y="329.996" type="curve" smooth="yes"/>
      <point x="318.341" y="329.996"/>
      <point x="396.636" y="408.292"/>
      <point x="396.636" y="504.314" type="curve" smooth="yes"/>
      <point x="396.636" y="601.113"/>
      <point x="318.303" y="680.11"/>
      <point x="222.318" y="680.11" type="curve" smooth="yes"/>
      <point x="126.295" y="680.11"/>
      <point x="48" y="601.814"/>
    </contour>
    <contour>
      <point x="90.8409" y="505.792" type="curve" smooth="yes"/>
      <point x="90.8409" y="578.178"/>
      <point x="149.932" y="637.269"/>
      <point x="222.318" y="637.269" type="curve" smooth="yes"/>
      <point x="294.667" y="637.269"/>
      <point x="353.795" y="577.477"/>
      <point x="353.795" y="504.315" type="curve" smooth="yes"/>
      <point x="353.795" y="431.928"/>
      <point x="294.704" y="372.837"/>
      <point x="222.318" y="372.837" type="curve" smooth="yes"/>
      <point x="149.969" y="372.837"/>
      <point x="90.8409" y="432.63"/>
    </contour>
    <contour>
      <point x="173.334" y="487.326" type="line"/>
      <point x="243.643" y="487.326" type="line" smooth="yes"/>
      <point x="289.012" y="487.326"/>
      <point x="298.398" y="518.349"/>
      <point x="298.398" y="541.985" type="curve" smooth="yes"/>
      <point x="298.398" y="581.871"/>
      <point x="270.337" y="601.076"/>
      <point x="234.136" y="601.076" type="curve" smooth="yes"/>
      <point x="173.334" y="601.076" type="line"/>
      <point x="173.334" y="564.144" type="line"/>
      <point x="234.136" y="564.144" type="line" smooth="yes"/>
      <point x="254.818" y="564.144"/>
      <point x="261.466" y="558.235"/>
      <point x="261.466" y="543.462" type="curve" smooth="yes"/>
      <point x="261.466" y="528.689"/>
      <point x="257.773" y="524.258"/>
      <point x="234.136" y="524.258" type="curve" smooth="yes"/>
      <point x="173.334" y="524.258" type="line"/>
    </contour>
    <contour>
      <point x="158.057" y="407.553" type="line"/>
      <point x="194.989" y="407.553" type="line"/>
      <point x="194.989" y="601.25" type="line"/>
      <point x="158.057" y="601.076" type="line"/>
    </contour>
    <contour>
      <point x="204.984" y="497.258" type="line"/>
      <point x="256.295" y="407.553" type="line"/>
      <point x="299.136" y="407.553" type="line"/>
      <point x="245.45" y="497.258" type="line"/>
    </contour>
  </outline>
</glyph>
<glyph name="uni00B2" format="2">
  <advance width="368"/>
  <unicode hex="00B2"/>
  <outline>
    <contour>
      <point x="53" y="354" type="line"/>
      <point x="311" y="354" type="line"/>
      <point x="311" y="423" type="line"/>
      <point x="101" y="423" type="line"/>
      <point x="112" y="368" type="line"/>
      <point x="232" y="471" type="line"/>
      <point x="290" y="523"/>
      <point x="302" y="552"/>
      <point x="302" y="590" type="curve" smooth="yes"/>
      <point x="302" y="651"/>
      <point x="254" y="692"/>
      <point x="181" y="692" type="curve" smooth="yes"/>
      <point x="97" y="692"/>
      <point x="47" y="641"/>
      <point x="47" y="568" type="curve"/>
      <point x="133" y="568" type="line"/>
      <point x="133" y="600"/>
      <point x="148" y="617"/>
      <point x="176" y="617" type="curve" smooth="yes"/>
      <point x="197" y="617"/>
      <point x="216" y="603"/>
      <point x="216" y="581" type="curve" smooth="yes"/>
      <point x="216" y="561"/>
      <point x="196" y="543"/>
      <point x="161" y="512" type="curve" smooth="yes"/>
      <point x="53" y="418" type="line"/>
    </contour>
  </outline>
</glyph>
<glyph name="three.superior" format="2">
  <advance width="375"/>
  <unicode hex="00B3"/>
  <outline>
    <contour>
      <point x="21" y="454" type="line"/>
      <point x="29" y="392"/>
      <point x="71" y="343"/>
      <point x="161" y="343" type="curve" smooth="yes"/>
      <point x="224" y="343"/>
      <point x="297" y="374"/>
      <point x="297" y="453" type="curve" smooth="yes"/>
      <point x="297" y="502"/>
      <point x="266" y="536"/>
      <point x="216" y="541" type="curve"/>
      <point x="216" y="529" type="line"/>
      <point x="254" y="534"/>
      <point x="279" y="563"/>
      <point x="279" y="602" type="curve" smooth="yes"/>
      <point x="279" y="658"/>
      <point x="236" y="691"/>
      <point x="164" y="691" type="curve" smooth="yes"/>
      <point x="93" y="691"/>
      <point x="45" y="652"/>
      <point x="24" y="585" type="curve"/>
      <point x="108" y="585" type="line"/>
      <point x="117" y="608"/>
      <point x="133" y="618"/>
      <point x="159" y="618" type="curve" smooth="yes"/>
      <point x="173" y="618"/>
      <point x="190" y="611"/>
      <point x="190" y="588" type="curve" smooth="yes"/>
      <point x="190" y="562"/>
      <point x="156" y="554"/>
      <point x="130" y="554" type="curve"/>
      <point x="130" y="498" type="line"/>
      <point x="142" y="499"/>
      <point x="145" y="499"/>
      <point x="153" y="499" type="curve" smooth="yes"/>
      <point x="188" y="499"/>
      <point x="208" y="484"/>
      <point x="208" y="455" type="curve" smooth="yes"/>
      <point x="208" y="431"/>
      <point x="187" y="416"/>
      <point x="159" y="416" type="curve" smooth="yes"/>
      <point x="127" y="416"/>
      <point x="109" y="433"/>
      <point x="104" y="454" type="curve"/>
    </contour>
  </outline>
  <guideline angle="0" x="0" y="344"/>
</glyph>
<glyph name="cedilla" format="2">
  <advance width="452"/>
  <unicode hex="00B8"/>
  <outline>
    <contour>
      <point x="126" y="-190" type="line"/>
      <point x="152" y="-208"/>
      <point x="180" y="-220"/>
      <point x="211" y="-220" type="curve" smooth="yes"/>
      <point x="279" y="-220"/>
      <point x="327" y="-178"/>
      <point x="327" y="-124" type="curve" smooth="yes"/>
      <point x="327" y="-70"/>
      <point x="294" y="-40"/>
      <point x="224" y="-33" type="curve"/>
      <point x="227" y="-59" type="line"/>
      <point x="254" y="0" type="line"/>
      <point x="206" y="0" type="line"/>
      <point x="170" y="-78" type="line"/>
      <point x="174" y="-81" type="line"/>
      <point x="221" y="-85"/>
      <point x="250" y="-101"/>
      <point x="250" y="-130" type="curve" smooth="yes"/>
      <point x="250" y="-151"/>
      <point x="233" y="-164"/>
      <point x="201" y="-164" type="curve" smooth="yes"/>
      <point x="182" y="-164"/>
      <point x="161" y="-154"/>
      <point x="149" y="-141" type="curve"/>
      <point x="147" y="-141" type="line"/>
      <point x="126" y="-188" type="line"/>
    </contour>
  </outline>
  <guideline angle="65.1707" x="221" y="-67"/>
  <guideline angle="65.1707" x="175" y="-67"/>
  <guideline angle="65.556" x="124" y="-193"/>
</glyph>
<glyph name="ordmasculine" format="2">
  <advance width="353"/>
  <unicode hex="00BA"/>
  <outline>
    <contour>
      <point x="40" y="575.523" type="curve" smooth="yes"/>
      <point x="40" y="472.27"/>
      <point x="89.8677" y="416"/>
      <point x="176.979" y="416" type="curve" smooth="yes"/>
      <point x="264.702" y="416"/>
      <point x="313" y="478.178"/>
      <point x="313" y="578.495" type="curve" smooth="yes"/>
      <point x="313" y="678.776"/>
      <point x="263.116" y="740"/>
      <point x="176.021" y="740" type="curve" smooth="yes"/>
      <point x="88.805" y="740"/>
      <point x="40" y="678.813"/>
    </contour>
    <contour>
      <point x="120" y="577.498" type="curve" smooth="yes"/>
      <point x="120" y="653.745"/>
      <point x="141.218" y="684"/>
      <point x="176.135" y="684" type="curve" smooth="yes"/>
      <point x="208.708" y="684"/>
      <point x="233" y="649.791"/>
      <point x="233" y="580.512" type="curve" smooth="yes"/>
      <point x="233" y="511.232"/>
      <point x="211.413" y="472"/>
      <point x="176.135" y="472" type="curve" smooth="yes"/>
      <point x="143.523" y="472"/>
      <point x="120" y="501.25"/>
    </contour>
  </outline>
</glyph>
<glyph name="AE" format="2">
  <advance width="630"/>
  <unicode hex="00C6"/>
  <anchor x="346" y="740" name="top"/>
  <outline>
    <contour>
      <point x="10" y="0" type="line"/>
      <point x="106" y="0" type="line"/>
      <point x="295" y="612" type="line"/>
      <point x="275" y="590" type="line"/>
      <point x="300" y="590" type="line"/>
      <point x="300" y="0" type="line"/>
      <point x="592" y="0" type="line"/>
      <point x="592" y="90" type="line"/>
      <point x="392" y="90" type="line"/>
      <point x="392" y="302" type="line"/>
      <point x="552" y="302" type="line"/>
      <point x="552" y="392" type="line"/>
      <point x="392" y="392" type="line"/>
      <point x="392" y="590" type="line"/>
      <point x="592" y="590" type="line"/>
      <point x="592" y="680" type="line"/>
      <point x="220" y="680" type="line"/>
    </contour>
    <contour>
      <point x="125" y="202" type="line"/>
      <point x="345" y="202" type="line"/>
      <point x="345" y="292" type="line"/>
      <point x="145" y="292" type="line"/>
    </contour>
  </outline>
</glyph>
<glyph name="Oslash" format="2">
  <advance width="541"/>
  <unicode hex="00D8"/>
  <outline>
    <component base="O"/>
    <contour>
      <point x="29" y="-10" type="line"/>
      <point x="139" y="-10" type="line"/>
      <point x="521" y="690" type="line"/>
      <point x="411" y="690" type="line"/>
    </contour>
  </outline>
</glyph>
<glyph name="germandbls" format="2">
  <advance width="460"/>
  <unicode hex="00DF"/>
  <outline>
    <contour>
      <point x="66" y="0" type="line"/>
      <point x="158" y="0" type="line"/>
      <point x="158" y="543" type="line" smooth="yes"/>
      <point x="158" y="592"/>
      <point x="186" y="624"/>
      <point x="227" y="624" type="curve" smooth="yes"/>
      <point x="267" y="624"/>
      <point x="293" y="592"/>
      <point x="293" y="536" type="curve" smooth="yes"/>
      <point x="293" y="456"/>
      <point x="256" y="402"/>
      <point x="200" y="402" type="curve" smooth="yes"/>
      <point x="185" y="402" type="line"/>
      <point x="185" y="322" type="line"/>
      <point x="201" y="322" type="line" smooth="yes"/>
      <point x="277" y="322"/>
      <point x="328" y="270"/>
      <point x="328" y="192" type="curve" smooth="yes"/>
      <point x="328" y="115"/>
      <point x="292" y="64"/>
      <point x="237" y="64" type="curve" smooth="yes"/>
      <point x="218" y="64"/>
      <point x="201" y="68"/>
      <point x="185" y="74" type="curve"/>
      <point x="185" y="-4" type="line"/>
      <point x="208" y="-10"/>
      <point x="232" y="-12"/>
      <point x="253" y="-12" type="curve" smooth="yes"/>
      <point x="353" y="-12"/>
      <point x="420" y="75"/>
      <point x="420" y="206" type="curve" smooth="yes"/>
      <point x="420" y="298"/>
      <point x="364" y="370"/>
      <point x="279" y="386" type="curve"/>
      <point x="287" y="367" type="line"/>
      <point x="346" y="390"/>
      <point x="385" y="461"/>
      <point x="385" y="545" type="curve" smooth="yes"/>
      <point x="385" y="642"/>
      <point x="320" y="700"/>
      <point x="222" y="700" type="curve" smooth="yes"/>
      <point x="128" y="700"/>
      <point x="66" y="642"/>
      <point x="66" y="555" type="curve" smooth="yes"/>
    </contour>
  </outline>
</glyph>
<glyph name="ae" format="2">
  <advance width="757"/>
  <unicode hex="00E6"/>
  <outline>
    <contour>
      <point x="413" y="290" type="line"/>
      <point x="413" y="346"/>
      <point x="465" y="407"/>
      <point x="532" y="407" type="curve" smooth="yes"/>
      <point x="598" y="407"/>
      <point x="650" y="346"/>
      <point x="650" y="290" type="curve"/>
    </contour>
    <contour>
      <point x="110" y="136" type="curve" smooth="yes"/>
      <point x="110" y="199"/>
      <point x="191" y="215"/>
      <point x="253" y="224" type="curve" smooth="yes"/>
      <point x="325" y="235" type="line"/>
      <point x="325" y="123" type="line"/>
      <point x="305" y="79"/>
      <point x="232" y="53"/>
      <point x="189" y="53" type="curve" smooth="yes"/>
      <point x="163" y="53"/>
      <point x="110" y="69"/>
    </contour>
    <contour>
      <point x="30" y="128" type="curve" smooth="yes"/>
      <point x="30" y="43"/>
      <point x="93" y="-12"/>
      <point x="177" y="-12" type="curve" smooth="yes"/>
      <point x="257" y="-12"/>
      <point x="308" y="21"/>
      <point x="367" y="74" type="curve"/>
      <point x="403" y="18"/>
      <point x="459" y="-12"/>
      <point x="532" y="-12" type="curve" smooth="yes"/>
      <point x="615" y="-12"/>
      <point x="675" y="39"/>
      <point x="714" y="141" type="curve"/>
      <point x="638" y="141" type="line"/>
      <point x="615" y="87"/>
      <point x="574" y="53"/>
      <point x="528" y="53" type="curve" smooth="yes"/>
      <point x="446" y="53"/>
      <point x="410" y="124"/>
      <point x="410" y="235" type="curve"/>
      <point x="726" y="235" type="line"/>
      <point x="726" y="269" type="line" smooth="yes"/>
      <point x="726" y="391"/>
      <point x="649" y="472"/>
      <point x="531" y="472" type="curve" smooth="yes"/>
      <point x="460" y="472"/>
      <point x="409" y="441"/>
      <point x="376" y="398" type="curve"/>
      <point x="342" y="446"/>
      <point x="284" y="472"/>
      <point x="228" y="472" type="curve" smooth="yes"/>
      <point x="137" y="472"/>
      <point x="65" y="413"/>
      <point x="55" y="320" type="curve"/>
      <point x="120" y="320" type="line"/>
      <point x="124" y="369"/>
      <point x="171" y="407"/>
      <point x="225" y="407" type="curve" smooth="yes"/>
      <point x="269" y="407"/>
      <point x="325" y="371"/>
      <point x="325" y="320" type="curve" smooth="yes"/>
      <point x="325" y="294" type="line"/>
      <point x="239" y="281" type="line" smooth="yes"/>
      <point x="137" y="266"/>
      <point x="30" y="238"/>
    </contour>
  </outline>
</glyph>
<glyph name="eth" format="2">
  <advance width="414"/>
  <unicode hex="00F0"/>
  <outline>
    <contour>
      <point x="30" y="628" type="line"/>
      <point x="197" y="554"/>
      <point x="280" y="421"/>
      <point x="280" y="219" type="curve"/>
      <point x="372" y="219" type="line"/>
      <point x="372" y="438"/>
      <point x="262" y="615"/>
      <point x="83" y="693" type="curve"/>
    </contour>
    <contour>
      <point x="94" y="502" type="line"/>
      <point x="335" y="603" type="line"/>
      <point x="297" y="651" type="line"/>
      <point x="56" y="550" type="line"/>
    </contour>
    <contour>
      <point x="40" y="215" type="curve" smooth="yes"/>
      <point x="40" y="64"/>
      <point x="107" y="-12"/>
      <point x="206" y="-12" type="curve" smooth="yes"/>
      <point x="302" y="-12"/>
      <point x="372" y="74"/>
      <point x="372" y="215" type="curve" smooth="yes"/>
      <point x="372" y="366"/>
      <point x="306" y="442"/>
      <point x="206" y="442" type="curve" smooth="yes"/>
      <point x="110" y="442"/>
      <point x="40" y="356"/>
    </contour>
    <contour>
      <point x="132" y="215" type="curve" smooth="yes"/>
      <point x="132" y="334"/>
      <point x="159" y="366"/>
      <point x="206" y="366" type="curve" smooth="yes"/>
      <point x="252" y="366"/>
      <point x="280" y="334"/>
      <point x="280" y="215" type="curve" smooth="yes"/>
      <point x="280" y="96"/>
      <point x="253" y="64"/>
      <point x="206" y="64" type="curve" smooth="yes"/>
      <point x="160" y="64"/>
      <point x="132" y="96"/>
    </contour>
  </outline>
</glyph>
<glyph name="divide" format="2">
  <advance width="502"/>
  <unicode hex="00F7"/>
  <outline>
    <contour>
      <point x="40" y="204" type="line"/>
      <point x="462" y="204" type="line"/>
      <point x="462" y="282" type="line"/>
      <point x="40" y="282" type="line"/>
    </contour>
    <contour>
      <point x="211" y="61" type="line"/>
      <point x="291" y="61" type="line"/>
      <point x="291" y="141" type="line"/>
      <point x="211" y="141" type="line"/>
    </contour>
    <contour>
      <point x="211" y="344" type="line"/>
      <point x="291" y="344" type="line"/>
      <point x="291" y="424" type="line"/>
      <point x="211" y="424" type="line"/>
    </contour>
  </outline>
  <guideline angle="90" x="251" y="0"/>
</glyph>
<glyph name="oslash" format="2">
  <advance width="472"/>
  <unicode hex="00F8"/>
  <outline>
    <component base="o" xOffset="30"/>
    <contour>
      <point x="40" y="0" type="line"/>
      <point x="120" y="0" type="line"/>
      <point x="432" y="460" type="line"/>
      <point x="352" y="460" type="line"/>
    </contour>
  </outline>
</glyph>
<glyph name="thorn" format="2">
  <advance width="444"/>
  <unicode hex="00FE"/>
  <outline>
    <component base="p"/>
    <contour>
      <point x="66" y="0" type="line"/>
      <point x="152" y="0" type="line"/>
      <point x="152" y="14" type="line"/>
      <point x="141" y="33" type="line"/>
      <point x="141" y="261" type="line"/>
      <point x="152" y="367" type="line"/>
      <point x="152" y="700" type="line"/>
      <point x="66" y="700" type="line"/>
    </contour>
  </outline>
  <guideline angle="90" x="142" y="0"/>
  <guideline angle="90" x="144" y="0"/>
</glyph>
<glyph name="dcroat" format="2">
  <advance width="437"/>
  <unicode hex="0111"/>
  <outline>
    <component base="d"/>
    <contour>
      <point x="177" y="539" type="line"/>
      <point x="437" y="539" type="line"/>
      <point x="437" y="615" type="line"/>
      <point x="177" y="615" type="line"/>
    </contour>
  </outline>
</glyph>
<glyph name="Hbar" format="2">
  <advance width="504"/>
  <unicode hex="0126"/>
  <anchor x="251" y="-40" name="bottom"/>
  <anchor x="376" y="0" name="b.cedilla"/>
  <outline>
    <component base="H"/>
    <contour>
      <point x="22" y="530" type="line"/>
      <point x="480" y="530" type="line"/>
      <point x="480" y="610" type="line"/>
      <point x="22" y="610" type="line"/>
    </contour>
  </outline>
</glyph>
<glyph name="kgreenlandic" format="2">
  <advance width="385"/>
  <unicode hex="0138"/>
  <outline>
    <contour>
      <point x="66" y="0" type="line"/>
      <point x="152" y="0" type="line"/>
      <point x="152" y="460" type="line"/>
      <point x="66" y="444" type="line"/>
    </contour>
    <contour>
      <point x="127" y="96" type="line"/>
      <point x="349" y="460" type="line"/>
      <point x="250" y="460" type="line"/>
      <point x="127" y="252" type="line"/>
    </contour>
    <contour>
      <point x="154" y="227" type="line"/>
      <point x="267" y="0" type="line"/>
      <point x="366" y="0" type="line"/>
      <point x="209" y="318" type="line"/>
    </contour>
  </outline>
</glyph>
<glyph name="Eng" format="2">
  <advance width="546"/>
  <unicode hex="014A"/>
  <anchor x="273" y="740" name="top"/>
  <anchor x="271" y="-60" name="bottom"/>
  <outline>
    <component base="N"/>
    <contour>
      <point x="319" y="-200" type="line"/>
      <point x="350" y="-200" type="line" smooth="yes"/>
      <point x="436" y="-200"/>
      <point x="486" y="-144"/>
      <point x="486" y="-47" type="curve" smooth="yes"/>
      <point x="486" y="100" type="line"/>
      <point x="394" y="100" type="line"/>
      <point x="394" y="-59" type="line" smooth="yes"/>
      <point x="394" y="-91"/>
      <point x="377" y="-110"/>
      <point x="349" y="-110" type="curve" smooth="yes"/>
      <point x="319" y="-110" type="line"/>
    </contour>
  </outline>
  <guideline angle="90" x="271" y="0"/>
</glyph>
<glyph name="OE" format="2">
  <advance width="950"/>
  <unicode hex="0152"/>
  <outline>
    <contour>
      <point x="48" y="340" type="curve" smooth="yes"/>
      <point x="48" y="119"/>
      <point x="158" y="-12"/>
      <point x="331" y="-12" type="curve" smooth="yes"/>
      <point x="407" y="-12"/>
      <point x="469" y="18"/>
      <point x="513" y="71" type="curve"/>
      <point x="513" y="0" type="line"/>
      <point x="912" y="0" type="line"/>
      <point x="912" y="90" type="line"/>
      <point x="612" y="90" type="line"/>
      <point x="612" y="302" type="line"/>
      <point x="872" y="302" type="line"/>
      <point x="872" y="392" type="line"/>
      <point x="612" y="392" type="line"/>
      <point x="612" y="590" type="line"/>
      <point x="912" y="590" type="line"/>
      <point x="912" y="680" type="line"/>
      <point x="513" y="680" type="line"/>
      <point x="513" y="609" type="line"/>
      <point x="469" y="662"/>
      <point x="407" y="692"/>
      <point x="331" y="692" type="curve" smooth="yes"/>
      <point x="158" y="692"/>
      <point x="48" y="561"/>
    </contour>
    <contour>
      <point x="147" y="340" type="curve" smooth="yes"/>
      <point x="147" y="508"/>
      <point x="213" y="602"/>
      <point x="331" y="602" type="curve" smooth="yes"/>
      <point x="447" y="602"/>
      <point x="513" y="510"/>
      <point x="513" y="349" type="curve" smooth="yes"/>
      <point x="513" y="331" type="line" smooth="yes"/>
      <point x="513" y="170"/>
      <point x="447" y="78"/>
      <point x="331" y="78" type="curve" smooth="yes"/>
      <point x="213" y="78"/>
      <point x="147" y="172"/>
    </contour>
  </outline>
</glyph>
<glyph name="Tbar" format="2">
  <advance width="480"/>
  <unicode hex="0166"/>
  <outline>
    <contour>
      <point x="49" y="304" type="line"/>
      <point x="431" y="304" type="line"/>
      <point x="431" y="393" type="line"/>
      <point x="49" y="393" type="line"/>
    </contour>
    <contour>
      <point x="191" y="0" type="line"/>
      <point x="291" y="0" type="line"/>
      <point x="291" y="680" type="line"/>
      <point x="191" y="680" type="line"/>
    </contour>
    <contour>
      <point x="10" y="590" type="line"/>
      <point x="470" y="590" type="line"/>
      <point x="470" y="680" type="line"/>
      <point x="10" y="680" type="line"/>
    </contour>
  </outline>
</glyph>
<glyph name="tbar" format="2">
  <advance width="324"/>
  <unicode hex="0167"/>
  <outline>
    <contour>
      <point x="22" y="216" type="line"/>
      <point x="273" y="216" type="line"/>
      <point x="273" y="292" type="line"/>
      <point x="22" y="292" type="line"/>
    </contour>
    <contour>
      <point x="22" y="384" type="line"/>
      <point x="273" y="384" type="line"/>
      <point x="273" y="460" type="line"/>
      <point x="104" y="460" type="line"/>
      <point x="22" y="440" type="line"/>
    </contour>
    <contour>
      <point x="97" y="180" type="line" smooth="yes"/>
      <point x="97" y="44"/>
      <point x="121" y="-9"/>
      <point x="271" y="-9" type="curve" smooth="yes"/>
      <point x="304" y="-9" type="line"/>
      <point x="304" y="63" type="line"/>
      <point x="270" y="63" type="line" smooth="yes"/>
      <point x="201" y="63"/>
      <point x="189" y="90"/>
      <point x="189" y="188" type="curve" smooth="yes"/>
      <point x="189" y="610" type="line"/>
      <point x="117" y="610" type="line"/>
      <point x="103" y="453" type="line"/>
      <point x="97" y="453" type="line"/>
    </contour>
  </outline>
</glyph>
<glyph name="longs" format="2">
  <advance width="265"/>
  <unicode hex="017F"/>
  <anchor x="142" y="740" name="top"/>
  <outline>
    <contour>
      <point x="82" y="0" type="line"/>
      <point x="168" y="0" type="line"/>
      <point x="168" y="567" type="line" smooth="yes"/>
      <point x="168" y="601"/>
      <point x="190" y="624"/>
      <point x="223" y="624" type="curve" smooth="yes"/>
      <point x="245" y="624" type="line"/>
      <point x="245" y="700" type="line"/>
      <point x="217" y="700" type="line" smooth="yes"/>
      <point x="136" y="700"/>
      <point x="82" y="649"/>
      <point x="82" y="572" type="curve" smooth="yes"/>
    </contour>
    <contour>
      <point x="26" y="384" type="line"/>
      <point x="121" y="384" type="line"/>
      <point x="121" y="460" type="line"/>
      <point x="26" y="460" type="line"/>
    </contour>
  </outline>
</glyph>
<glyph name="Schwa" format="2">
  <advance width="539"/>
  <unicode hex="018F"/>
  <anchor x="273" y="740" name="top"/>
  <outline>
    <contour>
      <point x="48" y="340" type="line"/>
      <point x="48" y="119"/>
      <point x="128" y="-12"/>
      <point x="269" y="-12" type="curve" smooth="yes"/>
      <point x="410" y="-12"/>
      <point x="491" y="119"/>
      <point x="491" y="340" type="curve" smooth="yes"/>
      <point x="491" y="561"/>
      <point x="410" y="692"/>
      <point x="269" y="692" type="curve" smooth="yes"/>
      <point x="160" y="692"/>
      <point x="87" y="614"/>
      <point x="60" y="477" type="curve"/>
      <point x="154" y="477" type="line"/>
      <point x="172" y="558"/>
      <point x="209" y="602"/>
      <point x="269" y="602" type="curve" smooth="yes"/>
      <point x="356" y="602"/>
      <point x="395" y="508"/>
      <point x="395" y="340" type="curve" smooth="yes"/>
      <point x="395" y="172"/>
      <point x="356" y="78"/>
      <point x="269" y="78" type="curve" smooth="yes"/>
      <point x="182" y="78"/>
      <point x="142" y="172"/>
      <point x="142" y="340" type="curve"/>
    </contour>
    <contour>
      <point x="86" y="250" type="line"/>
      <point x="446" y="250" type="line"/>
      <point x="446" y="340" type="line"/>
      <point x="86" y="340" type="line"/>
    </contour>
  </outline>
</glyph>
<glyph name="florin" format="2">
  <advance width="506"/>
  <unicode hex="0192"/>
  <outline>
    <contour>
      <point x="10" y="-176" type="line"/>
      <point x="66" y="-187"/>
      <point x="101" y="-187"/>
      <point x="107" y="-187" type="curve" smooth="yes"/>
      <point x="185.138" y="-187"/>
      <point x="205.518" y="-137.579"/>
      <point x="226" y="-44" type="curve" smooth="yes"/>
      <point x="357.104" y="555" type="line" smooth="yes"/>
      <point x="366.096" y="596.084"/>
      <point x="387.306" y="628"/>
      <point x="419.738" y="628" type="curve" smooth="yes"/>
      <point x="432.104" y="628"/>
      <point x="451.506" y="623.579"/>
      <point x="470.104" y="618" type="curve" smooth="yes"/>
      <point x="480.104" y="615" type="line"/>
      <point x="495.104" y="683" type="line"/>
      <point x="487.104" y="686" type="line" smooth="yes"/>
      <point x="463.104" y="695"/>
      <point x="437.104" y="700"/>
      <point x="402.104" y="700" type="curve" smooth="yes"/>
      <point x="341.076" y="700"/>
      <point x="294.494" y="647.817"/>
      <point x="278.104" y="571" type="curve" smooth="yes"/>
      <point x="152" y="-20" type="line" smooth="yes"/>
      <point x="135.464" y="-97.5002"/>
      <point x="120.115" y="-115.087"/>
      <point x="91.5033" y="-115.087" type="curve" smooth="yes"/>
      <point x="82.5033" y="-115.087"/>
      <point x="70.5149" y="-114.02"/>
      <point x="53.5033" y="-111.087" type="curve" smooth="yes"/>
      <point x="24.5033" y="-106.087" type="line"/>
    </contour>
    <contour>
      <point x="154" y="380" type="line"/>
      <point x="409" y="380" type="line"/>
      <point x="429" y="460" type="line"/>
      <point x="174" y="460" type="line"/>
    </contour>
  </outline>
</glyph>
<glyph name="Obar" format="2">
  <advance width="542"/>
  <unicode hex="019F"/>
  <anchor x="271" y="740" name="top"/>
  <outline>
    <component base="O"/>
    <contour>
      <point x="86" y="313" type="line"/>
      <point x="446" y="313" type="line"/>
      <point x="446" y="401" type="line"/>
      <point x="86" y="401" type="line"/>
    </contour>
  </outline>
</glyph>
<glyph name="uni0237" format="2">
  <advance width="219"/>
  <unicode hex="0237"/>
  <anchor x="113" y="540" name="top"/>
  <outline>
    <contour>
      <point x="-12" y="-200" type="line"/>
      <point x="22" y="-200" type="line" smooth="yes"/>
      <point x="98" y="-200"/>
      <point x="153" y="-143"/>
      <point x="153" y="-64" type="curve" smooth="yes"/>
      <point x="153" y="460" type="line"/>
      <point x="67" y="460" type="line"/>
      <point x="67" y="-59" type="line" smooth="yes"/>
      <point x="67" y="-96"/>
      <point x="43" y="-124"/>
      <point x="11" y="-124" type="curve" smooth="yes"/>
      <point x="-12" y="-124" type="line"/>
    </contour>
  </outline>
</glyph>
<glyph name="circumflex" format="2">
  <advance width="340"/>
  <unicode hex="02C6"/>
  <outline>
    <contour>
      <point x="33" y="530" type="line"/>
      <point x="84" y="530" type="line"/>
      <point x="192" y="651" type="line"/>
      <point x="148" y="651" type="line"/>
      <point x="256" y="530" type="line"/>
      <point x="307" y="530" type="line"/>
      <point x="209" y="698" type="line"/>
      <point x="131" y="698" type="line"/>
    </contour>
  </outline>
  <guideline angle="90" x="170" y="0"/>
  <guideline angle="0" x="0" y="530"/>
</glyph>
<glyph name="breve" format="2">
  <advance width="370"/>
  <unicode hex="02D8"/>
  <outline>
    <contour>
      <point x="60" y="640" type="line"/>
      <point x="60" y="574"/>
      <point x="112" y="530"/>
      <point x="188" y="530" type="curve" smooth="yes"/>
      <point x="258" y="530"/>
      <point x="310" y="574"/>
      <point x="310" y="640" type="curve"/>
      <point x="224" y="640" type="line"/>
      <point x="224" y="616"/>
      <point x="208" y="596"/>
      <point x="185" y="596" type="curve" smooth="yes"/>
      <point x="162" y="596"/>
      <point x="146" y="616"/>
      <point x="146" y="640" type="curve"/>
    </contour>
  </outline>
  <guideline angle="0" x="0" y="530"/>
</glyph>
<glyph name="ring" format="2">
  <advance width="239"/>
  <unicode hex="02DA"/>
  <outline>
    <contour>
      <point x="32" y="617" type="curve" smooth="yes"/>
      <point x="32" y="569"/>
      <point x="71" y="530"/>
      <point x="119" y="530" type="curve" smooth="yes"/>
      <point x="167" y="530"/>
      <point x="206" y="569"/>
      <point x="206" y="617" type="curve" smooth="yes"/>
      <point x="206" y="665"/>
      <point x="167" y="704"/>
      <point x="119" y="704" type="curve" smooth="yes"/>
      <point x="71" y="704"/>
      <point x="32" y="665"/>
    </contour>
    <contour>
      <point x="88" y="617" type="curve" smooth="yes"/>
      <point x="88" y="634"/>
      <point x="102" y="648"/>
      <point x="119" y="648" type="curve" smooth="yes"/>
      <point x="136" y="648"/>
      <point x="150" y="634"/>
      <point x="150" y="617" type="curve" smooth="yes"/>
      <point x="150" y="600"/>
      <point x="136" y="586"/>
      <point x="119" y="586" type="curve" smooth="yes"/>
      <point x="102" y="586"/>
      <point x="88" y="600"/>
    </contour>
  </outline>
  <guideline angle="0" x="0" y="530"/>
</glyph>
<glyph name="ogonek" format="2">
  <advance width="295"/>
  <unicode hex="02DB"/>
  <outline>
    <contour>
      <point x="58" y="-123" type="curve" smooth="yes"/>
      <point x="58" y="-177"/>
      <point x="93" y="-210"/>
      <point x="151" y="-210" type="curve" smooth="yes"/>
      <point x="182" y="-210"/>
      <point x="212" y="-200"/>
      <point x="237" y="-183" type="curve"/>
      <point x="216" y="-135" type="line"/>
      <point x="205" y="-143"/>
      <point x="191" y="-148"/>
      <point x="177" y="-148" type="curve" smooth="yes"/>
      <point x="150" y="-148"/>
      <point x="134" y="-132"/>
      <point x="134" y="-105" type="curve" smooth="yes"/>
      <point x="134" y="-74"/>
      <point x="154" y="-38"/>
      <point x="192" y="0" type="curve"/>
      <point x="121" y="0" type="line"/>
      <point x="78" y="-41"/>
      <point x="58" y="-82"/>
    </contour>
  </outline>
  <guideline angle="90" x="271" y="0"/>
</glyph>
<glyph name="tilde" format="2">
  <advance width="406"/>
  <unicode hex="02DC"/>
  <anchor x="203" y="530" name="_top"/>
  <outline>
    <contour>
      <point x="50" y="530" type="curve"/>
      <point x="100" y="530" type="line"/>
      <point x="105" y="558"/>
      <point x="120" y="570"/>
      <point x="140" y="570" type="curve" smooth="yes"/>
      <point x="155" y="570"/>
      <point x="172" y="563"/>
      <point x="187" y="556" type="curve"/>
      <point x="199" y="550" type="line" smooth="yes"/>
      <point x="220" y="539"/>
      <point x="241" y="530"/>
      <point x="266" y="530" type="curve" smooth="yes"/>
      <point x="306" y="530"/>
      <point x="342" y="563"/>
      <point x="356" y="650" type="curve"/>
      <point x="306" y="650" type="line"/>
      <point x="301" y="622"/>
      <point x="286" y="610"/>
      <point x="266" y="610" type="curve" smooth="yes"/>
      <point x="250" y="610"/>
      <point x="233" y="617"/>
      <point x="219" y="624" type="curve" smooth="yes"/>
      <point x="209" y="629" type="line" smooth="yes"/>
      <point x="187" y="640"/>
      <point x="165" y="650"/>
      <point x="140" y="650" type="curve" smooth="yes"/>
      <point x="100" y="650"/>
      <point x="64" y="617"/>
    </contour>
  </outline>
  <guideline angle="0" x="0" y="530"/>
</glyph>
<glyph name="hungarumlaut" format="2">
  <advance width="422"/>
  <unicode hex="02DD"/>
  <anchor x="163" y="530" name="_top"/>
  <outline>
    <contour>
      <point x="58" y="530" type="line"/>
      <point x="109" y="530" type="line"/>
      <point x="213" y="692" type="line"/>
      <point x="123" y="692" type="line"/>
    </contour>
    <contour>
      <point x="209" y="530" type="line"/>
      <point x="260" y="530" type="line"/>
      <point x="364" y="692" type="line"/>
      <point x="274" y="692" type="line"/>
    </contour>
  </outline>
  <guideline angle="0" x="0" y="530"/>
</glyph>
<glyph name="uni0302" format="2">
  <unicode hex="0302"/>
  <anchor x="-220" y="530" name="_top"/>
  <outline>
    <contour>
      <point x="-357" y="530" type="line"/>
      <point x="-306" y="530" type="line"/>
      <point x="-198" y="651" type="line"/>
      <point x="-242" y="651" type="line"/>
      <point x="-134" y="530" type="line"/>
      <point x="-83" y="530" type="line"/>
      <point x="-181" y="698" type="line"/>
      <point x="-259" y="698" type="line"/>
    </contour>
  </outline>
  <guideline angle="0" x="0" y="530"/>
</glyph>
<glyph name="uni0326" format="2">
  <unicode hex="0326"/>
  <anchor x="-94" y="-40" name="_bottom"/>
  <outline>
    <contour>
      <point x="-50" y="-40" type="line"/>
      <point x="-139" y="-40" type="line"/>
      <point x="-139" y="-130" type="line"/>
      <point x="-117" y="-130" type="line"/>
      <point x="-139" y="-260" type="line"/>
      <point x="-96" y="-260" type="line"/>
      <point x="-50" y="-130" type="line"/>
    </contour>
  </outline>
</glyph>
<glyph name="uni032D" format="2">
  <unicode hex="032D"/>
  <anchor x="-267" y="-40" name="_bottom"/>
  <outline>
    <contour>
      <point x="-404" y="-208" type="line"/>
      <point x="-353" y="-208" type="line"/>
      <point x="-245" y="-87" type="line"/>
      <point x="-289" y="-87" type="line"/>
      <point x="-181" y="-208" type="line"/>
      <point x="-130" y="-208" type="line"/>
      <point x="-228" y="-40" type="line"/>
      <point x="-306" y="-40" type="line"/>
    </contour>
  </outline>
  <guideline angle="90" x="-267" y="0"/>
</glyph>
<glyph name="mu" format="2">
  <advance width="442"/>
  <unicode hex="03BC"/>
  <outline>
    <contour>
      <point x="66" y="-200" type="line"/>
      <point x="152" y="-200" type="line"/>
      <point x="152" y="-50" type="line" smooth="yes"/>
      <point x="152" y="-4"/>
      <point x="150" y="42"/>
      <point x="142" y="88" type="curve"/>
      <point x="139" y="86" type="line"/>
      <point x="148" y="25"/>
      <point x="167" y="-10"/>
      <point x="215" y="-10" type="curve" smooth="yes"/>
      <point x="256" y="-10"/>
      <point x="273" y="30"/>
      <point x="287" y="54" type="curve"/>
      <point x="290" y="54" type="line"/>
      <point x="290" y="0" type="line"/>
      <point x="376" y="0" type="line"/>
      <point x="376" y="460" type="line"/>
      <point x="290" y="460" type="line"/>
      <point x="290" y="265" type="line" smooth="yes"/>
      <point x="290" y="122"/>
      <point x="269" y="61"/>
      <point x="220" y="61" type="curve" smooth="yes"/>
      <point x="164" y="61"/>
      <point x="152" y="126"/>
      <point x="152" y="266" type="curve" smooth="yes"/>
      <point x="152" y="460" type="line"/>
      <point x="66" y="460" type="line"/>
    </contour>
  </outline>
</glyph>
<glyph name="uni0402" format="2">
  <advance width="528"/>
  <unicode hex="0402"/>
  <outline>
    <component base="uni040B"/>
    <contour>
      <point x="194" y="-83" type="line"/>
      <point x="194" y="-149"/>
      <point x="247" y="-200"/>
      <point x="318" y="-200" type="curve" smooth="yes"/>
      <point x="409" y="-200"/>
      <point x="462" y="-151"/>
      <point x="462" y="-52" type="curve" smooth="yes"/>
      <point x="462" y="50" type="line"/>
      <point x="376" y="50" type="line"/>
      <point x="376" y="-64" type="line" smooth="yes"/>
      <point x="376" y="-110"/>
      <point x="349" y="-124"/>
      <point x="324" y="-124" type="curve" smooth="yes"/>
      <point x="301" y="-124"/>
      <point x="279" y="-107"/>
      <point x="279" y="-83" type="curve"/>
    </contour>
  </outline>
</glyph>
<glyph name="uni0404" format="2">
  <advance width="590"/>
  <unicode hex="0404"/>
  <outline>
    <contour>
      <point x="330" y="-12" type="line"/>
      <point x="474" y="-12"/>
      <point x="564" y="75"/>
      <point x="584" y="187" type="curve"/>
      <point x="484" y="187" type="line"/>
      <point x="465" y="122"/>
      <point x="407" y="78"/>
      <point x="330" y="78" type="curve"/>
    </contour>
    <contour>
      <point x="48" y="340" type="curve" smooth="yes"/>
      <point x="48" y="119"/>
      <point x="158" y="-12"/>
      <point x="330" y="-12" type="curve"/>
      <point x="330" y="78" type="line"/>
      <point x="214" y="78"/>
      <point x="148" y="172"/>
      <point x="148" y="340" type="curve" smooth="yes"/>
      <point x="148" y="508"/>
      <point x="214" y="602"/>
      <point x="330" y="602" type="curve"/>
      <point x="330" y="692" type="line"/>
      <point x="158" y="692"/>
      <point x="48" y="561"/>
    </contour>
    <contour>
      <point x="105" y="307" type="line"/>
      <point x="317" y="307" type="line"/>
      <point x="317" y="397" type="line"/>
      <point x="105" y="397" type="line"/>
    </contour>
    <contour>
      <point x="331" y="602" type="line"/>
      <point x="430" y="602"/>
      <point x="483" y="542"/>
      <point x="502" y="455" type="curve"/>
      <point x="598" y="455" type="line"/>
      <point x="569" y="597"/>
      <point x="479" y="692"/>
      <point x="331" y="692" type="curve"/>
    </contour>
  </outline>
</glyph>
<glyph name="uni040B" format="2">
  <advance width="528"/>
  <unicode hex="040B"/>
  <outline>
    <component base="T"/>
    <contour>
      <point x="183" y="270" type="line"/>
      <point x="238" y="270" type="line"/>
      <point x="238" y="340"/>
      <point x="267" y="396"/>
      <point x="315" y="396" type="curve" smooth="yes"/>
      <point x="356" y="396"/>
      <point x="376" y="367"/>
      <point x="376" y="309" type="curve" smooth="yes"/>
      <point x="376" y="0" type="line"/>
      <point x="462" y="0" type="line"/>
      <point x="462" y="332" type="line" smooth="yes"/>
      <point x="462" y="420"/>
      <point x="417" y="472"/>
      <point x="339" y="472" type="curve" smooth="yes"/>
      <point x="271" y="472"/>
      <point x="223" y="428"/>
      <point x="204" y="355" type="curve"/>
      <point x="242" y="355" type="line"/>
      <point x="242" y="428" type="line"/>
      <point x="183" y="428" type="line"/>
    </contour>
  </outline>
</glyph>
<glyph name="uni040F" format="2">
  <advance width="502"/>
  <unicode hex="040F"/>
  <outline>
    <contour>
      <point x="60" y="0" type="line"/>
      <point x="442" y="0" type="line"/>
      <point x="442" y="680" type="line"/>
      <point x="350" y="680" type="line"/>
      <point x="350" y="90" type="line"/>
      <point x="152" y="90" type="line"/>
      <point x="152" y="680" type="line"/>
      <point x="60" y="680" type="line"/>
    </contour>
    <contour>
      <point x="205" y="-140" type="line"/>
      <point x="297" y="-140" type="line"/>
      <point x="297" y="45" type="line"/>
      <point x="205" y="45" type="line"/>
    </contour>
  </outline>
  <guideline angle="90" x="251" y="0"/>
</glyph>
<glyph name="uni0411" format="2">
  <advance width="389"/>
  <unicode hex="0411"/>
  <outline>
    <contour>
      <point x="60" y="0" type="line"/>
      <point x="147" y="0" type="line"/>
      <point x="147" y="680" type="line"/>
      <point x="60" y="680" type="line"/>
    </contour>
    <contour>
      <point x="89" y="590" type="line"/>
      <point x="321" y="590" type="line"/>
      <point x="321" y="680" type="line"/>
      <point x="89" y="680" type="line"/>
    </contour>
    <contour>
      <point x="89" y="0" type="line"/>
      <point x="201" y="0" type="line" smooth="yes"/>
      <point x="318" y="0"/>
      <point x="361" y="80"/>
      <point x="361" y="206" type="curve" smooth="yes"/>
      <point x="361" y="341"/>
      <point x="323" y="404"/>
      <point x="201" y="404" type="curve" smooth="yes"/>
      <point x="89" y="404" type="line"/>
      <point x="89" y="315" type="line"/>
      <point x="197" y="315" type="line" smooth="yes"/>
      <point x="259" y="315"/>
      <point x="273" y="270"/>
      <point x="273" y="206" type="curve" smooth="yes"/>
      <point x="273" y="136"/>
      <point x="261" y="90"/>
      <point x="197" y="90" type="curve" smooth="yes"/>
      <point x="89" y="90" type="line"/>
    </contour>
  </outline>
  <guideline angle="90" x="105" y="0"/>
</glyph>
<glyph name="uni0413" format="2">
  <advance width="407"/>
  <unicode hex="0413"/>
  <outline>
    <contour>
      <point x="60" y="0" type="line"/>
      <point x="152" y="0" type="line"/>
      <point x="152" y="680" type="line"/>
      <point x="60" y="680" type="line"/>
    </contour>
    <contour>
      <point x="104" y="590" type="line"/>
      <point x="384" y="590" type="line"/>
      <point x="384" y="680" type="line"/>
      <point x="104" y="680" type="line"/>
    </contour>
  </outline>
</glyph>
<glyph name="uni0414" format="2">
  <advance width="543"/>
  <unicode hex="0414"/>
  <outline>
    <contour>
      <point x="33" y="-10" type="line"/>
      <point x="120" y="-10"/>
      <point x="198" y="68"/>
      <point x="213" y="370" type="curve" smooth="yes"/>
      <point x="228" y="680" type="line"/>
      <point x="136" y="680" type="line"/>
      <point x="121" y="370" type="line" smooth="yes"/>
      <point x="113" y="206"/>
      <point x="89" y="80"/>
      <point x="33" y="80" type="curve"/>
    </contour>
    <contour>
      <point x="376" y="0" type="line"/>
      <point x="468" y="0" type="line"/>
      <point x="468" y="680" type="line"/>
      <point x="376" y="680" type="line"/>
    </contour>
    <contour>
      <point x="176" y="590" type="line"/>
      <point x="427" y="590" type="line"/>
      <point x="427" y="680" type="line"/>
      <point x="176" y="680" type="line"/>
    </contour>
    <contour>
      <point x="23" y="-140" type="line"/>
      <point x="103" y="-140" type="line"/>
      <point x="103" y="0" type="line"/>
      <point x="445" y="0" type="line"/>
      <point x="445" y="-140" type="line"/>
      <point x="525" y="-140" type="line"/>
      <point x="525" y="90" type="line"/>
      <point x="23" y="90" type="line"/>
    </contour>
  </outline>
</glyph>
<glyph name="uni0416" format="2">
  <advance width="708"/>
  <unicode hex="0416"/>
  <outline>
    <contour>
      <point x="308" y="0" type="line"/>
      <point x="400" y="0" type="line"/>
      <point x="400" y="680" type="line"/>
      <point x="308" y="680" type="line"/>
    </contour>
    <contour>
      <point x="400" y="308" type="line"/>
      <point x="495" y="308" type="line"/>
      <point x="675" y="680" type="line"/>
      <point x="573" y="680" type="line"/>
      <point x="430" y="385" type="line"/>
      <point x="454" y="398" type="line"/>
      <point x="400" y="398" type="line"/>
    </contour>
    <contour>
      <point x="436" y="325" type="line"/>
      <point x="596" y="0" type="line"/>
      <point x="698" y="0" type="line"/>
      <point x="500" y="405" type="line"/>
    </contour>
    <contour>
      <point x="213" y="308" type="line"/>
      <point x="308" y="308" type="line"/>
      <point x="308" y="398" type="line"/>
      <point x="254" y="398" type="line"/>
      <point x="278" y="385" type="line"/>
      <point x="135" y="680" type="line"/>
      <point x="33" y="680" type="line"/>
    </contour>
    <contour>
      <point x="10" y="0" type="line"/>
      <point x="112" y="0" type="line"/>
      <point x="272" y="325" type="line"/>
      <point x="208" y="405" type="line"/>
    </contour>
  </outline>
</glyph>
<glyph name="uni0418" format="2">
  <advance width="499"/>
  <unicode hex="0418"/>
  <outline>
    <contour>
      <point x="38" y="0" type="line"/>
      <point x="151" y="0" type="line"/>
      <point x="358" y="482" type="line" smooth="yes"/>
      <point x="373" y="517"/>
      <point x="382" y="543"/>
      <point x="391" y="575" type="curve"/>
      <point x="376" y="575" type="line"/>
      <point x="372" y="547"/>
      <point x="368" y="485"/>
      <point x="368" y="458" type="curve" smooth="yes"/>
      <point x="368" y="0" type="line"/>
      <point x="462" y="0" type="line"/>
      <point x="462" y="680" type="line"/>
      <point x="347" y="680" type="line"/>
      <point x="138" y="200" type="line"/>
      <point x="124" y="169"/>
      <point x="114" y="137"/>
      <point x="107" y="108" type="curve"/>
      <point x="123" y="108" type="line"/>
      <point x="127" y="136"/>
      <point x="130" y="174"/>
      <point x="130" y="224" type="curve" smooth="yes"/>
      <point x="130" y="680" type="line"/>
      <point x="38" y="680" type="line"/>
    </contour>
  </outline>
</glyph>
<glyph name="uni041A" format="2">
  <advance width="467"/>
  <unicode hex="041A"/>
  <anchor x="246" y="-40" name="bottom"/>
  <anchor x="240" y="740" name="top"/>
  <outline>
    <contour>
      <point x="60" y="0" type="line"/>
      <point x="152" y="0" type="line"/>
      <point x="152" y="680" type="line"/>
      <point x="60" y="680" type="line"/>
    </contour>
    <contour>
      <point x="152" y="308" type="line"/>
      <point x="247" y="308" type="line"/>
      <point x="427" y="680" type="line"/>
      <point x="325" y="680" type="line"/>
      <point x="182" y="385" type="line"/>
      <point x="206" y="398" type="line"/>
      <point x="152" y="398" type="line"/>
    </contour>
    <contour>
      <point x="188" y="325" type="line"/>
      <point x="348" y="0" type="line"/>
      <point x="450" y="0" type="line"/>
      <point x="252" y="405" type="line"/>
    </contour>
  </outline>
  <guideline angle="0" x="0" y="438"/>
  <guideline angle="0" x="0" y="244"/>
</glyph>
<glyph name="uni041B" format="2">
  <advance width="501"/>
  <unicode hex="041B"/>
  <outline>
    <contour>
      <point x="25" y="-9" type="line"/>
      <point x="41" y="-9" type="line" smooth="yes"/>
      <point x="125" y="-9"/>
      <point x="185" y="83"/>
      <point x="203" y="370" type="curve" smooth="yes"/>
      <point x="221" y="680" type="line"/>
      <point x="125" y="680" type="line"/>
      <point x="109" y="357" type="line" smooth="yes"/>
      <point x="101" y="193"/>
      <point x="88" y="92"/>
      <point x="37" y="92" type="curve" smooth="yes"/>
      <point x="25" y="92" type="line"/>
    </contour>
    <contour>
      <point x="349" y="0" type="line"/>
      <point x="441" y="0" type="line"/>
      <point x="441" y="680" type="line"/>
      <point x="349" y="680" type="line"/>
    </contour>
    <contour>
      <point x="166" y="590" type="line"/>
      <point x="397" y="590" type="line"/>
      <point x="397" y="680" type="line"/>
      <point x="166" y="680" type="line"/>
    </contour>
  </outline>
</glyph>
<glyph name="uni041F" format="2">
  <advance width="502"/>
  <unicode hex="041F"/>
  <outline>
    <contour>
      <point x="60" y="0" type="line"/>
      <point x="152" y="0" type="line"/>
      <point x="152" y="680" type="line"/>
      <point x="60" y="680" type="line"/>
    </contour>
    <contour>
      <point x="350" y="0" type="line"/>
      <point x="442" y="0" type="line"/>
      <point x="442" y="680" type="line"/>
      <point x="350" y="680" type="line"/>
    </contour>
    <contour>
      <point x="80" y="590" type="line"/>
      <point x="422" y="590" type="line"/>
      <point x="422" y="680" type="line"/>
      <point x="80" y="680" type="line"/>
    </contour>
  </outline>
</glyph>
<glyph name="uni0423" format="2">
  <advance width="408"/>
  <unicode hex="0423"/>
  <anchor x="215" y="740" name="top"/>
  <outline>
    <contour>
      <point x="10" y="680" type="line"/>
      <point x="185" y="120" type="line"/>
      <point x="249" y="225" type="line"/>
      <point x="110" y="680" type="line"/>
    </contour>
    <contour>
      <point x="56" y="-9" type="line"/>
      <point x="71" y="-9" type="line" smooth="yes"/>
      <point x="170" y="-9"/>
      <point x="220" y="26"/>
      <point x="263" y="183" type="curve" smooth="yes"/>
      <point x="398" y="680" type="line"/>
      <point x="303" y="680" type="line"/>
      <point x="173" y="194" type="line" smooth="yes"/>
      <point x="149" y="105"/>
      <point x="130" y="92"/>
      <point x="68" y="92" type="curve" smooth="yes"/>
      <point x="56" y="92" type="line"/>
    </contour>
  </outline>
</glyph>
<glyph name="uni0424" format="2">
  <advance width="641"/>
  <unicode hex="0424"/>
  <outline>
    <contour>
      <point x="39" y="349" type="curve" smooth="yes"/>
      <point x="39" y="186"/>
      <point x="108" y="69"/>
      <point x="254" y="69" type="curve" smooth="yes"/>
      <point x="267" y="69"/>
      <point x="294" y="70"/>
      <point x="306" y="73" type="curve"/>
      <point x="306" y="168" type="line"/>
      <point x="287" y="161"/>
      <point x="271" y="158"/>
      <point x="258" y="158" type="curve" smooth="yes"/>
      <point x="161" y="158"/>
      <point x="131" y="270"/>
      <point x="131" y="350" type="curve" smooth="yes"/>
      <point x="131" y="477"/>
      <point x="174" y="541"/>
      <point x="258" y="541" type="curve" smooth="yes"/>
      <point x="271" y="541"/>
      <point x="287" y="538"/>
      <point x="306" y="531" type="curve"/>
      <point x="306" y="625" type="line"/>
      <point x="298" y="627"/>
      <point x="266" y="629"/>
      <point x="258" y="629" type="curve" smooth="yes"/>
      <point x="111" y="629"/>
      <point x="39" y="509"/>
    </contour>
    <contour>
      <point x="275" y="0" type="line"/>
      <point x="367" y="0" type="line"/>
      <point x="367" y="681" type="line"/>
      <point x="275" y="681" type="line"/>
    </contour>
    <contour>
      <point x="335" y="73" type="line"/>
      <point x="341" y="71"/>
      <point x="376" y="69"/>
      <point x="383" y="69" type="curve" smooth="yes"/>
      <point x="531" y="69"/>
      <point x="603" y="189"/>
      <point x="603" y="349" type="curve" smooth="yes"/>
      <point x="603" y="512"/>
      <point x="533" y="629"/>
      <point x="387" y="629" type="curve" smooth="yes"/>
      <point x="380" y="629"/>
      <point x="341" y="627"/>
      <point x="335" y="625" type="curve"/>
      <point x="335" y="530" type="line"/>
      <point x="353" y="537"/>
      <point x="370" y="540"/>
      <point x="383" y="540" type="curve" smooth="yes"/>
      <point x="480" y="540"/>
      <point x="509" y="428"/>
      <point x="509" y="348" type="curve" smooth="yes"/>
      <point x="509" y="221"/>
      <point x="467" y="157"/>
      <point x="383" y="157" type="curve" smooth="yes"/>
      <point x="370" y="157"/>
      <point x="353" y="160"/>
      <point x="335" y="167" type="curve"/>
    </contour>
  </outline>
</glyph>
<glyph name="uni0426" format="2">
  <advance width="512"/>
  <unicode hex="0426"/>
  <outline>
    <contour>
      <point x="60" y="0" type="line"/>
      <point x="152" y="0" type="line"/>
      <point x="152" y="680" type="line"/>
      <point x="60" y="680" type="line"/>
    </contour>
    <contour>
      <point x="333" y="0" type="line"/>
      <point x="425" y="0" type="line"/>
      <point x="425" y="680" type="line"/>
      <point x="333" y="680" type="line"/>
    </contour>
    <contour>
      <point x="110" y="0" type="line"/>
      <point x="375" y="0" type="line"/>
      <point x="375" y="90" type="line"/>
      <point x="110" y="90" type="line"/>
    </contour>
    <contour>
      <point x="425" y="0" type="line"/>
      <point x="405" y="0" type="line"/>
      <point x="405" y="-140" type="line"/>
      <point x="485" y="-140" type="line"/>
      <point x="485" y="90" type="line"/>
      <point x="425" y="90" type="line"/>
    </contour>
  </outline>
</glyph>
<glyph name="uni0428" format="2">
  <advance width="696"/>
  <unicode hex="0428"/>
  <outline>
    <contour>
      <point x="92" y="0" type="line"/>
      <point x="608" y="0" type="line"/>
      <point x="608" y="90" type="line"/>
      <point x="92" y="90" type="line"/>
    </contour>
    <contour>
      <point x="60" y="0" type="line"/>
      <point x="152" y="0" type="line"/>
      <point x="152" y="680" type="line"/>
      <point x="60" y="680" type="line"/>
    </contour>
    <contour>
      <point x="302" y="0" type="line"/>
      <point x="394" y="0" type="line"/>
      <point x="394" y="680" type="line"/>
      <point x="302" y="680" type="line"/>
    </contour>
    <contour>
      <point x="544" y="0" type="line"/>
      <point x="636" y="0" type="line"/>
      <point x="636" y="680" type="line"/>
      <point x="544" y="680" type="line"/>
    </contour>
  </outline>
</glyph>
<glyph name="uni0429" format="2">
  <advance width="728"/>
  <unicode hex="0429"/>
  <outline>
    <contour>
      <point x="92" y="0" type="line"/>
      <point x="606" y="0" type="line"/>
      <point x="606" y="90" type="line"/>
      <point x="92" y="90" type="line"/>
    </contour>
    <contour>
      <point x="587" y="0" type="line"/>
      <point x="621" y="0" type="line"/>
      <point x="621" y="-140" type="line"/>
      <point x="699" y="-140" type="line"/>
      <point x="699" y="90" type="line"/>
      <point x="587" y="90" type="line"/>
    </contour>
    <contour>
      <point x="60" y="0" type="line"/>
      <point x="152" y="0" type="line"/>
      <point x="152" y="680" type="line"/>
      <point x="60" y="680" type="line"/>
    </contour>
    <contour>
      <point x="300" y="0" type="line"/>
      <point x="392" y="0" type="line"/>
      <point x="392" y="680" type="line"/>
      <point x="300" y="680" type="line"/>
    </contour>
    <contour>
      <point x="540" y="0" type="line"/>
      <point x="632" y="0" type="line"/>
      <point x="632" y="680" type="line"/>
      <point x="540" y="680" type="line"/>
    </contour>
  </outline>
</glyph>
<glyph name="uni042A" format="2">
  <advance width="548"/>
  <unicode hex="042A"/>
  <anchor x="273" y="740" name="top"/>
  <outline>
    <contour>
      <point x="152" y="0" type="line"/>
      <point x="244" y="0" type="line"/>
      <point x="244" y="680" type="line"/>
      <point x="152" y="680" type="line"/>
    </contour>
    <contour>
      <point x="38" y="590" type="line"/>
      <point x="206" y="590" type="line"/>
      <point x="206" y="680" type="line"/>
      <point x="38" y="680" type="line"/>
    </contour>
    <contour>
      <point x="203" y="0" type="line"/>
      <point x="309" y="0" type="line" smooth="yes"/>
      <point x="424" y="0"/>
      <point x="500" y="82"/>
      <point x="500" y="206" type="curve" smooth="yes"/>
      <point x="500" y="325"/>
      <point x="424" y="404"/>
      <point x="309" y="404" type="curve" smooth="yes"/>
      <point x="203" y="404" type="line"/>
      <point x="203" y="314" type="line"/>
      <point x="305" y="314" type="line" smooth="yes"/>
      <point x="367" y="314"/>
      <point x="408" y="271"/>
      <point x="408" y="206" type="curve" smooth="yes"/>
      <point x="408" y="136"/>
      <point x="367" y="90"/>
      <point x="305" y="90" type="curve" smooth="yes"/>
      <point x="203" y="90" type="line"/>
    </contour>
  </outline>
</glyph>
<glyph name="uni042B" format="2">
  <advance width="662"/>
  <unicode hex="042B"/>
  <anchor x="323" y="740" name="top"/>
  <outline>
    <contour>
      <point x="510" y="0" type="line"/>
      <point x="602" y="0" type="line"/>
      <point x="602" y="680" type="line"/>
      <point x="510" y="680" type="line"/>
    </contour>
    <contour>
      <point x="108" y="0" type="line"/>
      <point x="237" y="0" type="line" smooth="yes"/>
      <point x="356" y="0"/>
      <point x="435" y="88"/>
      <point x="435" y="221" type="curve" smooth="yes"/>
      <point x="435" y="349"/>
      <point x="355" y="434"/>
      <point x="235" y="434" type="curve" smooth="yes"/>
      <point x="108" y="434" type="line"/>
      <point x="108" y="344" type="line"/>
      <point x="230" y="344" type="line" smooth="yes"/>
      <point x="298" y="344"/>
      <point x="343" y="295"/>
      <point x="343" y="221" type="curve" smooth="yes"/>
      <point x="343" y="142"/>
      <point x="298" y="90"/>
      <point x="230" y="90" type="curve" smooth="yes"/>
      <point x="108" y="90" type="line"/>
    </contour>
    <contour>
      <point x="60" y="0" type="line"/>
      <point x="152" y="0" type="line"/>
      <point x="152" y="680" type="line"/>
      <point x="60" y="680" type="line"/>
    </contour>
  </outline>
</glyph>
<glyph name="uni042C" format="2">
  <advance width="483"/>
  <unicode hex="042C"/>
  <outline>
    <contour>
      <point x="108" y="0" type="line"/>
      <point x="237" y="0" type="line" smooth="yes"/>
      <point x="356" y="0"/>
      <point x="435" y="88"/>
      <point x="435" y="221" type="curve" smooth="yes"/>
      <point x="435" y="349"/>
      <point x="355" y="434"/>
      <point x="235" y="434" type="curve" smooth="yes"/>
      <point x="108" y="434" type="line"/>
      <point x="108" y="344" type="line"/>
      <point x="230" y="344" type="line" smooth="yes"/>
      <point x="298" y="344"/>
      <point x="343" y="295"/>
      <point x="343" y="221" type="curve" smooth="yes"/>
      <point x="343" y="142"/>
      <point x="298" y="90"/>
      <point x="230" y="90" type="curve" smooth="yes"/>
      <point x="108" y="90" type="line"/>
    </contour>
    <contour>
      <point x="60" y="0" type="line"/>
      <point x="152" y="0" type="line"/>
      <point x="152" y="680" type="line"/>
      <point x="60" y="680" type="line"/>
    </contour>
  </outline>
</glyph>
<glyph name="uni042D" format="2">
  <advance width="524"/>
  <unicode hex="042D"/>
  <anchor x="269" y="740" name="top"/>
  <outline>
    <contour>
      <point x="48" y="187" type="line"/>
      <point x="78" y="59"/>
      <point x="152" y="-12"/>
      <point x="253" y="-12" type="curve" smooth="yes"/>
      <point x="387" y="-12"/>
      <point x="476" y="119"/>
      <point x="476" y="356" type="curve" smooth="yes"/>
      <point x="476" y="593"/>
      <point x="389" y="692"/>
      <point x="263" y="692" type="curve" smooth="yes"/>
      <point x="144" y="692"/>
      <point x="67" y="603"/>
      <point x="48" y="477" type="curve"/>
      <point x="138" y="477" type="line"/>
      <point x="148" y="548"/>
      <point x="189" y="602"/>
      <point x="261" y="602" type="curve" smooth="yes"/>
      <point x="335" y="602"/>
      <point x="384" y="546"/>
      <point x="384" y="354" type="curve" smooth="yes"/>
      <point x="384" y="162"/>
      <point x="330" y="78"/>
      <point x="256" y="78" type="curve" smooth="yes"/>
      <point x="206" y="78"/>
      <point x="166" y="116"/>
      <point x="141" y="187" type="curve"/>
    </contour>
    <contour>
      <point x="220" y="312" type="line"/>
      <point x="400" y="312" type="line"/>
      <point x="400" y="402" type="line"/>
      <point x="220" y="402" type="line"/>
    </contour>
  </outline>
</glyph>
<glyph name="uni042E" format="2">
  <advance width="695"/>
  <unicode hex="042E"/>
  <anchor x="323" y="740" name="top"/>
  <outline>
    <contour>
      <point x="126" y="302" type="line"/>
      <point x="240" y="302" type="line"/>
      <point x="240" y="392" type="line"/>
      <point x="126" y="392" type="line"/>
    </contour>
    <contour>
      <point x="208" y="340" type="curve" smooth="yes"/>
      <point x="208" y="80"/>
      <point x="266" y="-12"/>
      <point x="423" y="-12" type="curve" smooth="yes"/>
      <point x="580" y="-12"/>
      <point x="647" y="80"/>
      <point x="647" y="340" type="curve" smooth="yes"/>
      <point x="647" y="600"/>
      <point x="574" y="692"/>
      <point x="423" y="692" type="curve" smooth="yes"/>
      <point x="272" y="692"/>
      <point x="208" y="600"/>
    </contour>
    <contour>
      <point x="302" y="340" type="curve" smooth="yes"/>
      <point x="302" y="540"/>
      <point x="340" y="602"/>
      <point x="423" y="602" type="curve" smooth="yes"/>
      <point x="506" y="602"/>
      <point x="552" y="540"/>
      <point x="552" y="340" type="curve" smooth="yes"/>
      <point x="552" y="140"/>
      <point x="507" y="78"/>
      <point x="423" y="78" type="curve" smooth="yes"/>
      <point x="339" y="78"/>
      <point x="302" y="140"/>
    </contour>
    <contour>
      <point x="60" y="0" type="line"/>
      <point x="152" y="0" type="line"/>
      <point x="152" y="680" type="line"/>
      <point x="60" y="680" type="line"/>
    </contour>
  </outline>
</glyph>
<glyph name="uni042F" format="2">
  <advance width="477"/>
  <unicode hex="042F"/>
  <anchor x="246" y="740" name="top"/>
  <outline>
    <contour>
      <point x="39" y="474" type="curve" smooth="yes"/>
      <point x="39" y="363"/>
      <point x="112" y="276"/>
      <point x="206" y="276" type="curve" smooth="yes"/>
      <point x="359" y="276" type="line"/>
      <point x="359" y="366" type="line"/>
      <point x="230" y="366" type="line" smooth="yes"/>
      <point x="167" y="366"/>
      <point x="131" y="405"/>
      <point x="131" y="474" type="curve" smooth="yes"/>
      <point x="131" y="545"/>
      <point x="179" y="590"/>
      <point x="254" y="590" type="curve" smooth="yes"/>
      <point x="414" y="590" type="line"/>
      <point x="414" y="680" type="line"/>
      <point x="230" y="680" type="line" smooth="yes"/>
      <point x="112" y="680"/>
      <point x="39" y="602"/>
    </contour>
    <contour>
      <point x="39" y="0" type="line"/>
      <point x="146" y="0" type="line"/>
      <point x="257" y="292" type="line"/>
      <point x="157" y="292" type="line"/>
    </contour>
    <contour>
      <point x="325" y="0" type="line"/>
      <point x="417" y="0" type="line"/>
      <point x="417" y="680" type="line"/>
      <point x="325" y="680" type="line"/>
    </contour>
  </outline>
</glyph>
<glyph name="uni0432" format="2">
  <advance width="410"/>
  <unicode hex="0432"/>
  <outline>
    <contour>
      <point x="66" y="0" type="line"/>
      <point x="152" y="0" type="line"/>
      <point x="152" y="460" type="line"/>
      <point x="66" y="460" type="line"/>
    </contour>
    <contour>
      <point x="104" y="0" type="line"/>
      <point x="238" y="0" type="line" smooth="yes"/>
      <point x="325" y="0"/>
      <point x="370" y="66"/>
      <point x="370" y="139" type="curve" smooth="yes"/>
      <point x="370" y="256"/>
      <point x="291" y="272"/>
      <point x="219" y="272" type="curve" smooth="yes"/>
      <point x="104" y="272" type="line"/>
      <point x="104" y="200" type="line"/>
      <point x="232" y="200" type="line" smooth="yes"/>
      <point x="265" y="200"/>
      <point x="284" y="171"/>
      <point x="284" y="138" type="curve" smooth="yes"/>
      <point x="284" y="96"/>
      <point x="267" y="72"/>
      <point x="232" y="72" type="curve" smooth="yes"/>
      <point x="104" y="72" type="line"/>
    </contour>
    <contour>
      <point x="104" y="388" type="line"/>
      <point x="219" y="388" type="line" smooth="yes"/>
      <point x="249" y="388"/>
      <point x="270" y="363"/>
      <point x="270" y="329" type="curve" smooth="yes"/>
      <point x="270" y="281"/>
      <point x="243" y="272"/>
      <point x="216" y="272" type="curve" smooth="yes"/>
      <point x="196" y="272" type="line"/>
      <point x="196" y="238" type="line"/>
      <point x="301" y="238" type="line"/>
      <point x="340" y="268"/>
      <point x="356" y="303"/>
      <point x="356" y="344" type="curve" smooth="yes"/>
      <point x="356" y="408"/>
      <point x="317" y="460"/>
      <point x="224" y="460" type="curve" smooth="yes"/>
      <point x="104" y="460" type="line"/>
    </contour>
  </outline>
</glyph>
<glyph name="uni0434" format="2">
  <advance width="417"/>
  <unicode hex="0434"/>
  <outline>
    <contour>
      <point x="21" y="-140" type="line"/>
      <point x="95" y="-140" type="line"/>
      <point x="103" y="0" type="line"/>
      <point x="323" y="0" type="line"/>
      <point x="330" y="-140" type="line"/>
      <point x="404" y="-140" type="line"/>
      <point x="404" y="76" type="line"/>
      <point x="21" y="76" type="line"/>
    </contour>
    <contour>
      <point x="28" y="45" type="line"/>
      <point x="59" y="45" type="line" smooth="yes"/>
      <point x="109" y="45"/>
      <point x="157" y="71"/>
      <point x="161" y="148" type="curve" smooth="yes"/>
      <point x="176" y="460" type="line"/>
      <point x="93" y="460" type="line"/>
      <point x="85" y="290" type="line" smooth="yes"/>
      <point x="76" y="92"/>
      <point x="61" y="76"/>
      <point x="28" y="76" type="curve"/>
    </contour>
    <contour>
      <point x="113" y="384" type="line"/>
      <point x="319" y="384" type="line"/>
      <point x="319" y="460" type="line"/>
      <point x="113" y="460" type="line"/>
    </contour>
    <contour>
      <point x="279" y="0" type="line"/>
      <point x="365" y="0" type="line"/>
      <point x="365" y="460" type="line"/>
      <point x="279" y="460" type="line"/>
    </contour>
  </outline>
  <guideline angle="87.3281" x="169" y="310"/>
</glyph>
<glyph name="uni0436" format="2">
  <advance width="572"/>
  <unicode hex="0436"/>
  <outline>
    <contour>
      <point x="243" y="0" type="line"/>
      <point x="329" y="0" type="line"/>
      <point x="329" y="460" type="line"/>
      <point x="243" y="460" type="line"/>
    </contour>
    <contour>
      <point x="329" y="222" type="line"/>
      <point x="398" y="222" type="line"/>
      <point x="526" y="460" type="line"/>
      <point x="428" y="460" type="line"/>
      <point x="335" y="285" type="line"/>
      <point x="358" y="298" type="line"/>
      <point x="329" y="298" type="line"/>
    </contour>
    <contour>
      <point x="342" y="225" type="line"/>
      <point x="458" y="0" type="line"/>
      <point x="553" y="0" type="line"/>
      <point x="396" y="312" type="line"/>
    </contour>
    <contour>
      <point x="174" y="222" type="line"/>
      <point x="243" y="222" type="line"/>
      <point x="243" y="298" type="line"/>
      <point x="214" y="298" type="line"/>
      <point x="237" y="285" type="line"/>
      <point x="144" y="460" type="line"/>
      <point x="46" y="460" type="line"/>
    </contour>
    <contour>
      <point x="19" y="0" type="line"/>
      <point x="114" y="0" type="line"/>
      <point x="230" y="225" type="line"/>
      <point x="176" y="312" type="line"/>
    </contour>
  </outline>
</glyph>
<glyph name="uni0437" format="2">
  <advance width="398"/>
  <unicode hex="0437"/>
  <outline>
    <contour>
      <point x="40" y="151" type="line"/>
      <point x="50" y="51"/>
      <point x="111" y="-11"/>
      <point x="201" y="-11" type="curve" smooth="yes"/>
      <point x="293" y="-11"/>
      <point x="358" y="52"/>
      <point x="358" y="140" type="curve" smooth="yes"/>
      <point x="358" y="196"/>
      <point x="329" y="238"/>
      <point x="275" y="259" type="curve"/>
      <point x="272" y="239" type="line"/>
      <point x="325" y="262"/>
      <point x="349" y="293"/>
      <point x="349" y="338" type="curve" smooth="yes"/>
      <point x="349" y="416"/>
      <point x="287" y="471"/>
      <point x="201" y="471" type="curve" smooth="yes"/>
      <point x="117" y="471"/>
      <point x="49" y="407"/>
      <point x="40" y="319" type="curve"/>
      <point x="131" y="319" type="line"/>
      <point x="137" y="359"/>
      <point x="164" y="386"/>
      <point x="199" y="386" type="curve" smooth="yes"/>
      <point x="240" y="386"/>
      <point x="263" y="365"/>
      <point x="263" y="328" type="curve" smooth="yes"/>
      <point x="263" y="294"/>
      <point x="246" y="276"/>
      <point x="214" y="276" type="curve" smooth="yes"/>
      <point x="158" y="276" type="line"/>
      <point x="158" y="207" type="line"/>
      <point x="216" y="207" type="line" smooth="yes"/>
      <point x="255" y="207"/>
      <point x="272" y="187"/>
      <point x="272" y="140" type="curve" smooth="yes"/>
      <point x="272" y="100"/>
      <point x="244" y="74"/>
      <point x="200" y="74" type="curve" smooth="yes"/>
      <point x="159" y="74"/>
      <point x="132" y="103"/>
      <point x="128" y="151" type="curve"/>
    </contour>
  </outline>
</glyph>
<glyph name="uni0438" format="2">
  <advance width="451"/>
  <unicode hex="0438"/>
  <anchor x="225" y="540" name="top"/>
  <outline>
    <contour>
      <point x="66" y="0" type="line"/>
      <point x="151" y="0" type="line"/>
      <point x="284" y="266" type="line"/>
      <point x="289" y="277"/>
      <point x="295" y="290"/>
      <point x="299" y="300" type="curve"/>
      <point x="294" y="298" type="line"/>
      <point x="304" y="298" type="line"/>
      <point x="300" y="300" type="line"/>
      <point x="299" y="290"/>
      <point x="299" y="277"/>
      <point x="299" y="266" type="curve" smooth="yes"/>
      <point x="299" y="0" type="line"/>
      <point x="385" y="0" type="line"/>
      <point x="385" y="460" type="line"/>
      <point x="300" y="460" type="line"/>
      <point x="167" y="194" type="line"/>
      <point x="162" y="183"/>
      <point x="157" y="172"/>
      <point x="152" y="160" type="curve"/>
      <point x="157" y="162" type="line"/>
      <point x="147" y="162" type="line"/>
      <point x="151" y="160" type="line"/>
      <point x="152" y="171"/>
      <point x="152" y="183"/>
      <point x="152" y="194" type="curve" smooth="yes"/>
      <point x="152" y="460" type="line"/>
      <point x="66" y="460" type="line"/>
    </contour>
  </outline>
</glyph>
<glyph name="uni043A" format="2">
  <advance width="395"/>
  <unicode hex="043A"/>
  <outline>
    <contour>
      <point x="66" y="0" type="line"/>
      <point x="152" y="0" type="line"/>
      <point x="152" y="460" type="line"/>
      <point x="66" y="460" type="line"/>
    </contour>
    <contour>
      <point x="152" y="222" type="line"/>
      <point x="221" y="222" type="line"/>
      <point x="349" y="460" type="line"/>
      <point x="251" y="460" type="line"/>
      <point x="158" y="285" type="line"/>
      <point x="181" y="298" type="line"/>
      <point x="152" y="298" type="line"/>
    </contour>
    <contour>
      <point x="165" y="225" type="line"/>
      <point x="281" y="0" type="line"/>
      <point x="376" y="0" type="line"/>
      <point x="219" y="312" type="line"/>
    </contour>
  </outline>
</glyph>
<glyph name="uni043B" format="2">
  <advance width="417"/>
  <unicode hex="043B"/>
  <outline>
    <contour>
      <point x="14" y="-10" type="line"/>
      <point x="45" y="-10" type="line" smooth="yes"/>
      <point x="102" y="-10"/>
      <point x="143" y="53"/>
      <point x="148" y="147" type="curve" smooth="yes"/>
      <point x="163" y="460" type="line"/>
      <point x="79" y="460" type="line"/>
      <point x="65" y="148" type="line" smooth="yes"/>
      <point x="63" y="98"/>
      <point x="43" y="67"/>
      <point x="14" y="67" type="curve"/>
    </contour>
    <contour>
      <point x="101" y="384" type="line"/>
      <point x="303" y="384" type="line"/>
      <point x="303" y="460" type="line"/>
      <point x="101" y="460" type="line"/>
    </contour>
    <contour>
      <point x="265" y="0" type="line"/>
      <point x="351" y="0" type="line"/>
      <point x="351" y="460" type="line"/>
      <point x="265" y="460" type="line"/>
    </contour>
  </outline>
  <guideline angle="87.3281" x="156" y="310"/>
  <guideline angle="267.306" x="79" y="460"/>
  <guideline angle="266.955" x="148" y="147"/>
</glyph>
<glyph name="uni043C" format="2">
  <advance width="536"/>
  <unicode hex="043C"/>
  <outline>
    <contour>
      <point x="66" y="0" type="line"/>
      <point x="152" y="0" type="line"/>
      <point x="152" y="249" type="line" smooth="yes"/>
      <point x="152" y="276"/>
      <point x="151" y="293"/>
      <point x="149" y="313" type="curve"/>
      <point x="137" y="293" type="line"/>
      <point x="166" y="293" type="line"/>
      <point x="151" y="313" type="line"/>
      <point x="152" y="293"/>
      <point x="153" y="276"/>
      <point x="161" y="249" type="curve" smooth="yes"/>
      <point x="231" y="0" type="line"/>
      <point x="305" y="0" type="line"/>
      <point x="375" y="249" type="line" smooth="yes"/>
      <point x="383" y="276"/>
      <point x="385" y="293"/>
      <point x="388" y="313" type="curve"/>
      <point x="373" y="293" type="line"/>
      <point x="402" y="293" type="line"/>
      <point x="390" y="313" type="line"/>
      <point x="386" y="293"/>
      <point x="384" y="276"/>
      <point x="384" y="249" type="curve" smooth="yes"/>
      <point x="384" y="0" type="line"/>
      <point x="470" y="0" type="line"/>
      <point x="470" y="460" type="line"/>
      <point x="346" y="460" type="line"/>
      <point x="278" y="210" type="line" smooth="yes"/>
      <point x="271" y="186"/>
      <point x="269" y="161"/>
      <point x="269" y="134" type="curve"/>
      <point x="278" y="145" type="line"/>
      <point x="257" y="145" type="line"/>
      <point x="267" y="134" type="line"/>
      <point x="267" y="161"/>
      <point x="265" y="186"/>
      <point x="258" y="210" type="curve" smooth="yes"/>
      <point x="190" y="460" type="line"/>
      <point x="66" y="460" type="line"/>
    </contour>
  </outline>
  <guideline angle="90" x="66" y="0"/>
  <guideline angle="90" x="470" y="0"/>
  <guideline angle="90" x="268" y="0"/>
  <guideline angle="0" x="0" y="234"/>
  <guideline angle="0" x="0" y="162"/>
  <guideline angle="0" x="0" y="286"/>
  <guideline angle="0" x="0" y="330"/>
  <guideline angle="0" x="0" y="313"/>
  <guideline angle="0" x="0" y="350"/>
</glyph>
<glyph name="uni043D" format="2">
  <advance width="439"/>
  <unicode hex="043D"/>
  <outline>
    <contour>
      <point x="66" y="0" type="line"/>
      <point x="152" y="0" type="line"/>
      <point x="152" y="460" type="line"/>
      <point x="66" y="460" type="line"/>
    </contour>
    <contour>
      <point x="98" y="202" type="line"/>
      <point x="334" y="202" type="line"/>
      <point x="334" y="278" type="line"/>
      <point x="98" y="278" type="line"/>
    </contour>
    <contour>
      <point x="287" y="0" type="line"/>
      <point x="373" y="0" type="line"/>
      <point x="373" y="460" type="line"/>
      <point x="287" y="460" type="line"/>
    </contour>
  </outline>
</glyph>
<glyph name="uni043F" format="2">
  <advance width="424"/>
  <unicode hex="043F"/>
  <outline>
    <contour>
      <point x="96" y="384" type="line"/>
      <point x="320" y="384" type="line"/>
      <point x="320" y="460" type="line"/>
      <point x="96" y="460" type="line"/>
    </contour>
    <contour>
      <point x="66" y="0" type="line"/>
      <point x="152" y="0" type="line"/>
      <point x="152" y="460" type="line"/>
      <point x="66" y="460" type="line"/>
    </contour>
    <contour>
      <point x="272" y="0" type="line"/>
      <point x="358" y="0" type="line"/>
      <point x="358" y="460" type="line"/>
      <point x="272" y="460" type="line"/>
    </contour>
  </outline>
</glyph>
<glyph name="uni0442" format="2">
  <advance width="338"/>
  <unicode hex="0442"/>
  <outline>
    <contour>
      <point x="127" y="0" type="line"/>
      <point x="213" y="0" type="line"/>
      <point x="213" y="460" type="line"/>
      <point x="127" y="460" type="line"/>
    </contour>
    <contour>
      <point x="22" y="384" type="line"/>
      <point x="319" y="384" type="line"/>
      <point x="319" y="460" type="line"/>
      <point x="22" y="460" type="line"/>
    </contour>
  </outline>
</glyph>
<glyph name="uni0444" format="2">
  <advance width="574"/>
  <unicode hex="0444"/>
  <outline>
    <contour>
      <point x="244" y="-200" type="line"/>
      <point x="330" y="-200" type="line"/>
      <point x="330" y="5" type="line"/>
      <point x="326" y="57" type="line"/>
      <point x="326" y="410" type="line"/>
      <point x="330" y="454" type="line"/>
      <point x="330" y="700" type="line"/>
      <point x="244" y="700" type="line"/>
      <point x="244" y="454" type="line"/>
      <point x="248" y="410" type="line"/>
      <point x="248" y="57" type="line"/>
      <point x="244" y="5" type="line"/>
    </contour>
    <contour>
      <point x="324" y="-12" type="line"/>
      <point x="453" y="-7"/>
      <point x="534" y="86"/>
      <point x="534" y="230" type="curve" smooth="yes"/>
      <point x="534" y="374"/>
      <point x="453" y="467"/>
      <point x="324" y="472" type="curve"/>
      <point x="324" y="391" type="line"/>
      <point x="407" y="388"/>
      <point x="448" y="335"/>
      <point x="448" y="230" type="curve" smooth="yes"/>
      <point x="448" y="123"/>
      <point x="409" y="72"/>
      <point x="324" y="69" type="curve"/>
    </contour>
    <contour>
      <point x="40" y="230" type="curve" smooth="yes"/>
      <point x="40" y="86"/>
      <point x="121" y="-7"/>
      <point x="250" y="-12" type="curve"/>
      <point x="250" y="69" type="line"/>
      <point x="166" y="72"/>
      <point x="126" y="123"/>
      <point x="126" y="230" type="curve" smooth="yes"/>
      <point x="126" y="335"/>
      <point x="167" y="388"/>
      <point x="250" y="391" type="curve"/>
      <point x="250" y="472" type="line"/>
      <point x="121" y="467"/>
      <point x="40" y="374"/>
    </contour>
  </outline>
</glyph>
<glyph name="uni0446" format="2">
  <advance width="415"/>
  <unicode hex="0446"/>
  <outline>
    <contour>
      <point x="66" y="0" type="line"/>
      <point x="152" y="0" type="line"/>
      <point x="152" y="460" type="line"/>
      <point x="66" y="460" type="line"/>
    </contour>
    <contour>
      <point x="274" y="0" type="line"/>
      <point x="360" y="0" type="line"/>
      <point x="360" y="460" type="line"/>
      <point x="274" y="460" type="line"/>
    </contour>
    <contour>
      <point x="104" y="0" type="line"/>
      <point x="316" y="0" type="line"/>
      <point x="316" y="76" type="line"/>
      <point x="104" y="76" type="line"/>
    </contour>
    <contour>
      <point x="360" y="0" type="line"/>
      <point x="333" y="0" type="line"/>
      <point x="333" y="-140" type="line"/>
      <point x="413" y="-140" type="line"/>
      <point x="413" y="76" type="line"/>
      <point x="360" y="76" type="line"/>
    </contour>
  </outline>
</glyph>
<glyph name="uni0447" format="2">
  <advance width="426"/>
  <unicode hex="0447"/>
  <outline>
    <contour>
      <point x="66" y="273" type="line" smooth="yes"/>
      <point x="66" y="193"/>
      <point x="113" y="140"/>
      <point x="184" y="140" type="curve" smooth="yes"/>
      <point x="226" y="140"/>
      <point x="284" y="161"/>
      <point x="312" y="179" type="curve"/>
      <point x="307" y="266" type="line"/>
      <point x="289" y="252"/>
      <point x="249" y="226"/>
      <point x="210" y="226" type="curve" smooth="yes"/>
      <point x="175" y="226"/>
      <point x="152" y="254"/>
      <point x="152" y="295" type="curve" smooth="yes"/>
      <point x="152" y="460" type="line"/>
      <point x="66" y="460" type="line"/>
    </contour>
    <contour>
      <point x="274" y="0" type="line"/>
      <point x="360" y="0" type="line"/>
      <point x="360" y="460" type="line"/>
      <point x="274" y="460" type="line"/>
    </contour>
  </outline>
</glyph>
<glyph name="uni0448" format="2">
  <advance width="618"/>
  <unicode hex="0448"/>
  <outline>
    <contour>
      <point x="66" y="0" type="line"/>
      <point x="152" y="0" type="line"/>
      <point x="152" y="460" type="line"/>
      <point x="66" y="460" type="line"/>
    </contour>
    <contour>
      <point x="116" y="0" type="line"/>
      <point x="513" y="0" type="line"/>
      <point x="513" y="76" type="line"/>
      <point x="116" y="76" type="line"/>
    </contour>
    <contour>
      <point x="266" y="0" type="line"/>
      <point x="352" y="0" type="line"/>
      <point x="352" y="460" type="line"/>
      <point x="266" y="460" type="line"/>
    </contour>
    <contour>
      <point x="466" y="0" type="line"/>
      <point x="552" y="0" type="line"/>
      <point x="552" y="460" type="line"/>
      <point x="466" y="460" type="line"/>
    </contour>
  </outline>
</glyph>
<glyph name="uni0449" format="2">
  <advance width="681"/>
  <unicode hex="0449"/>
  <outline>
    <contour>
      <point x="106" y="0" type="line"/>
      <point x="544" y="0" type="line"/>
      <point x="544" y="76" type="line"/>
      <point x="106" y="76" type="line"/>
    </contour>
    <contour>
      <point x="507" y="0" type="line"/>
      <point x="539" y="0" type="line"/>
      <point x="546" y="-140" type="line"/>
      <point x="615" y="-140" type="line"/>
      <point x="615" y="76" type="line"/>
      <point x="507" y="76" type="line"/>
    </contour>
    <contour>
      <point x="66" y="0" type="line"/>
      <point x="152" y="0" type="line"/>
      <point x="152" y="460" type="line"/>
      <point x="66" y="460" type="line"/>
    </contour>
    <contour>
      <point x="266" y="0" type="line"/>
      <point x="352" y="0" type="line"/>
      <point x="352" y="460" type="line"/>
      <point x="266" y="460" type="line"/>
    </contour>
    <contour>
      <point x="467" y="0" type="line"/>
      <point x="553" y="0" type="line"/>
      <point x="553" y="460" type="line"/>
      <point x="467" y="460" type="line"/>
    </contour>
  </outline>
</glyph>
<glyph name="uni044A" format="2">
  <advance width="419"/>
  <unicode hex="044A"/>
  <anchor x="206" y="540" name="top"/>
  <outline>
    <contour>
      <point x="12" y="388" type="line"/>
      <point x="166" y="388" type="line"/>
      <point x="166" y="460" type="line"/>
      <point x="12" y="460" type="line"/>
    </contour>
    <contour>
      <point x="89" y="0" type="line"/>
      <point x="175" y="0" type="line"/>
      <point x="175" y="460" type="line"/>
      <point x="89" y="460" type="line"/>
    </contour>
    <contour>
      <point x="130" y="0" type="line"/>
      <point x="233" y="0" type="line" smooth="yes"/>
      <point x="325" y="0"/>
      <point x="379" y="48"/>
      <point x="379" y="144" type="curve" smooth="yes"/>
      <point x="379" y="243"/>
      <point x="323" y="296"/>
      <point x="233" y="296" type="curve" smooth="yes"/>
      <point x="130" y="296" type="line"/>
      <point x="130" y="224" type="line"/>
      <point x="227" y="224" type="line" smooth="yes"/>
      <point x="267" y="224"/>
      <point x="293" y="192"/>
      <point x="293" y="146" type="curve" smooth="yes"/>
      <point x="293" y="101"/>
      <point x="267" y="72"/>
      <point x="227" y="72" type="curve" smooth="yes"/>
      <point x="130" y="72" type="line"/>
    </contour>
  </outline>
</glyph>
<glyph name="uni044B" format="2">
  <advance width="547"/>
  <unicode hex="044B"/>
  <anchor x="275" y="540" name="top"/>
  <outline>
    <contour>
      <point x="66" y="0" type="line"/>
      <point x="152" y="0" type="line"/>
      <point x="152" y="460" type="line"/>
      <point x="66" y="460" type="line"/>
    </contour>
    <contour>
      <point x="108" y="0" type="line"/>
      <point x="218" y="0" type="line" smooth="yes"/>
      <point x="329" y="0"/>
      <point x="357" y="69"/>
      <point x="357" y="144" type="curve" smooth="yes"/>
      <point x="357" y="219"/>
      <point x="329" y="296"/>
      <point x="218" y="296" type="curve" smooth="yes"/>
      <point x="108" y="296" type="line"/>
      <point x="108" y="224" type="line"/>
      <point x="215" y="224" type="line" smooth="yes"/>
      <point x="257" y="224"/>
      <point x="271" y="191"/>
      <point x="271" y="144" type="curve" smooth="yes"/>
      <point x="271" y="101"/>
      <point x="257" y="72"/>
      <point x="215" y="72" type="curve" smooth="yes"/>
      <point x="108" y="72" type="line"/>
    </contour>
    <contour>
      <point x="395" y="0" type="line"/>
      <point x="481" y="0" type="line"/>
      <point x="481" y="460" type="line"/>
      <point x="395" y="460" type="line"/>
    </contour>
  </outline>
</glyph>
<glyph name="uni044C" format="2">
  <advance width="396"/>
  <unicode hex="044C"/>
  <outline>
    <contour>
      <point x="66" y="0" type="line"/>
      <point x="152" y="0" type="line"/>
      <point x="152" y="460" type="line"/>
      <point x="66" y="460" type="line"/>
    </contour>
    <contour>
      <point x="107" y="0" type="line"/>
      <point x="210" y="0" type="line" smooth="yes"/>
      <point x="302" y="0"/>
      <point x="356" y="48"/>
      <point x="356" y="144" type="curve" smooth="yes"/>
      <point x="356" y="243"/>
      <point x="300" y="296"/>
      <point x="210" y="296" type="curve" smooth="yes"/>
      <point x="107" y="296" type="line"/>
      <point x="107" y="224" type="line"/>
      <point x="204" y="224" type="line" smooth="yes"/>
      <point x="244" y="224"/>
      <point x="270" y="192"/>
      <point x="270" y="146" type="curve" smooth="yes"/>
      <point x="270" y="101"/>
      <point x="244" y="72"/>
      <point x="204" y="72" type="curve" smooth="yes"/>
      <point x="107" y="72" type="line"/>
    </contour>
  </outline>
</glyph>
<glyph name="uni044D" format="2">
  <advance width="391"/>
  <unicode hex="044D"/>
  <anchor x="193" y="540" name="top"/>
  <outline>
    <contour>
      <point x="40" y="153" type="line"/>
      <point x="57" y="54"/>
      <point x="113" y="-12"/>
      <point x="195" y="-12" type="curve" smooth="yes"/>
      <point x="295" y="-12"/>
      <point x="351" y="93"/>
      <point x="351" y="250" type="curve" smooth="yes"/>
      <point x="351" y="383"/>
      <point x="285" y="472"/>
      <point x="192" y="472" type="curve" smooth="yes"/>
      <point x="115" y="472"/>
      <point x="63" y="410"/>
      <point x="42" y="317" type="curve"/>
      <point x="117" y="317" type="line"/>
      <point x="130" y="364"/>
      <point x="152" y="396"/>
      <point x="189" y="396" type="curve" smooth="yes"/>
      <point x="238" y="396"/>
      <point x="270" y="335"/>
      <point x="270" y="243" type="curve" smooth="yes"/>
      <point x="270" y="136"/>
      <point x="246" y="64"/>
      <point x="195" y="64" type="curve" smooth="yes"/>
      <point x="160" y="64"/>
      <point x="138" y="100"/>
      <point x="126" y="153" type="curve"/>
    </contour>
    <contour>
      <point x="174" y="204" type="line"/>
      <point x="288" y="204" type="line"/>
      <point x="288" y="280" type="line"/>
      <point x="174" y="280" type="line"/>
    </contour>
  </outline>
</glyph>
<glyph name="uni044E" format="2">
  <advance width="558"/>
  <unicode hex="044E"/>
  <outline>
    <contour>
      <point x="66" y="0" type="line"/>
      <point x="152" y="0" type="line"/>
      <point x="152" y="192" type="line"/>
      <point x="230" y="192" type="line"/>
      <point x="230" y="268" type="line"/>
      <point x="152" y="268" type="line"/>
      <point x="152" y="460" type="line"/>
      <point x="66" y="460" type="line"/>
    </contour>
    <contour>
      <point x="199" y="231" type="curve" smooth="yes"/>
      <point x="199" y="63"/>
      <point x="245" y="-12"/>
      <point x="353" y="-12" type="curve" smooth="yes"/>
      <point x="461" y="-12"/>
      <point x="518" y="63"/>
      <point x="518" y="230" type="curve" smooth="yes"/>
      <point x="518" y="398"/>
      <point x="465" y="472"/>
      <point x="353" y="472" type="curve" smooth="yes"/>
      <point x="247" y="472"/>
      <point x="199" y="398"/>
    </contour>
    <contour>
      <point x="284" y="230" type="curve" smooth="yes"/>
      <point x="284" y="353"/>
      <point x="307" y="396"/>
      <point x="353" y="396" type="curve" smooth="yes"/>
      <point x="399" y="396"/>
      <point x="432" y="353"/>
      <point x="432" y="230" type="curve" smooth="yes"/>
      <point x="432" y="107"/>
      <point x="399" y="64"/>
      <point x="353" y="64" type="curve" smooth="yes"/>
      <point x="307" y="64"/>
      <point x="284" y="107"/>
    </contour>
  </outline>
</glyph>
<glyph name="uni044F" format="2">
  <advance width="394"/>
  <unicode hex="044F"/>
  <anchor x="203" y="540" name="top"/>
  <outline>
    <contour>
      <point x="42" y="322" type="curve" smooth="yes"/>
      <point x="42" y="237"/>
      <point x="95" y="181"/>
      <point x="175" y="181" type="curve" smooth="yes"/>
      <point x="283" y="181" type="line"/>
      <point x="283" y="253" type="line"/>
      <point x="191" y="253" type="line" smooth="yes"/>
      <point x="153" y="253"/>
      <point x="128" y="280"/>
      <point x="128" y="321" type="curve" smooth="yes"/>
      <point x="128" y="361"/>
      <point x="153" y="388"/>
      <point x="191" y="388" type="curve" smooth="yes"/>
      <point x="283" y="388" type="line"/>
      <point x="283" y="460" type="line"/>
      <point x="175" y="460" type="line" smooth="yes"/>
      <point x="95" y="460"/>
      <point x="42" y="405"/>
    </contour>
    <contour>
      <point x="37" y="0" type="line"/>
      <point x="126" y="0" type="line"/>
      <point x="198" y="192" type="line"/>
      <point x="120" y="209" type="line"/>
    </contour>
    <contour>
      <point x="242" y="0" type="line"/>
      <point x="328" y="0" type="line"/>
      <point x="328" y="460" type="line"/>
      <point x="242" y="460" type="line"/>
    </contour>
  </outline>
</glyph>
<glyph name="uni0452" format="2">
  <advance width="442"/>
  <unicode hex="0452"/>
  <anchor x="308" y="540" name="top"/>
  <outline>
    <component base="uni045B"/>
    <contour>
      <point x="108" y="-83" type="line"/>
      <point x="108" y="-149"/>
      <point x="161" y="-200"/>
      <point x="232" y="-200" type="curve" smooth="yes"/>
      <point x="323" y="-200"/>
      <point x="376" y="-151"/>
      <point x="376" y="-52" type="curve" smooth="yes"/>
      <point x="376" y="50" type="line"/>
      <point x="290" y="50" type="line"/>
      <point x="290" y="-64" type="line" smooth="yes"/>
      <point x="290" y="-110"/>
      <point x="263" y="-124"/>
      <point x="238" y="-124" type="curve" smooth="yes"/>
      <point x="215" y="-124"/>
      <point x="193" y="-107"/>
      <point x="193" y="-83" type="curve"/>
    </contour>
  </outline>
</glyph>
<glyph name="uni0454" format="2">
  <advance width="490"/>
  <unicode hex="0454"/>
  <outline>
    <contour>
      <point x="40" y="230" type="curve" smooth="yes"/>
      <point x="40" y="86"/>
      <point x="124" y="-12"/>
      <point x="249" y="-12" type="curve"/>
      <point x="249" y="64" type="line"/>
      <point x="183" y="64"/>
      <point x="132" y="116"/>
      <point x="132" y="230" type="curve" smooth="yes"/>
      <point x="132" y="349"/>
      <point x="182" y="396"/>
      <point x="249" y="396" type="curve"/>
      <point x="249" y="472" type="line"/>
      <point x="132" y="472"/>
      <point x="40" y="364"/>
    </contour>
    <contour>
      <point x="89" y="187" type="line"/>
      <point x="257" y="187" type="line"/>
      <point x="257" y="253" type="line"/>
      <point x="89" y="253" type="line"/>
    </contour>
    <contour>
      <point x="249" y="-11" type="line"/>
      <point x="376" y="-11"/>
      <point x="432" y="78"/>
      <point x="450" y="154" type="curve"/>
      <point x="356" y="154" type="line"/>
      <point x="350" y="123"/>
      <point x="321" y="65"/>
      <point x="249" y="65" type="curve"/>
    </contour>
    <contour>
      <point x="249" y="395" type="line"/>
      <point x="323" y="395"/>
      <point x="351" y="332"/>
      <point x="354" y="316" type="curve"/>
      <point x="449" y="316" type="line"/>
      <point x="430" y="404"/>
      <point x="368" y="471"/>
      <point x="249" y="471" type="curve"/>
    </contour>
  </outline>
</glyph>
<glyph name="uni045F" format="2">
  <advance width="426"/>
  <unicode hex="045F"/>
  <outline>
    <contour>
      <point x="66" y="0" type="line"/>
      <point x="152" y="0" type="line"/>
      <point x="152" y="460" type="line"/>
      <point x="66" y="460" type="line"/>
    </contour>
    <contour>
      <point x="274" y="0" type="line"/>
      <point x="360" y="0" type="line"/>
      <point x="360" y="460" type="line"/>
      <point x="274" y="460" type="line"/>
    </contour>
    <contour>
      <point x="104" y="0" type="line"/>
      <point x="316" y="0" type="line"/>
      <point x="316" y="76" type="line"/>
      <point x="104" y="76" type="line"/>
    </contour>
    <contour>
      <point x="173" y="76" type="line"/>
      <point x="173" y="-140" type="line"/>
      <point x="253" y="-140" type="line"/>
      <point x="253" y="76" type="line"/>
    </contour>
  </outline>
  <guideline angle="90" x="213" y="0"/>
</glyph>
<glyph name="Yatcyr" format="2">
  <advance width="485"/>
  <unicode hex="0462"/>
  <outline>
    <component base="uni042C"/>
    <contour>
      <point x="0" y="540" type="line"/>
      <point x="298" y="540" type="line"/>
      <point x="298" y="620" type="line"/>
      <point x="0" y="620" type="line"/>
    </contour>
  </outline>
</glyph>
<glyph name="uni0466" format="2">
  <advance width="430"/>
  <unicode hex="0466"/>
  <anchor x="215" y="740" name="top"/>
  <anchor x="215" y="-50" name="bottom"/>
  <outline>
    <contour>
      <point x="102" y="187" type="line"/>
      <point x="330" y="187" type="line"/>
      <point x="330" y="277" type="line"/>
      <point x="102" y="277" type="line"/>
    </contour>
    <contour>
      <point x="10" y="0" type="line"/>
      <point x="103" y="0" type="line"/>
      <point x="203" y="437" type="line" smooth="yes"/>
      <point x="206" y="451"/>
      <point x="212" y="472"/>
      <point x="214" y="495" type="curve"/>
      <point x="210" y="493" type="line"/>
      <point x="220" y="493" type="line"/>
      <point x="216" y="495" type="line"/>
      <point x="218" y="472"/>
      <point x="224" y="451"/>
      <point x="227" y="437" type="curve" smooth="yes"/>
      <point x="328" y="0" type="line"/>
      <point x="420" y="0" type="line"/>
      <point x="264" y="680" type="line"/>
      <point x="166" y="680" type="line"/>
    </contour>
    <contour>
      <point x="170" y="0" type="line"/>
      <point x="262" y="0" type="line"/>
      <point x="262" y="225" type="line"/>
      <point x="170" y="225" type="line"/>
    </contour>
  </outline>
</glyph>
<glyph name="uni0467" format="2">
  <advance width="430"/>
  <unicode hex="0467"/>
  <anchor x="215" y="740" name="top"/>
  <anchor x="215" y="-50" name="bottom"/>
  <outline>
    <contour>
      <point x="102" y="82" type="line"/>
      <point x="330" y="82" type="line"/>
      <point x="330" y="158" type="line"/>
      <point x="102" y="158" type="line"/>
    </contour>
    <contour>
      <point x="10" y="0" type="line"/>
      <point x="103" y="0" type="line"/>
      <point x="203" y="287" type="line" smooth="yes"/>
      <point x="208" y="301"/>
      <point x="212" y="322"/>
      <point x="214" y="345" type="curve"/>
      <point x="210" y="343" type="line"/>
      <point x="220" y="343" type="line"/>
      <point x="216" y="345" type="line"/>
      <point x="218" y="322"/>
      <point x="222" y="301"/>
      <point x="227" y="287" type="curve" smooth="yes"/>
      <point x="328" y="0" type="line"/>
      <point x="420" y="0" type="line"/>
      <point x="264" y="460" type="line"/>
      <point x="166" y="460" type="line"/>
    </contour>
    <contour>
      <point x="170" y="0" type="line"/>
      <point x="262" y="0" type="line"/>
      <point x="262" y="115" type="line"/>
      <point x="170" y="115" type="line"/>
    </contour>
  </outline>
</glyph>
<glyph name="uni0468" format="2">
  <advance width="600"/>
  <unicode hex="0468"/>
  <outline>
    <contour>
      <point x="60" y="0" type="line"/>
      <point x="152" y="0" type="line"/>
      <point x="152" y="680" type="line"/>
      <point x="60" y="680" type="line"/>
    </contour>
    <contour>
      <point x="89" y="187" type="line"/>
      <point x="261" y="187" type="line"/>
      <point x="261" y="277" type="line"/>
      <point x="89" y="277" type="line"/>
    </contour>
    <contour>
      <point x="272" y="187" type="line"/>
      <point x="500" y="187" type="line"/>
      <point x="500" y="277" type="line"/>
      <point x="272" y="277" type="line"/>
    </contour>
    <contour>
      <point x="180" y="0" type="line"/>
      <point x="273" y="0" type="line"/>
      <point x="373" y="437" type="line" smooth="yes"/>
      <point x="376" y="451"/>
      <point x="382" y="472"/>
      <point x="384" y="495" type="curve"/>
      <point x="380" y="493" type="line"/>
      <point x="390" y="493" type="line"/>
      <point x="386" y="495" type="line"/>
      <point x="388" y="472"/>
      <point x="394" y="451"/>
      <point x="397" y="437" type="curve" smooth="yes"/>
      <point x="498" y="0" type="line"/>
      <point x="590" y="0" type="line"/>
      <point x="434" y="680" type="line"/>
      <point x="336" y="680" type="line"/>
    </contour>
    <contour>
      <point x="340" y="0" type="line"/>
      <point x="432" y="0" type="line"/>
      <point x="432" y="225" type="line"/>
      <point x="340" y="225" type="line"/>
    </contour>
  </outline>
</glyph>
<glyph name="uni0469" format="2">
  <advance width="596"/>
  <unicode hex="0469"/>
  <outline>
    <contour>
      <point x="66" y="0" type="line"/>
      <point x="152" y="0" type="line"/>
      <point x="152" y="460" type="line"/>
      <point x="66" y="460" type="line"/>
    </contour>
    <contour>
      <point x="98" y="82" type="line"/>
      <point x="254" y="82" type="line"/>
      <point x="254" y="158" type="line"/>
      <point x="98" y="158" type="line"/>
    </contour>
    <contour>
      <point x="268" y="82" type="line"/>
      <point x="496" y="82" type="line"/>
      <point x="496" y="158" type="line"/>
      <point x="268" y="158" type="line"/>
    </contour>
    <contour>
      <point x="176" y="0" type="line"/>
      <point x="269" y="0" type="line"/>
      <point x="369" y="287" type="line" smooth="yes"/>
      <point x="374" y="301"/>
      <point x="378" y="322"/>
      <point x="380" y="345" type="curve"/>
      <point x="376" y="343" type="line"/>
      <point x="386" y="343" type="line"/>
      <point x="382" y="345" type="line"/>
      <point x="384" y="322"/>
      <point x="388" y="301"/>
      <point x="393" y="287" type="curve" smooth="yes"/>
      <point x="494" y="0" type="line"/>
      <point x="586" y="0" type="line"/>
      <point x="430" y="460" type="line"/>
      <point x="332" y="460" type="line"/>
    </contour>
    <contour>
      <point x="336" y="0" type="line"/>
      <point x="428" y="0" type="line"/>
      <point x="428" y="115" type="line"/>
      <point x="336" y="115" type="line"/>
    </contour>
  </outline>
</glyph>
<glyph name="uni046A" format="2">
  <advance width="708"/>
  <unicode hex="046A"/>
  <outline>
    <contour>
      <point x="308" y="0" type="line"/>
      <point x="400" y="0" type="line"/>
      <point x="400" y="398" type="line"/>
      <point x="308" y="398" type="line"/>
    </contour>
    <contour>
      <point x="320" y="338" type="line"/>
      <point x="415" y="338" type="line"/>
      <point x="624" y="578" type="line"/>
      <point x="624" y="680" type="line"/>
      <point x="528" y="680" type="line"/>
      <point x="528" y="590" type="line"/>
      <point x="350" y="385" type="line"/>
      <point x="374" y="398" type="line"/>
      <point x="320" y="398" type="line"/>
    </contour>
    <contour>
      <point x="356" y="355" type="line"/>
      <point x="578" y="248"/>
      <point x="593" y="107"/>
      <point x="606" y="0" type="curve"/>
      <point x="698" y="0" type="line"/>
      <point x="676" y="199"/>
      <point x="604" y="304"/>
      <point x="420" y="405" type="curve"/>
    </contour>
    <contour>
      <point x="293" y="338" type="line"/>
      <point x="388" y="338" type="line"/>
      <point x="388" y="398" type="line"/>
      <point x="334" y="398" type="line"/>
      <point x="358" y="385" type="line"/>
      <point x="178" y="590" type="line"/>
      <point x="178" y="680" type="line"/>
      <point x="82" y="680" type="line"/>
      <point x="82" y="578" type="line"/>
    </contour>
    <contour>
      <point x="10" y="0" type="curve"/>
      <point x="102" y="0" type="line"/>
      <point x="115" y="107"/>
      <point x="130" y="248"/>
      <point x="352" y="355" type="curve"/>
      <point x="288" y="405" type="line"/>
      <point x="104" y="304"/>
      <point x="32" y="199"/>
    </contour>
    <contour>
      <point x="108" y="590" type="line"/>
      <point x="603" y="590" type="line"/>
      <point x="603" y="680" type="line"/>
      <point x="108" y="680" type="line"/>
    </contour>
  </outline>
  <guideline angle="90" x="93" y="0"/>
  <guideline angle="90" x="82" y="0"/>
  <guideline angle="0" x="0" y="590"/>
  <guideline angle="90" x="308" y="0"/>
  <guideline angle="90" x="683" y="0"/>
  <guideline angle="90" x="704" y="0"/>
  <guideline angle="90" x="308" y="0"/>
  <guideline angle="90" x="400" y="0"/>
  <guideline angle="90" x="469" y="0"/>
</glyph>
<glyph name="uni046B" format="2">
  <advance width="554"/>
  <unicode hex="046B"/>
  <outline>
    <contour>
      <point x="234" y="0" type="line"/>
      <point x="320" y="0" type="line"/>
      <point x="320" y="258" type="line"/>
      <point x="234" y="258" type="line"/>
    </contour>
    <contour>
      <point x="320" y="202" type="line"/>
      <point x="319" y="202" type="line"/>
      <point x="468" y="370" type="line"/>
      <point x="468" y="460" type="line"/>
      <point x="378" y="460" type="line"/>
      <point x="378" y="384" type="line"/>
      <point x="256" y="245" type="line"/>
      <point x="279" y="258" type="line"/>
      <point x="320" y="258" type="line"/>
    </contour>
    <contour>
      <point x="263" y="215" type="line"/>
      <point x="361" y="196"/>
      <point x="436" y="110"/>
      <point x="449" y="0" type="curve"/>
      <point x="535" y="0" type="line"/>
      <point x="506" y="144"/>
      <point x="444" y="222"/>
      <point x="317" y="272" type="curve"/>
    </contour>
    <contour>
      <point x="235" y="202" type="line"/>
      <point x="234" y="202" type="line"/>
      <point x="234" y="258" type="line"/>
      <point x="275" y="258" type="line"/>
      <point x="298" y="245" type="line"/>
      <point x="176" y="384" type="line"/>
      <point x="176" y="460" type="line"/>
      <point x="85" y="460" type="line"/>
      <point x="85" y="370" type="line"/>
    </contour>
    <contour>
      <point x="19" y="0" type="curve"/>
      <point x="105" y="0" type="line"/>
      <point x="117" y="109"/>
      <point x="192" y="195"/>
      <point x="291" y="215" type="curve"/>
      <point x="237" y="272" type="line"/>
      <point x="109" y="223"/>
      <point x="46" y="146"/>
    </contour>
    <contour>
      <point x="138" y="384" type="line"/>
      <point x="418" y="384" type="line"/>
      <point x="418" y="460" type="line"/>
      <point x="138" y="460" type="line"/>
    </contour>
  </outline>
  <guideline angle="0" x="0" y="253"/>
  <guideline angle="0" x="0" y="204"/>
</glyph>
<glyph name="uni046C" format="2">
  <advance width="878"/>
  <unicode hex="046C"/>
  <outline>
    <contour>
      <point x="60" y="0" type="line"/>
      <point x="152" y="0" type="line"/>
      <point x="152" y="680" type="line"/>
      <point x="60" y="680" type="line"/>
    </contour>
    <contour>
      <point x="89" y="308" type="line"/>
      <point x="531" y="308" type="line"/>
      <point x="531" y="398" type="line"/>
      <point x="89" y="398" type="line"/>
    </contour>
    <contour>
      <point x="478" y="0" type="line"/>
      <point x="570" y="0" type="line"/>
      <point x="570" y="398" type="line"/>
      <point x="478" y="398" type="line"/>
    </contour>
    <contour>
      <point x="490" y="338" type="line"/>
      <point x="585" y="338" type="line"/>
      <point x="794" y="578" type="line"/>
      <point x="794" y="680" type="line"/>
      <point x="698" y="680" type="line"/>
      <point x="698" y="590" type="line"/>
      <point x="520" y="385" type="line"/>
      <point x="544" y="398" type="line"/>
      <point x="490" y="398" type="line"/>
    </contour>
    <contour>
      <point x="526" y="355" type="line"/>
      <point x="748" y="248"/>
      <point x="763" y="107"/>
      <point x="776" y="0" type="curve"/>
      <point x="868" y="0" type="line"/>
      <point x="846" y="199"/>
      <point x="774" y="304"/>
      <point x="590" y="405" type="curve"/>
    </contour>
    <contour>
      <point x="463" y="338" type="line"/>
      <point x="558" y="338" type="line"/>
      <point x="558" y="398" type="line"/>
      <point x="504" y="398" type="line"/>
      <point x="528" y="385" type="line"/>
      <point x="348" y="590" type="line"/>
      <point x="348" y="680" type="line"/>
      <point x="252" y="680" type="line"/>
      <point x="252" y="578" type="line"/>
    </contour>
    <contour>
      <point x="180" y="0" type="curve"/>
      <point x="272" y="0" type="line"/>
      <point x="285" y="107"/>
      <point x="300" y="248"/>
      <point x="522" y="355" type="curve"/>
      <point x="458" y="405" type="line"/>
      <point x="274" y="304"/>
      <point x="202" y="199"/>
    </contour>
    <contour>
      <point x="278" y="590" type="line"/>
      <point x="773" y="590" type="line"/>
      <point x="773" y="680" type="line"/>
      <point x="278" y="680" type="line"/>
    </contour>
  </outline>
</glyph>
<glyph name="uni046D" format="2">
  <advance width="711"/>
  <unicode hex="046D"/>
  <outline>
    <component base="uni046B" xOffset="157"/>
    <contour>
      <point x="66" y="0" type="line"/>
      <point x="152" y="0" type="line"/>
      <point x="152" y="460" type="line"/>
      <point x="66" y="460" type="line"/>
    </contour>
    <contour>
      <point x="98" y="193" type="line"/>
      <point x="434" y="193" type="line"/>
      <point x="434" y="269" type="line"/>
      <point x="98" y="269" type="line"/>
    </contour>
  </outline>
</glyph>
<glyph name="uni0490" format="2">
  <advance width="407"/>
  <unicode hex="0490"/>
  <outline>
    <contour>
      <point x="60" y="0" type="line"/>
      <point x="152" y="0" type="line"/>
      <point x="152" y="680" type="line"/>
      <point x="60" y="680" type="line"/>
    </contour>
    <contour>
      <point x="104" y="590" type="line"/>
      <point x="384" y="590" type="line"/>
      <point x="384" y="680" type="line"/>
      <point x="104" y="680" type="line"/>
    </contour>
    <contour>
      <point x="291.827" y="660" type="line"/>
      <point x="383.827" y="660" type="line"/>
      <point x="383.827" y="800" type="line"/>
      <point x="301.827" y="800" type="line"/>
    </contour>
  </outline>
</glyph>
<glyph name="Germandbls" format="2">
  <advance width="472"/>
  <unicode hex="1E9E"/>
  <outline>
    <contour>
      <point x="60" y="0" type="line"/>
      <point x="152" y="0" type="line"/>
      <point x="152" y="549" type="line" smooth="yes"/>
      <point x="152" y="594"/>
      <point x="180" y="624"/>
      <point x="223" y="624" type="curve" smooth="yes"/>
      <point x="250" y="624"/>
      <point x="276" y="612"/>
      <point x="287" y="595" type="curve"/>
      <point x="210" y="472" type="line"/>
      <point x="210" y="383" type="line"/>
      <point x="292" y="383"/>
      <point x="332" y="323"/>
      <point x="332" y="222" type="curve" smooth="yes"/>
      <point x="332" y="127"/>
      <point x="301" y="64"/>
      <point x="249" y="64" type="curve" smooth="yes"/>
      <point x="238" y="64"/>
      <point x="225" y="67"/>
      <point x="209" y="74" type="curve"/>
      <point x="209" y="-4" type="line"/>
      <point x="227" y="-8"/>
      <point x="253" y="-12"/>
      <point x="272" y="-12" type="curve" smooth="yes"/>
      <point x="364" y="-12"/>
      <point x="424" y="87"/>
      <point x="424" y="236" type="curve" smooth="yes"/>
      <point x="424" y="368"/>
      <point x="352" y="455"/>
      <point x="245" y="455" type="curve"/>
      <point x="275" y="428" type="line"/>
      <point x="382" y="601" type="line"/>
      <point x="362" y="660"/>
      <point x="299" y="700"/>
      <point x="224" y="700" type="curve" smooth="yes"/>
      <point x="126" y="700"/>
      <point x="60" y="647"/>
      <point x="60" y="553" type="curve" smooth="yes"/>
    </contour>
  </outline>
</glyph>
<glyph name="uni2018" format="2">
  <advance width="186"/>
  <unicode hex="2018"/>
  <anchor x="103" y="510" name="_top"/>
  <outline>
    <contour>
      <point x="48" y="510" type="line"/>
      <point x="138" y="510" type="line"/>
      <point x="138" y="598" type="line"/>
      <point x="114" y="598" type="line"/>
      <point x="137" y="711" type="line"/>
      <point x="96" y="711" type="line"/>
      <point x="48" y="597" type="line"/>
    </contour>
  </outline>
  <guideline angle="90" x="93" y="0"/>
</glyph>
<glyph name="quotereversed" format="2">
  <advance width="186"/>
  <unicode hex="201B"/>
  <outline>
    <contour>
      <point x="48" y="624" type="line"/>
      <point x="96" y="510" type="line"/>
      <point x="137" y="510" type="line"/>
      <point x="114" y="623" type="line"/>
      <point x="138" y="623" type="line"/>
      <point x="138" y="711" type="line"/>
      <point x="48" y="711" type="line"/>
    </contour>
  </outline>
</glyph>
<glyph name="daggerdbl" format="2">
  <advance width="463"/>
  <unicode hex="2021"/>
  <outline>
    <contour>
      <point x="185.5" y="310" type="line"/>
      <point x="197.146" y="239.956" type="line"/>
      <point x="265.854" y="239.956" type="line"/>
      <point x="277.5" y="310" type="line"/>
      <point x="277.5" y="412" type="line"/>
      <point x="265.854" y="622" type="line"/>
      <point x="197.146" y="622" type="line"/>
      <point x="185.5" y="412" type="line"/>
    </contour>
    <contour>
      <point x="19" y="451" type="line"/>
      <point x="19" y="371" type="line"/>
      <point x="69.4629" y="370.764" type="line"/>
      <point x="231.5" y="376" type="line"/>
      <point x="393.821" y="370.64" type="line"/>
      <point x="444" y="371" type="line"/>
      <point x="444" y="451" type="line"/>
      <point x="393.821" y="451.361" type="line"/>
      <point x="231.5" y="446" type="line"/>
      <point x="69.4629" y="451.236" type="line"/>
    </contour>
    <contour>
      <point x="197.146" y="240" type="line"/>
      <point x="185.5" y="169.956" type="line"/>
      <point x="185.5" y="67.9562" type="line"/>
      <point x="197.146" y="-142.044" type="line"/>
      <point x="265.854" y="-142.044" type="line"/>
      <point x="277.5" y="67.9562" type="line"/>
      <point x="277.5" y="169.956" type="line"/>
      <point x="265.854" y="240" type="line"/>
    </contour>
    <contour>
      <point x="19" y="108.956" type="line"/>
      <point x="19" y="28.9562" type="line"/>
      <point x="69.4629" y="28.72" type="line"/>
      <point x="231.5" y="33.9562" type="line"/>
      <point x="393.821" y="28.5957" type="line"/>
      <point x="444" y="28.9562" type="line"/>
      <point x="444" y="108.956" type="line"/>
      <point x="393.821" y="109.317" type="line"/>
      <point x="231.5" y="103.956" type="line"/>
      <point x="69.4629" y="109.192" type="line"/>
    </contour>
  </outline>
  <guideline angle="0" x="0" y="240"/>
</glyph>
